<svg width="14" height="13" viewBox="0 0 14 13" fill="none" xmlns="http://www.w3.org/2000/svg">
<path d="M2.8125 3.79175H0V13.0001H2.8125V3.79175Z" fill="white"/>
<path d="M1.39781 2.70833H1.38206C0.542812 2.70833 0 2.106 0 1.35362C0 0.585 0.559687 0 1.41412 0C2.26969 0 2.79675 0.585 2.8125 1.35362C2.8125 2.10546 2.26969 2.70833 1.39781 2.70833Z" fill="white"/>
<path d="M13.5 13.0001H10.6875V8.07145C10.6875 6.88087 9.99844 6.06837 8.892 6.06837C8.04769 6.06837 7.59094 6.61654 7.36931 7.14629C7.28831 7.33587 7.3125 7.8602 7.3125 8.12508V13.0001H4.5V3.79175H7.3125V5.20875C7.71806 4.60425 8.35313 3.79175 9.97763 3.79175C11.9903 3.79175 13.4994 5.0105 13.4994 7.73183L13.5 13.0001Z" fill="white"/>
</svg>
