<svg width="26" height="25" viewBox="0 0 26 25" fill="none" xmlns="http://www.w3.org/2000/svg">
<path d="M11 0C4.925 0 0 4.477 0 10C0 12.8366 1.30813 15.3878 3.39648 17.2051C3.09694 18.186 2.4721 19.1617 1.32422 20.0312C1.32357 20.0319 1.32292 20.0326 1.32227 20.0332C1.22759 20.0692 1.14608 20.1331 1.08853 20.2165C1.03098 20.2998 1.00011 20.3987 1 20.5C1 20.6326 1.05268 20.7598 1.14645 20.8536C1.24021 20.9473 1.36739 21 1.5 21C1.53417 20.9996 1.5682 20.9956 1.60156 20.9883C3.54163 20.9826 5.19694 20.1539 6.51367 19.1152C7.13852 19.3694 7.79077 19.5789 8.4707 19.7246C8.1667 18.8646 8 17.949 8 17C8 12.037 12.486 8 18 8C19.382 8 20.6994 8.25389 21.8984 8.71289C21.2024 3.79889 16.594 0 11 0ZM18 10C15.8783 10 13.8434 10.7375 12.3431 12.0503C10.8429 13.363 10 15.1435 10 17C10 18.8565 10.8429 20.637 12.3431 21.9497C13.8434 23.2625 15.8783 24 18 24C19.0229 23.9986 20.036 23.8255 20.9844 23.4902C22.2107 24.3469 23.6949 24.9823 25.3945 24.9883C25.4292 24.9959 25.4645 24.9998 25.5 25C25.6326 25 25.7598 24.9473 25.8536 24.8536C25.9473 24.7598 26 24.6326 26 24.5C25.9998 24.3977 25.9683 24.2979 25.9096 24.2141C25.8509 24.1302 25.768 24.0664 25.6719 24.0312C24.7567 23.3364 24.1701 22.5716 23.8184 21.793C25.2164 20.4966 25.9967 18.7824 26 17C26 15.1435 25.1571 13.363 23.6569 12.0503C22.1566 10.7375 20.1217 10 18 10Z" fill="white"/>
</svg>
