<svg width="17" height="17" viewBox="0 0 17 17" fill="none" xmlns="http://www.w3.org/2000/svg">
<path d="M2.25 0.75C1.4209 0.75 0.75 1.4209 0.75 2.25V12.75C0.75 13.5762 1.41797 14.25 2.25 14.25H6.44238C6.17871 13.6055 6.0293 12.9053 6.00879 12.1758C5.5459 11.7627 5.25 11.1709 5.25 10.5C5.25 9.32227 6.15234 8.37012 7.30371 8.27051C8.40527 6.8877 10.0986 6 12 6C12.7969 6 13.5557 6.1582 14.25 6.44238V4.37109C14.25 3.97266 14.0918 3.5918 13.8105 3.31055L11.6895 1.18945C11.4082 0.908203 11.0273 0.75 10.6289 0.75H2.25ZM3 2.25H9C9.41309 2.25 9.75 2.58691 9.75 3V4.5C9.75 4.91309 9.41309 5.25 9 5.25H3C2.58691 5.25 2.25 4.91309 2.25 4.5V3C2.25 2.58691 2.58691 2.25 3 2.25ZM12 7.5C9.52441 7.5 7.5 9.52441 7.5 12C7.5 14.4756 9.52441 16.5 12 16.5C14.4756 16.5 16.5 14.4756 16.5 12C16.5 9.52441 14.4756 7.5 12 7.5ZM14.1006 9.97559L15.1494 11.0244L11.625 14.5518L9.22559 12.1494L10.2744 11.1006L11.625 12.4482L14.1006 9.97559Z" fill="#10389B"/>
</svg>
