<?xml version="1.0" encoding="utf-8"?>
<!-- Generator: Adobe Illustrator 21.0.0, SVG Export Plug-In . SVG Version: 6.00 Build 0)  -->
<svg version="1.1" id="Layer_1" xmlns="http://www.w3.org/2000/svg" xmlns:xlink="http://www.w3.org/1999/xlink" x="0px" y="0px"
	 viewBox="0 0 15 15" style="enable-background:new 0 0 15 15;" xml:space="preserve">
<style type="text/css">
	.st0{fill:#7ED321;}
	.st1{fill:none;stroke:#FFFFFF;}
</style>
<path class="st0" d="M7.5,15c4.1,0,7.5-3.4,7.5-7.5C15,3.4,11.6,0,7.5,0C3.4,0,0,3.4,0,7.5C0,11.6,3.4,15,7.5,15z"/>
<path class="st1" d="M10.8,4.8c0,0-0.1,0-0.1,0l-3,3.7c0,0,0,0,0,0c0,0,0,0,0,0l-0.8,1c0,0-0.1,0-0.1,0c0,0-0.1,0-0.1,0L4.4,7.4
	c0,0-0.1,0-0.1,0c0,0,0,0.1,0,0.1l2.3,2.1c0.1,0.1,0.1,0.1,0.2,0.1c0,0,0,0,0,0C6.9,9.8,7,9.7,7,9.6l0.8-1c0,0,0,0,0,0L10.8,5
	C10.8,4.9,10.8,4.9,10.8,4.8"/>
</svg>
