<?xml version="1.0" encoding="utf-8"?>
<!-- Generator: Adobe Illustrator 21.0.0, SVG Export Plug-In . SVG Version: 6.00 Build 0)  -->
<svg version="1.1" id="Layer_1" xmlns="http://www.w3.org/2000/svg" xmlns:xlink="http://www.w3.org/1999/xlink" x="0px" y="0px"
	 viewBox="0 0 30 30" style="enable-background:new 0 0 30 30;" xml:space="preserve">
<style type="text/css">
	.st0{fill:#0288D1;}
	.st1{fill:#FFFFFF;}
</style>
<path class="st0" d="M15,30c8.3,0,15-6.7,15-15c0-8.3-6.7-15-15-15C6.7,0,0,6.7,0,15C0,23.3,6.7,30,15,30z"/>
<g>
	<path class="st1" d="M11.8,11.8H9V21h2.8V11.8z"/>
	<path class="st1" d="M10.4,10.7L10.4,10.7C9.5,10.7,9,10.1,9,9.4C9,8.6,9.6,8,10.4,8c0.9,0,1.4,0.6,1.4,1.4
		C11.8,10.1,11.3,10.7,10.4,10.7z"/>
	<path class="st1" d="M22.5,21h-2.8v-4.9c0-1.2-0.7-2-1.8-2c-0.8,0-1.3,0.5-1.5,1.1c-0.1,0.2-0.1,0.7-0.1,1V21h-2.8v-9.2h2.8v1.4
		c0.4-0.6,1-1.4,2.7-1.4c2,0,3.5,1.2,3.5,3.9L22.5,21z"/>
</g>
</svg>
