<svg width="21" height="21" viewBox="0 0 21 21" fill="none" xmlns="http://www.w3.org/2000/svg">
<path d="M9 0C6.80078 0 5 1.80078 5 4C5 6.19922 6.80078 8 9 8C11.1992 8 13 6.19922 13 4C13 1.80078 11.1992 0 9 0ZM9 2C10.1172 2 11 2.88281 11 4C11 5.11719 10.1172 6 9 6C7.88281 6 7 5.11719 7 4C7 2.88281 7.88281 2 9 2ZM15 9C13.1875 9 11.5586 9.81641 10.457 11.0938C9.95703 11.0391 9.46484 11 9 11C7.25391 11 5.1875 11.4102 3.44922 12.0938C2.58203 12.4375 1.79297 12.8477 1.16406 13.3711C0.539063 13.8906 0 14.5977 0 15.5V18H9.8125C10.8555 19.7891 12.7891 21 15 21C18.3008 21 21 18.3008 21 15C21 11.6992 18.3008 9 15 9ZM15 11C16.0039 11 16.9062 11.3789 17.6055 11.9805L15 14.5859L13.707 13.293L12.293 14.707L15 17.4141L18.7539 13.6562C18.9062 14.0781 19 14.5273 19 15C19 17.2227 17.2227 19 15 19C12.7773 19 11 17.2227 11 15C11 12.7773 12.7773 11 15 11ZM9 13C9.10938 13 9.23047 13.0117 9.34375 13.0156C9.125 13.6367 9 14.3047 9 15C9 15.3398 9.03516 15.6719 9.09375 16H2V15.5C2 15.4336 2.06641 15.2188 2.44531 14.9062C2.82422 14.5938 3.44531 14.2461 4.17969 13.9531C5.65234 13.375 7.58594 13 9 13Z" fill="#10389B"/>
</svg>
