<svg width="20" height="20" viewBox="0 0 20 20" fill="none" xmlns="http://www.w3.org/2000/svg">
<path d="M8.57143 0C6.46577 0 4.7619 1.70387 4.7619 3.80952C4.7619 5.91518 6.46577 7.61905 8.57143 7.61905C10.6771 7.61905 12.381 5.91518 12.381 3.80952C12.381 1.70387 10.6771 0 8.57143 0ZM14.2857 8.57143C11.1421 8.57143 8.57143 11.1421 8.57143 14.2857C8.57143 17.4293 11.1421 20 14.2857 20C17.4293 20 20 17.4293 20 14.2857C20 11.1421 17.4293 8.57143 14.2857 8.57143ZM7.66741 10.5208C4.65774 10.7701 0 12.1875 0 14.7619V17.1429H7.22842C6.86756 16.2612 6.66667 15.2976 6.66667 14.2857C6.66667 12.9129 7.03497 11.6332 7.66741 10.5208ZM13.3333 11.4286H15.2381V13.3333H17.1429V15.2381H15.2381V17.1429H13.3333V15.2381H11.4286V13.3333H13.3333V11.4286Z" fill="#10389B"/>
</svg>
