<svg width="21" height="21" viewBox="0 0 21 21" fill="none" xmlns="http://www.w3.org/2000/svg">
<path d="M8.92802 0.0834961C8.42906 0.0834961 8.00253 0.436198 7.90669 0.925781L7.55879 2.71208C6.70384 3.03537 5.9133 3.48704 5.21911 4.05689L3.50606 3.46688C3.03419 3.30438 2.51501 3.4995 2.26501 3.93075L0.694374 6.65291C0.445416 7.08521 0.536024 7.63402 0.912066 7.9611L2.28536 9.15536C2.21394 9.59426 2.16736 10.0411 2.16736 10.5002C2.16736 10.9592 2.21394 11.4061 2.28536 11.845L0.912066 13.0392C0.536024 13.3663 0.445416 13.9151 0.694374 14.3474L2.26501 17.0696C2.51397 17.5019 3.03419 17.6969 3.50606 17.5355L5.21911 16.9455C5.91307 17.515 6.70422 17.9651 7.55879 18.2882L7.90669 20.0745C8.00253 20.5641 8.42906 20.9168 8.92802 20.9168H12.0734C12.5723 20.9168 12.9988 20.5641 13.0947 20.0745L13.4426 18.2882C14.2975 17.965 15.0881 17.5133 15.7823 16.9434L17.4953 17.5334C17.9672 17.6959 18.4864 17.5019 18.7364 17.0696L20.307 14.3454C20.556 13.9131 20.4654 13.3663 20.0893 13.0392L18.716 11.845C18.7874 11.4061 18.834 10.9592 18.834 10.5002C18.834 10.0411 18.7874 9.59426 18.716 9.15536L20.0893 7.9611C20.4654 7.63402 20.556 7.08521 20.307 6.65291L18.7364 3.93075C18.4874 3.49845 17.9672 3.30339 17.4953 3.46484L15.7823 4.05485C15.0883 3.48536 14.2972 3.03523 13.4426 2.71208L13.0947 0.925781C12.9988 0.436198 12.5723 0.0834961 12.0734 0.0834961H8.92802ZM10.5007 6.3335C12.8017 6.3335 14.6674 8.19912 14.6674 10.5002C14.6674 12.8012 12.8017 14.6668 10.5007 14.6668C8.19965 14.6668 6.33402 12.8012 6.33402 10.5002C6.33402 8.19912 8.19965 6.3335 10.5007 6.3335Z" fill="white"/>
</svg>
