<svg width="27" height="28" viewBox="0 0 27 28" fill="none" xmlns="http://www.w3.org/2000/svg">
<path d="M10.6004 0.800049C4.97305 0.800049 0.400391 5.37271 0.400391 11C0.400391 16.6274 4.97305 21.2001 10.6004 21.2001C12.827 21.2001 14.8848 20.4829 16.5629 19.2688L24.4566 27.1438L26.1441 25.4563L18.3441 17.6376C19.877 15.8516 20.8004 13.5336 20.8004 11C20.8004 5.37271 16.2277 0.800049 10.6004 0.800049ZM10.6004 2.00005C15.5785 2.00005 19.6004 6.02192 19.6004 11C19.6004 15.9782 15.5785 20 10.6004 20C5.62227 20 1.60039 15.9782 1.60039 11C1.60039 6.02192 5.62227 2.00005 10.6004 2.00005Z" fill="black"/>
</svg>
