<?xml version="1.0" encoding="utf-8"?>
<!-- Generator: Adobe Illustrator 21.0.0, SVG Export Plug-In . SVG Version: 6.00 Build 0)  -->
<svg version="1.1" id="Layer_1" xmlns="http://www.w3.org/2000/svg" xmlns:xlink="http://www.w3.org/1999/xlink" x="0px" y="0px"
	 viewBox="0 0 15 15" style="enable-background:new 0 0 15 15;" xml:space="preserve">
<style type="text/css">
	.st0{fill:#FF0000;}
	.st1{fill:none;}
	.st2{fill:#FFFFFF;}
</style>
<path class="st0" d="M7.5,15c4.1,0,7.5-3.4,7.5-7.5C15,3.4,11.6,0,7.5,0C3.4,0,0,3.4,0,7.5C0,11.6,3.4,15,7.5,15z"/>
<line class="st1" x1="10.8" y1="4.8" x2="6" y2="11.1"/>
<path class="st2" d="M3.8,11.5L3.8,11.5c-0.2-0.2-0.2-0.6,0-0.8L10.5,4c0.2-0.2,0.6-0.2,0.8,0l0,0c0.2,0.2,0.2,0.6,0,0.8l-6.6,6.6
	C4.4,11.7,4.1,11.7,3.8,11.5z"/>
<path class="st2" d="M11.2,11.5L11.2,11.5c-0.2,0.2-0.6,0.2-0.8,0L3.7,4.8C3.5,4.6,3.5,4.2,3.7,4l0,0c0.2-0.2,0.6-0.2,0.8,0l6.6,6.6
	C11.4,10.9,11.4,11.2,11.2,11.5z"/>
</svg>
