<svg width="30" height="30" viewBox="0 0 30 30" fill="none" xmlns="http://www.w3.org/2000/svg">
<path fill-rule="evenodd" clip-rule="evenodd" d="M15 30C23.2843 30 30 23.2843 30 15C30 6.71573 23.2843 0 15 0C6.71573 0 0 6.71573 0 15C0 23.2843 6.71573 30 15 30Z" fill="#2AA3EF"/>
<path fill-rule="evenodd" clip-rule="evenodd" d="M21.6004 10.8784C21.115 11.0952 20.5924 11.2418 20.0449 11.3082C20.6041 10.9703 21.0335 10.4364 21.2354 9.79991C20.712 10.1124 20.1327 10.3392 19.5153 10.4611C19.0214 9.93106 18.3179 9.6001 17.539 9.6001C16.0433 9.6001 14.8303 10.8206 14.8303 12.3265C14.8303 12.541 14.8552 12.7485 14.901 12.9483C12.6505 12.8349 10.6555 11.7487 9.31984 10.0992C9.08609 10.502 8.9533 10.9703 8.9533 11.4702C8.9533 12.416 9.43166 13.2508 10.1578 13.7391C9.71356 13.7252 9.29577 13.6026 8.93156 13.3981C8.93156 13.4097 8.93156 13.4213 8.93156 13.4328C8.93156 14.7536 9.86421 15.8553 11.1036 16.106C10.8761 16.1685 10.6377 16.2017 10.3899 16.2017C10.216 16.2017 10.0459 16.1847 9.88052 16.1523C10.2253 17.2355 11.2255 18.0239 12.4106 18.0463C11.4833 18.7769 10.3154 19.2128 9.04649 19.2128C8.82828 19.2128 8.61239 19.2004 8.40039 19.175C9.59863 19.9488 11.0221 20.4001 12.5519 20.4001C17.5328 20.4001 20.2569 16.2457 20.2569 12.6428C20.2569 12.524 20.2538 12.4075 20.2492 12.2903C20.778 11.9061 21.2377 11.4254 21.6004 10.8792V10.8784Z" fill="white"/>
</svg>
