<svg width="25" height="7" viewBox="0 0 25 7" fill="none" xmlns="http://www.w3.org/2000/svg">
<path d="M2.88462 0.615479C1.29207 0.615479 0 1.90755 0 3.50009C0 5.09264 1.29207 6.38471 2.88462 6.38471C4.47716 6.38471 5.76923 5.09264 5.76923 3.50009C5.76923 1.90755 4.47716 0.615479 2.88462 0.615479ZM12.5 0.615479C10.9075 0.615479 9.61538 1.90755 9.61538 3.50009C9.61538 5.09264 10.9075 6.38471 12.5 6.38471C14.0925 6.38471 15.3846 5.09264 15.3846 3.50009C15.3846 1.90755 14.0925 0.615479 12.5 0.615479ZM22.1154 0.615479C20.5228 0.615479 19.2308 1.90755 19.2308 3.50009C19.2308 5.09264 20.5228 6.38471 22.1154 6.38471C23.7079 6.38471 25 5.09264 25 3.50009C25 1.90755 23.7079 0.615479 22.1154 0.615479Z" fill="white"/>
</svg>
