<svg width="30" height="30" viewBox="0 0 30 30" fill="none" xmlns="http://www.w3.org/2000/svg">
<path fill-rule="evenodd" clip-rule="evenodd" d="M15 30C23.2843 30 30 23.2843 30 15C30 6.71573 23.2843 0 15 0C6.71573 0 0 6.71573 0 15C0 23.2843 6.71573 30 15 30Z" fill="url(#paint0_linear)"/>
<path fill-rule="evenodd" clip-rule="evenodd" d="M18.1519 7.19995H11.8465C9.284 7.19995 7.19922 9.28473 7.19922 11.8473V18.1526C7.19922 20.7152 9.284 22.8 11.8465 22.8H18.1519C20.7144 22.8 22.7992 20.7152 22.7992 18.1526V11.8473C22.7992 9.28473 20.7144 7.19995 18.1519 7.19995ZM21.2298 18.1526C21.2298 19.8525 19.8518 21.2306 18.1519 21.2306H11.8465C10.1466 21.2306 8.76855 19.8525 8.76855 18.1526V11.8473C8.76855 10.1474 10.1466 8.76932 11.8465 8.76932H18.1519C19.8518 8.76932 21.2298 10.1474 21.2298 11.8473V18.1526ZM10.9644 14.9999C10.9644 12.7752 12.7743 10.9652 14.9991 10.9652C17.2238 10.9652 19.0338 12.7752 19.0338 14.9999C19.0338 17.2247 17.2238 19.0346 14.9991 19.0346C12.7743 19.0346 10.9644 17.2246 10.9644 14.9999ZM14.999 17.4653C13.6375 17.4653 12.5337 16.3615 12.5337 14.9999C12.5337 13.6384 13.6375 12.5346 14.999 12.5346C16.3606 12.5346 17.4644 13.6384 17.4644 14.9999C17.4644 16.3615 16.3606 17.4653 14.999 17.4653ZM20.0083 10.9955C20.0083 11.5295 19.5755 11.9623 19.0415 11.9623C18.5076 11.9623 18.0747 11.5295 18.0747 10.9955C18.0747 10.4616 18.5076 10.0287 19.0415 10.0287C19.5755 10.0287 20.0083 10.4616 20.0083 10.9955Z" fill="white"/>
<defs>
<linearGradient id="paint0_linear" x1="0.100231" y1="-0.0501153" x2="4.68378e-07" y2="29.9499" gradientUnits="userSpaceOnUse">
<stop stop-color="#7024C4"/>
<stop offset="0.415461" stop-color="#C21975"/>
<stop offset="0.702206" stop-color="#C74C4D"/>
<stop offset="1" stop-color="#E09B3D"/>
</linearGradient>
</defs>
</svg>
