<svg width="21" height="21" viewBox="0 0 21 21" fill="none" xmlns="http://www.w3.org/2000/svg">
<path d="M8.65984 0.380127C4.33656 0.380127 0.839844 3.87685 0.839844 8.20013C0.839844 12.5234 4.33656 16.0201 8.65984 16.0201C10.2034 16.0201 11.6319 15.5673 12.843 14.7983L18.4923 20.4476L20.4473 18.4926L14.8698 12.9295C15.8725 11.6142 16.4798 9.98443 16.4798 8.20013C16.4798 3.87685 12.9831 0.380127 8.65984 0.380127ZM8.65984 2.22013C11.9715 2.22013 14.6398 4.88849 14.6398 8.20013C14.6398 11.5118 11.9715 14.1801 8.65984 14.1801C5.3482 14.1801 2.67984 11.5118 2.67984 8.20013C2.67984 4.88849 5.3482 2.22013 8.65984 2.22013Z" fill="white"/>
</svg>
