<svg width="22" height="16" viewBox="0 0 22 16" fill="none" xmlns="http://www.w3.org/2000/svg">
<path d="M11 0C3 0 0 8 0 8C0 8 3 16 11 16C19 16 22 8 22 8C22 8 19 0 11 0ZM11 2C16.2773 2 18.9453 6.26562 19.8086 7.99609C18.9453 9.71484 16.2539 14 11 14C5.72266 14 3.05469 9.73438 2.19141 8.00391C3.05859 6.28516 5.74609 2 11 2ZM11 4C8.78906 4 7 5.78906 7 8C7 10.2109 8.78906 12 11 12C13.2109 12 15 10.2109 15 8C15 5.78906 13.2109 4 11 4ZM11 6C12.1055 6 13 6.89453 13 8C13 9.10547 12.1055 10 11 10C9.89453 10 9 9.10547 9 8C9 6.89453 9.89453 6 11 6Z" fill="#10389B"/>
</svg>
