<svg width="7" height="27" viewBox="0 0 7 27" fill="none" xmlns="http://www.w3.org/2000/svg">
<path d="M3.5 0.666748C2.57174 0.666748 1.6815 1.0355 1.02513 1.69187C0.368748 2.34825 0 3.23849 0 4.16675C0 5.09501 0.368748 5.98525 1.02513 6.64162C1.6815 7.298 2.57174 7.66675 3.5 7.66675C4.42826 7.66675 5.3185 7.298 5.97487 6.64162C6.63125 5.98525 7 5.09501 7 4.16675C7 3.23849 6.63125 2.34825 5.97487 1.69187C5.3185 1.0355 4.42826 0.666748 3.5 0.666748ZM3.5 10.0001C2.57174 10.0001 1.6815 10.3688 1.02513 11.0252C0.368748 11.6816 0 12.5718 0 13.5001C0 14.4283 0.368748 15.3186 1.02513 15.975C1.6815 16.6313 2.57174 17.0001 3.5 17.0001C4.42826 17.0001 5.3185 16.6313 5.97487 15.975C6.63125 15.3186 7 14.4283 7 13.5001C7 12.5718 6.63125 11.6816 5.97487 11.0252C5.3185 10.3688 4.42826 10.0001 3.5 10.0001ZM3.5 19.3334C2.57174 19.3334 1.6815 19.7022 1.02513 20.3585C0.368748 21.0149 0 21.9052 0 22.8334C0 23.7617 0.368748 24.6519 1.02513 25.3083C1.6815 25.9647 2.57174 26.3334 3.5 26.3334C4.42826 26.3334 5.3185 25.9647 5.97487 25.3083C6.63125 24.6519 7 23.7617 7 22.8334C7 21.9052 6.63125 21.0149 5.97487 20.3585C5.3185 19.7022 4.42826 19.3334 3.5 19.3334Z" fill="white"/>
</svg>
