<svg width="10" height="9" viewBox="0 0 10 9" fill="none" xmlns="http://www.w3.org/2000/svg">
<path d="M1.66732 0.666748C1.20833 0.666748 0.833984 1.0411 0.833984 1.50008V6.50008C0.833984 6.95907 1.20833 7.33341 1.66732 7.33341H6.13835L5.30501 6.50008H1.66732V1.50008H8.33398V5.13615L9.16732 5.96948V1.50008C9.16732 1.0411 8.79297 0.666748 8.33398 0.666748H1.66732ZM5.41732 4.41675V5.434L8.03939 8.05607L9.05664 7.03719L6.43457 4.41675H5.41732ZM9.41634 7.39852L8.39909 8.41577L8.9069 8.92521C9.00781 9.02449 9.16895 9.02449 9.2666 8.92521L9.92578 8.26603C10.0251 8.16675 10.0251 8.00561 9.92578 7.90633L9.41634 7.39852Z" fill="white"/>
</svg>
