<svg width="21" height="17" viewBox="0 0 21 17" fill="none" xmlns="http://www.w3.org/2000/svg">
<path d="M0.5 0.166748V3.50008H3.83333V0.166748H0.5ZM8 1.00008C7.88957 0.99852 7.77994 1.01892 7.67746 1.0601C7.57499 1.10128 7.48172 1.16241 7.40308 1.23995C7.32444 1.31748 7.26199 1.40988 7.21937 1.51176C7.17675 1.61364 7.1548 1.72298 7.1548 1.83341C7.1548 1.94385 7.17675 2.05319 7.21937 2.15507C7.26199 2.25695 7.32444 2.34934 7.40308 2.42688C7.48172 2.50442 7.57499 2.56555 7.67746 2.60673C7.77994 2.64791 7.88957 2.66831 8 2.66675H19.6667C19.7771 2.66831 19.8867 2.64791 19.9892 2.60673C20.0917 2.56555 20.1849 2.50442 20.2636 2.42688C20.3422 2.34934 20.4047 2.25695 20.4473 2.15507C20.4899 2.05319 20.5119 1.94385 20.5119 1.83341C20.5119 1.72298 20.4899 1.61364 20.4473 1.51176C20.4047 1.40988 20.3422 1.31748 20.2636 1.23995C20.1849 1.16241 20.0917 1.10128 19.9892 1.0601C19.8867 1.01892 19.7771 0.99852 19.6667 1.00008H8ZM0.5 6.83341V10.1667H3.83333V6.83341H0.5ZM8 7.66675C7.88957 7.66519 7.77994 7.68559 7.67746 7.72677C7.57499 7.76794 7.48172 7.82908 7.40308 7.90661C7.32444 7.98415 7.26199 8.07654 7.21937 8.17843C7.17675 8.28031 7.1548 8.38964 7.1548 8.50008C7.1548 8.61052 7.17675 8.71986 7.21937 8.82174C7.26199 8.92362 7.32444 9.01601 7.40308 9.09355C7.48172 9.17109 7.57499 9.23222 7.67746 9.2734C7.77994 9.31458 7.88957 9.33498 8 9.33341H19.6667C19.7771 9.33498 19.8867 9.31458 19.9892 9.2734C20.0917 9.23222 20.1849 9.17109 20.2636 9.09355C20.3422 9.01601 20.4047 8.92362 20.4473 8.82174C20.4899 8.71986 20.5119 8.61052 20.5119 8.50008C20.5119 8.38964 20.4899 8.28031 20.4473 8.17843C20.4047 8.07654 20.3422 7.98415 20.2636 7.90661C20.1849 7.82908 20.0917 7.76794 19.9892 7.72677C19.8867 7.68559 19.7771 7.66519 19.6667 7.66675H8ZM0.5 13.5001V16.8334H3.83333V13.5001H0.5ZM8 14.3334C7.88957 14.3319 7.77994 14.3523 7.67746 14.3934C7.57499 14.4346 7.48172 14.4957 7.40308 14.5733C7.32444 14.6508 7.26199 14.7432 7.21937 14.8451C7.17675 14.947 7.1548 15.0563 7.1548 15.1667C7.1548 15.2772 7.17675 15.3865 7.21937 15.4884C7.26199 15.5903 7.32444 15.6827 7.40308 15.7602C7.48172 15.8378 7.57499 15.8989 7.67746 15.9401C7.77994 15.9812 7.88957 16.0016 8 16.0001H19.6667C19.7771 16.0016 19.8867 15.9812 19.9892 15.9401C20.0917 15.8989 20.1849 15.8378 20.2636 15.7602C20.3422 15.6827 20.4047 15.5903 20.4473 15.4884C20.4899 15.3865 20.5119 15.2772 20.5119 15.1667C20.5119 15.0563 20.4899 14.947 20.4473 14.8451C20.4047 14.7432 20.3422 14.6508 20.2636 14.5733C20.1849 14.4957 20.0917 14.4346 19.9892 14.3934C19.8867 14.3523 19.7771 14.3319 19.6667 14.3334H8Z" fill="white"/>
</svg>
