<svg width="20" height="20" viewBox="0 0 20 20" fill="none" xmlns="http://www.w3.org/2000/svg">
<path d="M10 0C4.48618 0 0 4.48618 0 10C0 15.5138 4.48618 20 10 20C15.5138 20 20 15.5138 20 10C20 4.48618 15.5138 0 10 0ZM10 1.53846C14.6815 1.53846 18.4615 5.31851 18.4615 10C18.4615 14.6815 14.6815 18.4615 10 18.4615C5.31851 18.4615 1.53846 14.6815 1.53846 10C1.53846 5.31851 5.31851 1.53846 10 1.53846ZM9.23077 6.15385V9.23077H6.15385V10.7692H9.23077V13.8462H10.7692V10.7692H13.8462V9.23077H10.7692V6.15385H9.23077Z" fill="#10389B"/>
</svg>
