<?xml version="1.0" encoding="utf-8"?>
<!-- Generator: Adobe Illustrator 21.0.0, SVG Export Plug-In . SVG Version: 6.00 Build 0)  -->
<svg version="1.1" id="Layer_1" xmlns="http://www.w3.org/2000/svg" xmlns:xlink="http://www.w3.org/1999/xlink" x="0px" y="0px"
	 viewBox="0 0 185.1 24.8" style="enable-background:new 0 0 185.1 24.8;" xml:space="preserve">
<style type="text/css">
	.st0{fill:#F4F5F9;}
</style>
<g>
	<path class="st0" d="M36.8,3.8l-26,8.5l6.7-10l4.4,3L18.9,0h-4.7h0L0,15.8l5.1,5.1l30.5-12l-1.8,7.4l-3-2l2.3,4.7h4.7l2.3-11.8
		L36.8,3.8z"/>
	<path class="st0" d="M60.9,6.9c0.9,0.8,1.4,2,1.4,3.5c0,0.6-0.1,1.1-0.2,1.7l-1.5,7.7h-4.9l1.4-7.2c0.1-0.3,0.1-0.6,0.1-0.9
		c0-1.2-0.6-1.8-1.9-1.8c-0.9,0-1.6,0.3-2.1,0.8c-0.5,0.5-0.9,1.3-1.2,2.3l-1.4,6.9h-4.9l3.8-19h4.9l-1.3,6.3
		c1.2-0.9,2.5-1.4,4.1-1.4C58.7,5.7,60,6.1,60.9,6.9z"/>
	<path class="st0" d="M81.3,5.9l-2.8,13.9h-4.6l0.3-1.3c-1.1,1-2.5,1.5-4,1.5c-1,0-2-0.3-2.9-0.8c-0.9-0.5-1.6-1.2-2.2-2.2
		c-0.5-1-0.8-2.1-0.8-3.4c0-1.5,0.3-2.9,1-4.1c0.7-1.2,1.6-2.2,2.7-2.9c1.2-0.7,2.4-1.1,3.8-1.1c2,0,3.4,0.6,4.3,1.9l0.3-1.7
		L81.3,5.9L81.3,5.9z M74.2,15.1c0.6-0.7,0.9-1.6,0.9-2.8c0-0.8-0.2-1.5-0.7-1.9c-0.5-0.5-1.1-0.7-1.9-0.7c-1,0-1.8,0.4-2.4,1.1
		c-0.6,0.7-0.9,1.7-0.9,2.8c0,0.8,0.2,1.5,0.7,1.9c0.5,0.5,1.1,0.7,1.9,0.7C72.8,16.1,73.6,15.8,74.2,15.1z"/>
	<path class="st0" d="M85.6,19.3c-1.1-0.5-2-1.3-2.6-2.2c-0.6-1-0.9-2.1-0.9-3.3c0-1.5,0.4-2.9,1.1-4.1c0.7-1.2,1.8-2.2,3.1-2.9
		c1.3-0.7,2.8-1.1,4.4-1.1c1.6,0,2.9,0.3,4.1,1c1.1,0.7,2,1.6,2.5,2.8l-4.2,2c-0.5-1.2-1.4-1.8-2.7-1.8c-1,0-1.8,0.4-2.4,1.1
		c-0.6,0.7-1,1.6-1,2.8c0,0.8,0.2,1.5,0.7,2c0.5,0.5,1.1,0.7,2,0.7c0.6,0,1.2-0.1,1.7-0.4c0.5-0.3,0.9-0.8,1.3-1.4l3.6,2.2
		c-0.7,1.1-1.6,2-2.8,2.6c-1.2,0.6-2.6,0.9-4.1,0.9C88,20.1,86.7,19.8,85.6,19.3z"/>
	<path class="st0" d="M108.4,12.1l4.7,7.7h-5.7l-2.8-4.7l-2,1.7l-0.6,3H97l3.8-19h4.9l-2,9.9l5.6-4.7h6.2L108.4,12.1z"/>
	<path class="st0" d="M115.6,19.7c-1.1-0.3-2-0.6-2.6-1l1.8-3.4c0.6,0.4,1.4,0.7,2.3,0.9c0.9,0.2,1.7,0.3,2.6,0.3
		c1.5,0,2.2-0.3,2.2-1c0-0.3-0.2-0.5-0.5-0.6c-0.4-0.1-0.9-0.3-1.7-0.4c-1-0.2-1.9-0.4-2.5-0.6c-0.7-0.2-1.2-0.6-1.7-1.1
		c-0.5-0.5-0.7-1.2-0.7-2.2c0-1.6,0.7-2.8,2.1-3.7c1.4-0.9,3.2-1.3,5.3-1.3c1,0,1.9,0.1,2.9,0.3c0.9,0.2,1.7,0.5,2.4,0.8l-1.7,3.4
		c-1.2-0.7-2.5-1.1-4.1-1.1c-0.8,0-1.3,0.1-1.7,0.3c-0.4,0.2-0.6,0.4-0.6,0.8c0,0.3,0.2,0.5,0.5,0.6c0.4,0.1,0.9,0.3,1.7,0.4
		c1,0.2,1.8,0.4,2.5,0.6c0.7,0.2,1.2,0.6,1.7,1.1c0.5,0.5,0.7,1.2,0.7,2.1c0,1.6-0.7,2.8-2.1,3.7c-1.4,0.9-3.2,1.3-5.3,1.3
		C117.9,20.1,116.7,19.9,115.6,19.7z"/>
	<path class="st0" d="M134.1,14.7c0,0.2-0.1,0.4-0.1,0.5c0,0.8,0.4,1.2,1.3,1.2c0.5,0,0.9-0.1,1.5-0.4l0.6,3.4
		c-1,0.5-2.2,0.8-3.6,0.8c-1.4,0-2.6-0.4-3.4-1.1c-0.8-0.7-1.3-1.7-1.3-3c0-0.5,0-0.9,0.1-1.3l0.9-4.6h-2.1l0.7-3.6h2l0.7-3.6h4.9
		l-0.7,3.6h3.2l-0.7,3.6h-3.2L134.1,14.7z"/>
	<path class="st0" d="M151.2,5.7l-0.8,4.4c-0.4-0.1-0.8-0.1-1.1-0.1c-1.1,0-2,0.3-2.6,0.8c-0.7,0.5-1.1,1.3-1.3,2.5l-1.3,6.6h-4.9
		l2.8-13.9h4.6l-0.3,1.5C147.4,6.3,149.1,5.7,151.2,5.7z"/>
	<path class="st0" d="M167.8,5.9L165,19.8h-4.6l0.3-1.3c-1.1,1-2.5,1.5-4,1.5c-1,0-2-0.3-2.9-0.8c-0.9-0.5-1.6-1.2-2.2-2.2
		c-0.5-1-0.8-2.1-0.8-3.4c0-1.5,0.3-2.9,1-4.1c0.7-1.2,1.6-2.2,2.7-2.9c1.2-0.7,2.4-1.1,3.8-1.1c2,0,3.4,0.6,4.3,1.9l0.3-1.7
		L167.8,5.9L167.8,5.9z M160.7,15.1c0.6-0.7,0.9-1.6,0.9-2.8c0-0.8-0.2-1.5-0.7-1.9c-0.5-0.5-1.1-0.7-1.9-0.7c-1,0-1.8,0.4-2.4,1.1
		c-0.6,0.7-0.9,1.7-0.9,2.8c0,0.8,0.2,1.5,0.7,1.9c0.5,0.5,1.1,0.7,1.9,0.7C159.3,16.1,160.1,15.8,160.7,15.1z"/>
	<path class="st0" d="M182.2,6.5c0.9,0.5,1.6,1.2,2.2,2.2c0.5,1,0.8,2.1,0.8,3.4c0,1.5-0.3,2.9-1,4.1c-0.7,1.2-1.6,2.2-2.7,2.9
		c-1.2,0.7-2.4,1.1-3.8,1.1c-2,0-3.4-0.6-4.3-1.9l-1.3,6.6h-4.9l3.8-18.9h4.6l-0.3,1.3c1.1-1,2.5-1.5,4-1.5
		C180.3,5.7,181.3,6,182.2,6.5z M179.3,15.1c0.6-0.7,0.9-1.6,0.9-2.8c0-0.8-0.2-1.5-0.7-1.9c-0.5-0.5-1.1-0.7-1.9-0.7
		c-1,0-1.8,0.4-2.4,1.1c-0.6,0.7-0.9,1.7-0.9,2.8c0,0.8,0.2,1.5,0.7,1.9c0.5,0.5,1.1,0.7,1.9,0.7C177.9,16.1,178.7,15.8,179.3,15.1z
		"/>
</g>
</svg>
