<svg width="15" height="5" viewBox="0 0 15 5" fill="none" xmlns="http://www.w3.org/2000/svg">
<g opacity="0.3">
<path fill-rule="evenodd" clip-rule="evenodd" d="M12.7793 4.04678C13.6799 4.04678 14.4101 3.31664 14.4101 2.41597C14.4101 1.5153 13.6799 0.785156 12.7793 0.785156C11.8786 0.785156 11.1484 1.5153 11.1484 2.41597C11.1484 3.31664 11.8786 4.04678 12.7793 4.04678Z" fill="#292F4C"/>
<path fill-rule="evenodd" clip-rule="evenodd" d="M7.34273 4.04678C8.2434 4.04678 8.97354 3.31664 8.97354 2.41597C8.97354 1.5153 8.2434 0.785156 7.34273 0.785156C6.44205 0.785156 5.71191 1.5153 5.71191 2.41597C5.71191 3.31664 6.44205 4.04678 7.34273 4.04678Z" fill="#292F4C"/>
<path fill-rule="evenodd" clip-rule="evenodd" d="M1.90718 4.04776C2.80785 4.04776 3.538 3.31762 3.538 2.41695C3.538 1.51627 2.80785 0.786133 1.90718 0.786133C1.00651 0.786133 0.276367 1.51627 0.276367 2.41695C0.276367 3.31762 1.00651 4.04776 1.90718 4.04776Z" fill="#292F4C"/>
</g>
</svg>
