<svg width="8" height="11" viewBox="0 0 8 11" fill="none" xmlns="http://www.w3.org/2000/svg">
<path opacity="0.3" fill-rule="evenodd" clip-rule="evenodd" d="M2.17025 4.96198V1.8148C2.17025 1.67261 2.19052 1.53473 2.22865 1.40322C2.39319 0.835732 3.04839 1.14031 3.04839 1.73116C3.04839 1.88695 3.1919 2.01483 3.36963 2.01483C3.54762 2.01483 3.69062 1.88717 3.69062 1.73116V0.550191C3.69062 0.337525 3.84462 0.148926 4.05729 0.148926C4.26965 0.148926 4.42344 0.337308 4.42344 0.549677V1.73114C4.42344 1.88692 4.56724 2.0148 4.74549 2.0148C4.92293 2.0148 5.06673 1.88715 5.06673 1.73114C5.06673 1.14077 5.72156 0.836658 5.88636 1.40356C5.92456 1.53497 5.94489 1.67273 5.94489 1.8148V4.96198C5.94489 5.88284 5.09883 6.62901 4.05706 6.62901C3.01449 6.62901 2.17025 5.88284 2.17025 4.96198ZM1.0121 10.1289H1.11226C1.3369 10.1289 1.56034 10.096 1.77546 10.0313L2.57034 9.79214C3.07133 9.64141 3.41429 9.1801 3.41429 8.65693C3.41429 8.08541 2.99178 7.61602 2.48387 7.35397C1.55467 6.87456 0.928563 5.98397 0.928563 4.96622C0.928563 4.789 1.09089 4.64566 1.29183 4.64566C1.34484 4.64566 1.39624 4.65627 1.44112 4.67401C1.56819 4.72493 1.65718 4.836 1.65718 4.96622C1.65718 6.13551 2.73315 7.08608 4.05728 7.08608C5.38091 7.08608 6.45844 6.13548 6.45844 4.96622C6.45844 4.83626 6.54692 4.72493 6.67297 4.67401C6.71865 4.65627 6.76928 4.64566 6.82226 4.64566C7.024 4.64566 7.1871 4.789 7.1871 4.96622C7.1871 5.98416 6.56072 6.87496 5.63024 7.35435C5.12227 7.61606 4.69983 8.08536 4.69983 8.65679C4.69983 9.1799 5.04277 9.64114 5.54372 9.79179L6.34012 10.0313C6.55532 10.096 6.77883 10.1289 7.00355 10.1289H7.10359C7.24113 10.1289 7.35151 10.2275 7.35151 10.3483V10.4697C7.35151 10.5912 7.24113 10.6896 7.10359 10.6896H1.0121C0.874594 10.6896 0.763672 10.5912 0.763672 10.4697V10.3483C0.763672 10.2275 0.874562 10.1289 1.0121 10.1289Z" fill="white"/>
</svg>
