<svg width="9" height="10" viewBox="0 0 9 10" fill="none" xmlns="http://www.w3.org/2000/svg">
<path fill-rule="evenodd" clip-rule="evenodd" d="M0 4.8582C0 2.44266 1.97635 0.466309 4.39189 0.466309C6.80743 0.466309 8.78378 2.44266 8.78378 4.8582C8.78378 7.27374 6.80743 9.25009 4.39189 9.25009C1.97635 9.25009 0 7.27374 0 4.8582ZM6.58756 3.76024C6.58756 3.40889 6.28013 3.10145 5.92878 3.10145C5.57743 3.10145 5.27 3.40889 5.27 3.76024C5.27 4.11159 5.57743 4.41902 5.92878 4.41902C6.28013 4.41902 6.58756 4.11159 6.58756 3.76024ZM2.85522 3.10145C3.20657 3.10145 3.514 3.40889 3.514 3.76024C3.514 4.11159 3.20657 4.41902 2.85522 4.41902C2.50387 4.41902 2.19643 4.11159 2.19643 3.76024C2.19643 3.40889 2.50387 3.10145 2.85522 3.10145ZM4.39189 5.73645C3.18885 5.73645 2.4891 7.03024 3.63976 7.38138C3.87771 7.45399 4.13019 7.49321 4.39189 7.49321C4.65359 7.49321 4.90606 7.45399 5.14402 7.38138C6.29467 7.03024 5.59492 5.73645 4.39189 5.73645Z" fill="#757575"/>
</svg>
