<svg width="12" height="11" viewBox="0 0 12 11" fill="none" xmlns="http://www.w3.org/2000/svg">
<path d="M11.1898 0.795664C11.1441 0.75634 11.0792 0.747217 11.0241 0.772299L1.07697 5.31204C1.02342 5.33649 0.988934 5.38897 0.98829 5.44696C0.987647 5.50495 1.021 5.55816 1.07403 5.58372L3.88906 6.94072C3.94068 6.96562 4.00224 6.95999 4.04834 6.92614L4.32317 6.72438C4.56228 6.54884 4.84534 6.87689 4.63668 7.08771C4.60602 7.1187 4.59039 7.16112 4.59376 7.20418L4.8077 9.94084C4.81245 10.0015 4.85383 10.0533 4.91265 10.0723C4.92838 10.0774 4.94453 10.0799 4.96051 10.0799C5.00431 10.0799 5.04692 10.0614 5.07656 10.0277L5.22403 9.85983C6.02175 8.95183 7.32359 8.68037 8.41774 9.19388C8.45783 9.21269 8.50424 9.21348 8.54498 9.19607C8.58572 9.17864 8.61674 9.14474 8.63004 9.10312L11.2349 0.953952C11.2532 0.897044 11.2354 0.834988 11.1898 0.795664Z" fill="white"/>
</svg>
