<svg width="14" height="14" viewBox="0 0 14 14" fill="none" xmlns="http://www.w3.org/2000/svg">
<path opacity="0.3" d="M0.768676 12.3282C1.79305 13.3725 3.45994 13.3735 4.48481 12.3282L10.4303 6.26765C10.729 5.96629 10.8942 5.56188 10.8952 5.13128C10.8978 4.27065 10.1593 3.51831 9.31509 3.52042C8.89277 3.52146 8.49652 3.68995 8.19891 3.99653L2.99804 9.29791C2.79276 9.50775 2.79276 9.8462 2.99804 10.0555C3.20333 10.2647 3.53588 10.2647 3.74117 10.0555L8.94355 4.75198C9.04464 4.64838 9.17655 4.5924 9.31769 4.5919C9.59894 4.5919 9.84423 4.84198 9.84423 5.12867C9.8437 5.27255 9.78878 5.40702 9.68874 5.50797L3.74117 11.5706C3.12686 12.1984 2.12663 12.1984 1.5118 11.5706C0.896969 10.9449 0.896969 9.92469 1.5118 9.29791L8.20042 2.47929C9.2248 1.435 10.8922 1.435 11.9166 2.47929C12.9409 3.52357 12.9409 5.22336 11.9166 6.26765L6.71415 11.5706C6.50886 11.7799 6.50886 12.1189 6.71415 12.3282C6.91943 12.5374 7.25199 12.5374 7.45727 12.3282L12.6597 7.02521C14.0941 5.56292 14.0941 3.18354 12.6597 1.72172C11.2258 0.259427 8.89168 0.259427 7.45727 1.72172L0.768676 8.54034C-0.256225 9.58513 -0.256225 11.2839 0.768676 12.3282Z" fill="white"/>
</svg>
