<svg width="18" height="20" viewBox="0 0 18 20" fill="none" xmlns="http://www.w3.org/2000/svg">
<g filter="url(#filter0_d)">
<path fill-rule="evenodd" clip-rule="evenodd" d="M10.999 0.959473V3.00127C13.89 3.8534 15.999 6.50195 15.999 9.63846C15.999 12.7758 13.89 15.4244 10.999 16.2765V18.3183C15.006 17.4168 17.999 13.8774 17.999 9.63846C17.999 5.4004 15.006 1.8601 10.999 0.959473ZM13.499 9.63808C13.499 7.8911 12.479 6.38178 10.999 5.65234V13.6247C12.479 12.8942 13.499 11.3858 13.499 9.63808ZM-0.000976562 6.6691V12.6075H3.99902L8.99902 17.5562V1.72047L3.99902 6.66914H-0.000976562V6.6691Z" fill="black" fill-opacity="0.8"/>
</g>
<defs>
<filter id="filter0_d" x="-0.000976562" y="0.959473" width="18" height="18.3588" filterUnits="userSpaceOnUse" color-interpolation-filters="sRGB">
<feFlood flood-opacity="0" result="BackgroundImageFix"/>
<feColorMatrix in="SourceAlpha" type="matrix" values="0 0 0 0 0 0 0 0 0 0 0 0 0 0 0 0 0 0 127 0"/>
<feOffset dy="1"/>
<feColorMatrix type="matrix" values="0 0 0 0 1 0 0 0 0 1 0 0 0 0 1 0 0 0 0.1 0"/>
<feBlend mode="normal" in2="BackgroundImageFix" result="effect1_dropShadow"/>
<feBlend mode="normal" in="SourceGraphic" in2="effect1_dropShadow" result="shape"/>
</filter>
</defs>
</svg>
