<svg width="20" height="22" viewBox="0 0 20 22" fill="none" xmlns="http://www.w3.org/2000/svg">
<g filter="url(#filter0_d)">
<path fill-rule="evenodd" clip-rule="evenodd" d="M10 14.1131C8.06701 14.1131 6.5 12.5622 6.5 10.649C6.5 8.73598 8.06701 7.18502 10 7.18502C11.933 7.18502 13.5 8.73598 13.5 10.649C13.5 12.5622 11.933 14.1131 10 14.1131ZM17.4287 11.6153C17.4707 11.2976 17.4987 10.9768 17.4987 10.6492C17.4987 10.3217 17.4707 10.001 17.4287 9.68326L19.5417 8.04628C19.7297 7.89586 19.7847 7.62861 19.6597 7.41483L17.6597 3.9864C17.5357 3.77262 17.2737 3.68551 17.0477 3.77165L14.5587 4.76434C14.0427 4.37242 13.4777 4.04083 12.8687 3.7914L12.4937 1.16865C12.4557 0.933054 12.2487 0.751953 11.9997 0.751953H7.99968C7.74968 0.751953 7.54369 0.933054 7.50569 1.16865L7.13069 3.79043C6.52068 4.04083 5.95567 4.37242 5.43968 4.76434L2.95168 3.77165C2.72569 3.68551 2.46367 3.77262 2.33968 3.9864L0.339682 7.41483C0.214682 7.62861 0.269672 7.89586 0.457692 8.04628L2.56969 9.68326C2.52769 9.99997 2.49968 10.3217 2.49968 10.6492C2.49968 10.9768 2.52769 11.2986 2.56969 11.6153L0.457692 13.2513C0.269672 13.4027 0.214682 13.6699 0.339682 13.8838L2.33968 17.3121C2.46367 17.5259 2.72569 17.6131 2.95168 17.5269L5.44069 16.5342C5.95668 16.9261 6.52168 17.2577 7.13069 17.5072L7.50569 20.1299C7.54369 20.3655 7.74968 20.5466 7.99968 20.5466H11.9997C12.2487 20.5466 12.4557 20.3655 12.4937 20.1299L12.8687 17.5072C13.4767 17.2568 14.0417 16.9261 14.5577 16.5333L17.0477 17.5269C17.2737 17.6131 17.5357 17.5259 17.6597 17.3121L19.6597 13.8838C19.7847 13.6699 19.7297 13.4027 19.5417 13.2513L17.4287 11.6153Z" fill="black" fill-opacity="0.8"/>
</g>
<defs>
<filter id="filter0_d" x="0.272461" y="0.751953" width="19.4545" height="20.7946" filterUnits="userSpaceOnUse" color-interpolation-filters="sRGB">
<feFlood flood-opacity="0" result="BackgroundImageFix"/>
<feColorMatrix in="SourceAlpha" type="matrix" values="0 0 0 0 0 0 0 0 0 0 0 0 0 0 0 0 0 0 127 0"/>
<feOffset dy="1"/>
<feColorMatrix type="matrix" values="0 0 0 0 1 0 0 0 0 1 0 0 0 0 1 0 0 0 0.1 0"/>
<feBlend mode="normal" in2="BackgroundImageFix" result="effect1_dropShadow"/>
<feBlend mode="normal" in="SourceGraphic" in2="effect1_dropShadow" result="shape"/>
</filter>
</defs>
</svg>
