<svg width="16" height="17" viewBox="0 0 16 17" fill="none" xmlns="http://www.w3.org/2000/svg">
<g filter="url(#filter0_d)">
<path fill-rule="evenodd" clip-rule="evenodd" d="M13.4038 8.75C13.4421 8.52518 13.4421 8.26257 13.4421 8C13.4421 7.73743 13.4038 7.51257 13.4038 7.25L15.0144 6.01256C15.168 5.90013 15.2062 5.71267 15.0912 5.52513L13.557 2.93748C13.4802 2.78733 13.2503 2.71266 13.0967 2.78733L11.1789 3.53737C10.7953 3.23744 10.3354 2.97483 9.8751 2.78733L9.60654 0.799929C9.56832 0.650145 9.41475 0.5 9.22297 0.5H6.15457C5.96282 0.5 5.80925 0.650145 5.77103 0.799929L5.46426 2.78733C5.00391 2.97483 4.58215 3.23741 4.16003 3.53737L2.24229 2.78733C2.05051 2.71266 1.85872 2.78733 1.78195 2.93748L0.247755 5.52517C0.17135 5.67492 0.209499 5.90013 0.324521 6.0126L1.97381 7.25C1.97381 7.51257 1.93559 7.73743 1.93559 8C1.93559 8.26257 1.97381 8.48743 1.97381 8.75L0.363211 9.98744C0.209607 10.0999 0.171458 10.2873 0.286409 10.4749L1.82061 13.0625C1.89741 13.2127 2.12738 13.2873 2.28095 13.2127L4.19872 12.4626C4.58226 12.7626 5.04224 13.0252 5.50255 13.2127L5.80932 15.2001C5.84787 15.3876 6.00108 15.5 6.19286 15.5H9.26126C9.45305 15.5 9.60661 15.3499 9.64483 15.2001L9.95197 13.2127C10.412 13.0252 10.8341 12.7626 11.2558 12.4626L13.1736 13.2127C13.3653 13.2873 13.5571 13.2127 13.6339 13.0625L15.1681 10.4748C15.2449 10.3251 15.2063 10.0999 15.0913 9.9874L13.4038 8.75ZM7.68868 10.6251C6.19273 10.6251 5.00391 9.46281 5.00391 8.00012C5.00391 6.53744 6.19273 5.37511 7.68868 5.37511C9.18463 5.37511 10.3735 6.53744 10.3735 8.00012C10.3735 9.46281 9.18463 10.6251 7.68868 10.6251Z" fill="black"/>
</g>
<defs>
<filter id="filter0_d" x="0.208008" y="0.5" width="15" height="16" filterUnits="userSpaceOnUse" color-interpolation-filters="sRGB">
<feFlood flood-opacity="0" result="BackgroundImageFix"/>
<feColorMatrix in="SourceAlpha" type="matrix" values="0 0 0 0 0 0 0 0 0 0 0 0 0 0 0 0 0 0 127 0"/>
<feOffset dy="1"/>
<feColorMatrix type="matrix" values="0 0 0 0 1 0 0 0 0 1 0 0 0 0 1 0 0 0 0.1 0"/>
<feBlend mode="normal" in2="BackgroundImageFix" result="effect1_dropShadow"/>
<feBlend mode="normal" in="SourceGraphic" in2="effect1_dropShadow" result="shape"/>
</filter>
</defs>
</svg>
