<svg width="10" height="10" viewBox="0 0 10 10" fill="none" xmlns="http://www.w3.org/2000/svg">
<path fill-rule="evenodd" clip-rule="evenodd" d="M4.50422 0.456055C2.02074 0.456055 0 2.4768 0 4.96048C0 7.44396 2.02074 9.4647 4.50422 9.4647C6.9877 9.4647 9.00845 7.44396 9.00845 4.96048C9.00845 2.4768 6.9877 0.456055 4.50422 0.456055ZM4.50422 8.73816C2.42121 8.73816 0.725738 7.04349 0.725738 4.96048C0.725738 2.87646 2.42121 1.18179 4.50422 1.18179C6.58743 1.18179 8.2821 2.87727 8.2821 4.96048C8.2821 7.04349 6.58743 8.73816 4.50422 8.73816Z" fill="#3CCF8E"/>
<path fill-rule="evenodd" clip-rule="evenodd" d="M5.93992 3.52395L3.83771 5.62697L3.0679 4.85696C2.9266 4.71565 2.69675 4.71565 2.55544 4.85696C2.41332 4.99908 2.41332 5.22893 2.55544 5.37023L3.58118 6.39678C3.65213 6.46713 3.74452 6.50271 3.83771 6.50271C3.9301 6.50271 4.02329 6.46713 4.09445 6.39678L6.4532 4.03722C6.59531 3.89511 6.59531 3.66606 6.4532 3.52395C6.31189 3.38264 6.08204 3.38264 5.93992 3.52395Z" fill="#3CCF8E"/>
</svg>
