<svg width="18" height="15" viewBox="0 0 18 15" fill="none" xmlns="http://www.w3.org/2000/svg">
<path d="M4.56133 0C3.2995 0 2.31287 0.98663 2.31287 2.24846C2.31287 3.5103 3.2995 4.49693 4.56133 4.49693C5.82317 4.49693 6.8098 3.5103 6.8098 2.24846C6.8098 0.98663 5.82317 0 4.56133 0ZM12.0562 0C10.7944 0 9.80775 0.98663 9.80775 2.24846C9.80775 3.5103 10.7944 4.49693 12.0562 4.49693C13.318 4.49693 14.3047 3.5103 14.3047 2.24846C14.3047 0.98663 13.318 0 12.0562 0ZM4.49693 5.9959C1.8503 5.9959 0 6.98839 0 8.40831V9.74334C0 10.1561 0.336683 10.4928 0.749488 10.4928H5.24641C5.65922 10.4928 5.9959 10.1561 5.9959 9.74334V8.40831C5.9959 7.60027 6.28867 6.88884 6.8098 6.30038C6.14814 6.10423 5.36645 5.9959 4.49693 5.9959ZM12.0562 5.9959C9.40958 5.9959 7.55929 6.98839 7.55929 8.40831V9.74334C7.55929 10.1561 7.89597 10.4928 8.30877 10.4928H11.3067C11.7195 10.4928 12.0562 10.1561 12.0562 9.74334V8.99385C12.0562 8.16824 12.7296 7.49488 13.5552 7.49488H16.2633C16.0964 7.24017 15.8388 6.97668 15.4318 6.73953C14.6238 6.26818 13.3912 5.9959 12.0562 5.9959ZM14.293 8.98214C13.8802 8.99092 13.5493 9.33054 13.5552 9.74334V11.2423H12.0562C11.7869 11.2394 11.5351 11.3799 11.3975 11.6141C11.2628 11.8483 11.2628 12.1353 11.3975 12.3695C11.5351 12.6037 11.7869 12.7442 12.0562 12.7413H13.5552V14.2403C13.5523 14.5096 13.6928 14.7614 13.927 14.899C14.1612 15.0337 14.4481 15.0337 14.6823 14.899C14.9166 14.7614 15.0571 14.5096 15.0542 14.2403V12.7413H16.5531C16.8225 12.7442 17.0743 12.6037 17.2119 12.3695C17.3465 12.1353 17.3465 11.8483 17.2119 11.6141C17.0743 11.3799 16.8225 11.2394 16.5531 11.2423H15.0542V9.74334C15.0571 9.54133 14.978 9.34517 14.8346 9.20172C14.6911 9.05826 14.495 8.97921 14.293 8.98214Z" fill="black"/>
</svg>
