<svg xmlns="http://www.w3.org/2000/svg" width="16.137" height="15.346" viewBox="0 0 16.137 15.346">
  <g id="icon-star-blue" transform="translate(-1024 -845)">
    <path id="icon-star" d="M9,.2l-.51,1.16-1.828,4.1L2.2,5.926.932,6.066l.949.844L5.2,9.916l-.932,4.394-.264,1.231,1.107-.633L9,12.658l3.885,2.25,1.107.633-.264-1.231L12.8,9.916,16.119,6.91l.949-.844L15.8,5.926l-4.465-.475L9.51,1.355Zm0,2.76,1.441,3.252.141.3.316.035,3.533.369L11.795,9.283l-.246.229.07.316.738,3.463L9.281,11.533,9,11.357l-.281.176L5.643,13.291l.738-3.463.07-.316-.246-.229L3.568,6.91,7.1,6.541l.316-.035.141-.3Z" transform="translate(1023.068 844.805)" fill="#10389b"/>
    <path id="Path_277" data-name="Path 277" d="M11810.609,6477.369l4.516-.555,1.954-4.515,1.9,4.647,5.149.422-3.935,3.222,1.057,4.621-4.172-2.456-4.094,2.456.9-4.833Z" transform="translate(-10785 -5626)" fill="#10389b"/>
  </g>
</svg>
