<svg width="14" height="13" viewBox="0 0 14 13" fill="none" xmlns="http://www.w3.org/2000/svg">
<path d="M13.0974 0.104785C12.8584 0.113222 12.639 0.239785 12.5124 0.442285L5.73995 10.8035L1.35245 7.01228C1.16401 6.81682 0.881354 6.74369 0.621198 6.82525C0.362448 6.90541 0.169792 7.12478 0.124792 7.39197C0.079792 7.66057 0.188073 7.93057 0.407448 8.09228L5.42495 12.4348C5.58245 12.5684 5.79057 12.6274 5.99448 12.5979C6.19979 12.567 6.3812 12.4503 6.4937 12.2773L13.7274 1.22978C13.8821 1.00338 13.8948 0.710878 13.7612 0.471816C13.6276 0.23416 13.3703 0.0921285 13.0974 0.104785Z" fill="black"/>
</svg>
