<svg width="18" height="16" viewBox="0 0 18 16" fill="none" xmlns="http://www.w3.org/2000/svg">
<path d="M9 0.195312L8.49023 1.35547L6.66211 5.45117L2.19727 5.92578L0.931641 6.06641L1.88086 6.91016L5.20312 9.91602L4.27148 14.3105L4.00781 15.541L5.11523 14.9082L9 12.6582L12.8848 14.9082L13.9922 15.541L13.7285 14.3105L12.7969 9.91602L16.1191 6.91016L17.0684 6.06641L15.8027 5.92578L11.3379 5.45117L9.50977 1.35547L9 0.195312ZM9 2.95508L10.4414 6.20703L10.582 6.50586L10.8984 6.54102L14.4316 6.91016L11.7949 9.2832L11.5488 9.51172L11.6191 9.82812L12.3574 13.291L9.28125 11.5332L9 11.3574L8.71875 11.5332L5.64258 13.291L6.38086 9.82812L6.45117 9.51172L6.20508 9.2832L3.56836 6.91016L7.10156 6.54102L7.41797 6.50586L7.55859 6.20703L9 2.95508Z" fill="black"/>
</svg>
