<svg width="20" height="14" viewBox="0 0 20 14" fill="none" xmlns="http://www.w3.org/2000/svg">
<path d="M11.6666 0.333496C11.0416 0.333496 10.4849 0.55485 9.9869 0.854329C8.71411 0.108887 7.06372 0.219564 5.97648 1.31006C5.70304 1.58024 5.51099 1.88949 5.37101 2.21501L5.34497 2.19548C4.92505 2.92139 4.90226 3.73844 5.11711 4.45459C4.08521 5.18701 3.33325 6.29053 3.33325 7.64795C3.33325 8.85889 3.92244 9.8973 4.75903 10.6427C5.10408 12.3517 6.57218 13.6668 8.38208 13.6668C8.97778 13.6668 9.49536 13.4259 9.99992 13.1753C10.5045 13.4259 11.0221 13.6668 11.6178 13.6668C13.4277 13.6668 14.8958 12.3485 15.2408 10.6395C16.0774 9.8973 16.6666 8.85563 16.6666 7.64795C16.6666 6.29378 15.9081 5.20003 14.8827 4.46435C15.0976 3.74495 15.0748 2.92464 14.6549 2.19548L14.6451 2.20199C14.0982 1.10173 12.9719 0.333496 11.6666 0.333496ZM3.33325 1.16683C2.87427 1.16683 2.49992 1.54118 2.49992 2.00016C2.49992 2.45915 2.87427 2.8335 3.33325 2.8335C3.79224 2.8335 4.16658 2.45915 4.16658 2.00016C4.16658 1.54118 3.79224 1.16683 3.33325 1.16683ZM16.6666 1.16683C16.2076 1.16683 15.8333 1.54118 15.8333 2.00016C15.8333 2.45915 16.2076 2.8335 16.6666 2.8335C17.1256 2.8335 17.4999 2.45915 17.4999 2.00016C17.4999 1.54118 17.1256 1.16683 16.6666 1.16683ZM8.28768 2.00016C8.59041 1.99365 8.8964 2.07178 9.16658 2.23454V6.16683C9.16658 6.48909 9.0201 6.95133 8.74015 7.28011C8.4602 7.60889 8.09562 7.8335 7.49992 7.8335V9.50016C8.13143 9.50016 8.69458 9.32764 9.16658 9.0542V11.8407C8.9257 11.9383 8.66203 12.0002 8.38208 12.0002C7.30461 12.0002 6.44523 11.1994 6.32479 10.1577L6.28247 9.79964L5.9895 9.58154C5.38729 9.14209 4.99992 8.44873 4.99992 7.64795C4.99992 6.89925 5.33846 6.2417 5.87231 5.80225C6.18807 6.16683 6.56567 6.48258 6.99211 6.72672L7.82544 5.28141C7.35018 5.01123 6.96281 4.58805 6.77401 4.18441C6.58195 3.60498 6.68937 2.95394 7.15487 2.48844C7.47388 2.16943 7.88078 2.00993 8.28768 2.00016ZM11.6666 2.00016C12.5976 2.00016 13.3333 2.73584 13.3333 3.66683C13.3333 3.7124 13.2747 3.99886 13.1249 4.33089L13.0566 4.48063C12.845 4.78662 12.5325 5.07633 12.1744 5.28141L13.0077 6.72672C13.4342 6.48258 13.8118 6.16683 14.1308 5.80225C14.6614 6.23844 14.9999 6.89925 14.9999 7.64795C14.9999 8.44873 14.6093 9.14209 14.0103 9.58154L13.7174 9.79964L13.675 10.1577C13.5546 11.1994 12.6952 12.0002 11.6178 12.0002C11.3378 12.0002 11.0774 11.9383 10.8333 11.8407V9.9917C11.328 10.2163 11.8912 10.3335 12.4999 10.3335V8.66683C11.8066 8.66683 11.4355 8.50732 11.2141 8.28597C10.9928 8.06462 10.8333 7.69352 10.8333 7.00016V2.23454C11.0806 2.08805 11.3606 2.00016 11.6666 2.00016ZM1.66659 4.50016C1.2076 4.50016 0.833252 4.87451 0.833252 5.3335C0.833252 5.79248 1.2076 6.16683 1.66659 6.16683C2.12557 6.16683 2.49992 5.79248 2.49992 5.3335C2.49992 4.87451 2.12557 4.50016 1.66659 4.50016ZM18.3333 4.50016C17.8743 4.50016 17.4999 4.87451 17.4999 5.3335C17.4999 5.79248 17.8743 6.16683 18.3333 6.16683C18.7922 6.16683 19.1666 5.79248 19.1666 5.3335C19.1666 4.87451 18.7922 4.50016 18.3333 4.50016ZM1.66659 7.8335C1.2076 7.8335 0.833252 8.20784 0.833252 8.66683C0.833252 9.12581 1.2076 9.50016 1.66659 9.50016C2.12557 9.50016 2.49992 9.12581 2.49992 8.66683C2.49992 8.20784 2.12557 7.8335 1.66659 7.8335ZM18.3333 7.8335C17.8743 7.8335 17.4999 8.20784 17.4999 8.66683C17.4999 9.12581 17.8743 9.50016 18.3333 9.50016C18.7922 9.50016 19.1666 9.12581 19.1666 8.66683C19.1666 8.20784 18.7922 7.8335 18.3333 7.8335ZM2.49992 11.1668C2.04093 11.1668 1.66659 11.5412 1.66659 12.0002C1.66659 12.4591 2.04093 12.8335 2.49992 12.8335C2.9589 12.8335 3.33325 12.4591 3.33325 12.0002C3.33325 11.5412 2.9589 11.1668 2.49992 11.1668ZM17.4999 11.1668C17.0409 11.1668 16.6666 11.5412 16.6666 12.0002C16.6666 12.4591 17.0409 12.8335 17.4999 12.8335C17.9589 12.8335 18.3333 12.4591 18.3333 12.0002C18.3333 11.5412 17.9589 11.1668 17.4999 11.1668Z" fill="black"/>
</svg>
