<svg width="20" height="20" viewBox="0 0 20 20" fill="none" xmlns="http://www.w3.org/2000/svg">
<path d="M0.75 0.75V2.58333H1.66667L6.25 9.91667V17.25H10.0742L11.75 15.5742V9.91667L16.3333 2.58333H17.25V0.75H0.75ZM3.82943 2.58333H14.1706L9.91667 9.3903V15.4167H8.08333V9.3903L3.82943 2.58333ZM18.3564 11.75C18.2383 11.75 18.1201 11.7965 18.0342 11.8825L17.1175 12.7992L18.9508 14.6325L19.8675 13.7158C20.043 13.5404 20.043 13.2467 19.8675 13.0677L18.6823 11.8825C18.5892 11.7965 18.4746 11.75 18.3564 11.75ZM16.4658 13.4508L11.75 18.1667V20H13.5833L18.2992 15.2842L16.4658 13.4508Z" fill="#10389B"/>
</svg>
