<svg width="15" height="17" viewBox="0 0 15 17" fill="none" xmlns="http://www.w3.org/2000/svg">
<path d="M4.5 0.5L3.75 1.25H0V2.75H0.75V14C0.75 14.8198 1.4302 15.5 2.25 15.5H8.25V14H2.25V2.75H9.75V10.25H11.25V2.75H12V1.25H11.25H8.25L7.5 0.5H4.5ZM3.75 4.25V12.5H5.25V4.25H3.75ZM6.75 4.25V12.5H8.25V4.25H6.75ZM10.4092 11.6973L9.34863 12.7578L10.9395 14.3486L9.34863 15.9395L10.4092 17L12 15.4092L13.5908 17L14.6514 15.9395L13.0605 14.3486L14.6514 12.7578L13.5908 11.6973L12 13.2881L10.4092 11.6973Z" fill="black"/>
</svg>
