<svg width="20" height="6" viewBox="0 0 20 6" fill="none" xmlns="http://www.w3.org/2000/svg">
<path d="M2.30769 0.692383C1.03365 0.692383 0 1.72604 0 3.00008C0 4.27411 1.03365 5.30777 2.30769 5.30777C3.58173 5.30777 4.61538 4.27411 4.61538 3.00008C4.61538 1.72604 3.58173 0.692383 2.30769 0.692383ZM10 0.692383C8.72596 0.692383 7.69231 1.72604 7.69231 3.00008C7.69231 4.27411 8.72596 5.30777 10 5.30777C11.274 5.30777 12.3077 4.27411 12.3077 3.00008C12.3077 1.72604 11.274 0.692383 10 0.692383ZM17.6923 0.692383C16.4183 0.692383 15.3846 1.72604 15.3846 3.00008C15.3846 4.27411 16.4183 5.30777 17.6923 5.30777C18.9663 5.30777 20 4.27411 20 3.00008C20 1.72604 18.9663 0.692383 17.6923 0.692383Z" fill="#10389B"/>
</svg>
