<svg width="16" height="16" viewBox="0 0 16 16" fill="none" xmlns="http://www.w3.org/2000/svg">
<path fill-rule="evenodd" clip-rule="evenodd" d="M10.25 10.5358C10.8005 9.90575 11.6 9.5 12.5 9.5C14.1538 9.5 15.5 10.8455 15.5 12.5C15.5 14.1538 14.1538 15.5 12.5 15.5C10.8463 15.5 9.5 14.1538 9.5 12.5C9.5 12.2847 9.52475 12.0755 9.569 11.8722L5.75 9.96275C5.1995 10.5927 4.4 11 3.5 11C1.84625 11 0.5 9.65375 0.5 8C0.5 6.3455 1.84625 5 3.5 5C4.4 5 5.1995 5.4065 5.75 6.03575L9.569 4.127C9.52475 3.9245 9.5 3.71525 9.5 3.5C9.5 1.8455 10.8463 0.5 12.5 0.5C14.1538 0.5 15.5 1.8455 15.5 3.5C15.5 5.15375 14.1538 6.5 12.5 6.5C11.6 6.5 10.8005 6.0935 10.25 5.4635L6.431 7.37225C6.47525 7.5755 6.5 7.784 6.5 8C6.5 8.216 6.47525 8.42525 6.431 8.627L10.25 10.5358ZM13.9998 3.49976C13.9998 2.67101 13.3278 1.99976 12.4998 1.99976C11.6718 1.99976 10.9998 2.67101 10.9998 3.49976C10.9998 4.32776 11.6718 4.99976 12.4998 4.99976C13.3278 4.99976 13.9998 4.32776 13.9998 3.49976ZM3.49982 9.49976C2.67182 9.49976 1.99982 8.82776 1.99982 7.99976C1.99982 7.17101 2.67182 6.49976 3.49982 6.49976C4.32782 6.49976 4.99982 7.17101 4.99982 7.99976C4.99982 8.82776 4.32782 9.49976 3.49982 9.49976ZM10.9998 12.4998C10.9998 13.3278 11.6718 13.9998 12.4998 13.9998C13.3278 13.9998 13.9998 13.3278 13.9998 12.4998C13.9998 11.671 13.3278 10.9998 12.4998 10.9998C11.6718 10.9998 10.9998 11.671 10.9998 12.4998Z" fill="black"/>
</svg>
