<svg width="25" height="25" viewBox="0 0 25 25" fill="none" xmlns="http://www.w3.org/2000/svg">
<path d="M22.2222 0H2.77778C1.24783 0 0 1.24783 0 2.77778V22.2222C0 23.7522 1.24783 25 2.77778 25H22.2222C23.7522 25 25 23.7522 25 22.2222V2.77778C25 1.24783 23.7522 0 22.2222 0ZM6.25 20.8333C5.09983 20.8333 4.16667 19.9002 4.16667 18.75C4.16667 17.5998 5.09983 16.6667 6.25 16.6667C7.40017 16.6667 8.33333 17.5998 8.33333 18.75C8.33333 19.9002 7.40017 20.8333 6.25 20.8333ZM13.8889 20.8333C13.1239 20.8333 12.5 20.2094 12.5 19.4444C12.5 15.6087 9.39128 12.5 5.55556 12.5C4.79058 12.5 4.16667 11.8761 4.16667 11.1111C4.16667 10.3461 4.79058 9.72222 5.55556 9.72222C10.9266 9.72222 15.2778 14.0734 15.2778 19.4444C15.2778 20.2094 14.6539 20.8333 13.8889 20.8333ZM19.4444 20.8333C18.6795 20.8333 18.0556 20.2094 18.0556 19.4444C18.0556 12.538 12.462 6.94444 5.55556 6.94444C4.79058 6.94444 4.16667 6.32053 4.16667 5.55556C4.16667 4.79058 4.79058 4.16667 5.55556 4.16667C13.992 4.16667 20.8333 11.008 20.8333 19.4444C20.8333 20.2094 20.2094 20.8333 19.4444 20.8333Z" fill="#00BCD4"/>
</svg>
