<svg width="18" height="13" viewBox="0 0 18 13" fill="none" xmlns="http://www.w3.org/2000/svg">
<path d="M0.911059 5.37938e-05C0.588063 -0.00345681 0.286133 0.165063 0.121124 0.445929C-0.0403746 0.726795 -0.0403746 1.07086 0.121124 1.35172C0.286133 1.63259 0.588063 1.80111 0.911059 1.7976H17.0889C17.4119 1.80111 17.7139 1.63259 17.8789 1.35172C18.0404 1.07086 18.0404 0.726795 17.8789 0.445929C17.7139 0.165063 17.4119 -0.00345681 17.0889 5.37938e-05H0.911059ZM0.911059 5.39268C0.588063 5.38917 0.286133 5.55769 0.121124 5.83856C-0.0403746 6.11942 -0.0403746 6.46348 0.121124 6.74435C0.286133 7.02522 0.588063 7.19373 0.911059 7.19022H17.0889C17.4119 7.19373 17.7139 7.02522 17.8789 6.74435C18.0404 6.46348 18.0404 6.11942 17.8789 5.83856C17.7139 5.55769 17.4119 5.38917 17.0889 5.39268H0.911059ZM0.911059 10.7853C0.588063 10.7818 0.286133 10.9503 0.121124 11.2312C-0.0403746 11.512 -0.0403746 11.8561 0.121124 12.137C0.286133 12.4178 0.588063 12.5864 0.911059 12.5829H17.0889C17.4119 12.5864 17.7139 12.4178 17.8789 12.137C18.0404 11.8561 18.0404 11.512 17.8789 11.2312C17.7139 10.9503 17.4119 10.7818 17.0889 10.7853H0.911059Z" fill="white"/>
</svg>
