<svg width="18" height="13" viewBox="0 0 18 13" fill="none" xmlns="http://www.w3.org/2000/svg">
<path d="M4.68 12.1201C4.49016 12.1201 4.30594 12.0442 4.17094 11.9092L0.210938 7.94915C-0.0703126 7.6679 -0.0703126 7.21228 0.210938 6.93103C0.492188 6.64978 0.947813 6.64978 1.22906 6.93103L4.62937 10.3313L12.7659 0.501655C13.0191 0.193686 13.4733 0.151498 13.7784 0.40603C14.085 0.659155 14.1286 1.11337 13.8741 1.41853L5.23406 11.8585C5.10609 12.016 4.91625 12.1102 4.71375 12.1187C4.7025 12.1201 4.69125 12.1201 4.68 12.1201ZM8.67375 12.1187C8.87625 12.1102 9.06469 12.016 9.19406 11.8585L17.8341 1.41853C18.0886 1.11337 18.045 0.659155 17.7384 0.40603C17.4333 0.151498 16.9791 0.195092 16.7259 0.501655L8.58938 10.3313L8.42906 10.171C8.14781 9.88978 7.69219 9.88978 7.41094 10.171C7.12969 10.4523 7.12969 10.9079 7.41094 11.1892L8.13094 11.9092C8.26594 12.0442 8.45016 12.1201 8.64 12.1201C8.65125 12.1201 8.6625 12.1201 8.67375 12.1187Z" fill="#00BCD4"/>
</svg>
