<svg width="21" height="21" viewBox="0 0 21 21" fill="none" xmlns="http://www.w3.org/2000/svg">
<path d="M8.06657 0.0834961L7.55794 2.71208C6.69938 3.0376 5.90999 3.48926 5.21826 4.05485L2.69548 3.18408L0.262207 7.39958L2.2845 9.15332C2.20719 9.63346 2.1665 10.077 2.1665 10.5002C2.1665 10.9274 2.20719 11.3669 2.2845 11.847L0.262207 13.6048L2.69548 17.8122L5.21826 16.9455C5.90999 17.5111 6.69938 17.9627 7.55794 18.2882L8.06657 20.9168H12.929L13.4417 18.2882C14.3003 17.9627 15.0897 17.5111 15.7773 16.9455L18.3042 17.8122L20.7375 13.6048L18.7152 11.847C18.7925 11.3669 18.8332 10.9233 18.8332 10.5002C18.8332 10.077 18.7925 9.63346 18.7152 9.15739V9.15332L20.7375 7.39551L18.3042 3.18408L15.7814 4.05485C15.0897 3.48926 14.3003 3.0376 13.4417 2.71208L12.929 0.0834961H8.06657ZM9.78369 2.16683H11.216L11.6188 4.25016L12.7052 4.66113C13.3604 4.90934 13.9504 5.24707 14.459 5.66618L15.3582 6.40267L17.3602 5.71501L18.0723 6.95199L16.4731 8.34359L16.6562 9.48698V9.49105C16.7214 9.87761 16.7498 10.2072 16.7498 10.5002C16.7498 10.7931 16.7214 11.1227 16.6562 11.5093L16.4731 12.6567L18.0723 14.0483L17.3561 15.2853L15.3582 14.5977L14.4549 15.3341C13.9463 15.7533 13.3604 16.091 12.7052 16.3392H12.7012L11.6188 16.7502L11.2119 18.8335H9.78369L9.38086 16.7502L8.29443 16.3392C7.63932 16.091 7.04932 15.7533 6.54069 15.3341L5.64144 14.5977L3.63949 15.2853L2.92334 14.0483L4.52653 12.6567L4.33936 11.5133C4.27832 11.1227 4.24984 10.7931 4.24984 10.5002C4.24984 10.2072 4.27832 9.87761 4.33936 9.49105L4.52653 8.34359L2.92334 6.95199L3.63949 5.71501L5.64144 6.40674L6.54069 5.66618C7.04932 5.24707 7.63932 4.90934 8.29443 4.66113L9.38086 4.25016L9.78369 2.16683ZM10.4998 6.3335C8.21305 6.3335 6.33317 8.21338 6.33317 10.5002C6.33317 12.7869 8.21305 14.6668 10.4998 14.6668C12.7866 14.6668 14.6665 12.7869 14.6665 10.5002C14.6665 8.21338 12.7866 6.3335 10.4998 6.3335ZM10.4998 8.41683C11.6595 8.41683 12.5832 9.3405 12.5832 10.5002C12.5832 11.6598 11.6595 12.5835 10.4998 12.5835C9.34017 12.5835 8.4165 11.6598 8.4165 10.5002C8.4165 9.3405 9.34017 8.41683 10.4998 8.41683Z" fill="#10389B"/>
</svg>
