<svg width="15" height="15" viewBox="0 0 15 15" fill="none" xmlns="http://www.w3.org/2000/svg">
<path d="M7.5 0C3.36035 0 0 3.36035 0 7.5C0 11.6396 3.36035 15 7.5 15C11.6396 15 15 11.6396 15 7.5C15 3.36035 11.6396 0 7.5 0ZM7.875 12.75H7.125C6.91699 12.75 6.75 12.583 6.75 12.375V11.625C6.75 11.417 6.91699 11.25 7.125 11.25H7.875C8.08301 11.25 8.25 11.417 8.25 11.625V12.375C8.25 12.583 8.08301 12.75 7.875 12.75ZM9.80274 6.9375L9.12891 7.62891C8.58691 8.17383 8.25 8.625 8.25 9.75H6.75V9.375C6.75 8.54883 7.08691 7.79883 7.62891 7.25391L8.55762 6.30762C8.90039 5.97363 9.07031 5.48145 8.97363 4.9541C8.87109 4.41797 8.45508 3.96094 7.93066 3.81152C7.10156 3.57422 6.32812 4.04883 6.08203 4.76367C5.98535 5.04199 5.75098 5.25 5.45508 5.25H5.23828C4.80176 5.25 4.49707 4.82812 4.62012 4.40918C4.94238 3.30469 5.87988 2.46387 7.03711 2.28516C8.17969 2.10938 9.26367 2.69824 9.94336 3.63574C10.8281 4.85742 10.5674 6.17285 9.80274 6.9375Z" fill="black"/>
</svg>
