<svg width="16" height="18" viewBox="0 0 16 18" fill="none" xmlns="http://www.w3.org/2000/svg">
<path d="M8.39942 0C8.31787 9.95612e-06 8.23827 0.0249827 8.17133 0.0715621C8.10439 0.118141 8.05331 0.184095 8.02496 0.26056L3.3302 9.16172C3.25003 9.28878 3.20731 9.43587 3.20694 9.58611C3.20694 9.79797 3.29111 10.0012 3.44092 10.151C3.59073 10.3008 3.79392 10.3849 4.00579 10.3849H8V17.1751C8 17.281 8.04208 17.3826 8.11699 17.4575C8.19189 17.5324 8.29349 17.5745 8.39942 17.5745C8.47293 17.5746 8.54504 17.5544 8.6078 17.5161C8.67057 17.4779 8.72156 17.423 8.75515 17.3577L13.4842 8.3894L13.4827 8.38784C13.5536 8.26662 13.5912 8.12885 13.5919 7.98842C13.5919 7.77656 13.5077 7.57337 13.3579 7.42356C13.2081 7.27374 13.0049 7.18958 12.7931 7.18958H8.79884V0.399421C8.79884 0.293488 8.75676 0.191894 8.68185 0.116988C8.60695 0.0420817 8.50535 0 8.39942 0ZM0.802615 1.58988C0.643699 1.58993 0.488406 1.63736 0.356589 1.72612C0.224772 1.81488 0.122422 1.94094 0.0626227 2.08818C0.00282372 2.23541 -0.0117066 2.39714 0.0208894 2.55268C0.0534853 2.70821 0.131726 2.8505 0.24561 2.96133L1.84329 4.55902C1.9169 4.63568 2.00507 4.69689 2.10263 4.73906C2.20019 4.78123 2.30519 4.8035 2.41147 4.80458C2.51774 4.80566 2.62317 4.78553 2.72157 4.74535C2.81997 4.70518 2.90936 4.64578 2.98451 4.57062C3.05967 4.49547 3.11907 4.40608 3.15924 4.30768C3.19942 4.20928 3.21955 4.10385 3.21847 3.99758C3.21739 3.8913 3.19512 3.7863 3.15295 3.68874C3.11078 3.59118 3.04957 3.50301 2.97291 3.4294L1.37522 1.83172C1.30078 1.7552 1.21175 1.69437 1.1134 1.65283C1.01505 1.61129 0.909376 1.58989 0.802615 1.58988ZM15.174 1.58988C14.9664 1.59607 14.7695 1.6828 14.6248 1.83172L13.0271 3.4294C12.9504 3.50301 12.8892 3.59118 12.847 3.68874C12.8049 3.7863 12.7826 3.8913 12.7815 3.99758C12.7804 4.10386 12.8006 4.20928 12.8407 4.30768C12.8809 4.40608 12.9403 4.49547 13.0155 4.57063C13.0906 4.64578 13.18 4.70519 13.2784 4.74536C13.3768 4.78553 13.4823 4.80567 13.5885 4.80459C13.6948 4.8035 13.7998 4.78123 13.8974 4.73906C13.9949 4.6969 14.0831 4.63569 14.1567 4.55902L15.7544 2.96133C15.8698 2.84913 15.9487 2.70466 15.9806 2.54688C16.0125 2.38909 15.996 2.22534 15.9333 2.07708C15.8705 1.92883 15.7645 1.80299 15.629 1.71605C15.4935 1.62912 15.3349 1.58514 15.174 1.58988ZM2.3925 12.7737C2.18496 12.7799 1.98798 12.8666 1.84329 13.0155L0.24561 14.6132C0.168942 14.6868 0.107733 14.775 0.0655659 14.8725C0.023399 14.9701 0.00112264 15.0751 4.13492e-05 15.1814C-0.00103994 15.2876 0.0190956 15.3931 0.0592687 15.4915C0.0994418 15.5899 0.158845 15.6793 0.233999 15.7544C0.309153 15.8296 0.398547 15.889 0.496947 15.9292C0.595346 15.9693 0.700772 15.9895 0.80705 15.9884C0.913329 15.9873 1.01832 15.965 1.11588 15.9229C1.21345 15.8807 1.30161 15.8195 1.37522 15.7428L2.97291 14.1451C3.08834 14.0329 3.16719 13.8885 3.19911 13.7307C3.23103 13.5729 3.21454 13.4091 3.1518 13.2609C3.08905 13.1126 2.98299 12.9868 2.8475 12.8998C2.71201 12.8129 2.55341 12.7689 2.3925 12.7737ZM13.5841 12.7737C13.4252 12.7737 13.2699 12.8211 13.1381 12.9099C13.0062 12.9987 12.9039 13.1247 12.8441 13.272C12.7843 13.4192 12.7698 13.5809 12.8024 13.7365C12.835 13.892 12.9132 14.0343 13.0271 14.1451L14.6248 15.7428C14.6984 15.8195 14.7865 15.8807 14.8841 15.9229C14.9817 15.965 15.0867 15.9873 15.1929 15.9884C15.2992 15.9895 15.4047 15.9693 15.5031 15.9292C15.6015 15.889 15.6908 15.8296 15.766 15.7544C15.8412 15.6793 15.9006 15.5899 15.9407 15.4915C15.9809 15.3931 16.001 15.2876 16 15.1814C15.9989 15.0751 15.9766 14.9701 15.9344 14.8725C15.8923 14.775 15.8311 14.6868 15.7544 14.6132L14.1567 13.0155C14.0823 12.939 13.9932 12.8782 13.8949 12.8366C13.7965 12.7951 13.6909 12.7737 13.5841 12.7737Z" fill="#71C2FF"/>
</svg>
