<svg width="16" height="16" viewBox="0 0 16 16" fill="none" xmlns="http://www.w3.org/2000/svg">
<path d="M16 8C16 3.58852 12.4115 0 8 0C3.58852 0 0 3.58852 0 8C0 12.4115 3.58852 16 8 16C12.4115 16 16 12.4115 16 8ZM8.36939 14.2501L8.32939 13.5558C8.544 13.5437 8.76 13.5183 8.97183 13.481L9.09287 14.1659C8.85426 14.208 8.61078 14.2365 8.36939 14.2501ZM11.1339 13.4212C10.9249 13.5423 10.7064 13.6522 10.4845 13.7485L10.208 13.1099C10.4052 13.0247 10.5997 12.9266 10.7854 12.8191L11.1339 13.4212ZM14.2609 8C14.2609 8.24348 14.247 8.48765 14.2191 8.72591L13.5283 8.64591C13.5527 8.43409 13.5652 8.21704 13.5652 8L14.2609 7.9767V8ZM14.088 6.53287L13.4115 6.6953C13.361 6.48522 13.2981 6.27722 13.224 6.07687L13.8769 5.83652C13.96 6.06191 14.031 6.29635 14.088 6.53287ZM11.7228 2.96557L11.3085 3.52452C11.136 3.39652 10.9537 3.27722 10.7673 3.17009L11.1137 2.56696C11.3235 2.688 11.5287 2.82157 11.7228 2.96557ZM9.77704 1.99478L9.57948 2.66191C9.37322 2.6007 9.16174 2.55165 8.94991 2.51513L9.06748 1.82957C9.30609 1.87061 9.54435 1.92626 9.77704 1.99478ZM7.61774 1.75061L7.65983 2.44487C7.44452 2.45774 7.22852 2.48348 7.01704 2.52104L6.8953 1.83617C7.13322 1.79374 7.376 1.76522 7.61774 1.75061ZM4.8553 2.58539C5.06435 2.46365 5.28278 2.35339 5.50435 2.25704L5.78156 2.89496C5.58504 2.98052 5.39061 3.07861 5.20522 3.18678L4.8553 2.58539ZM3.19478 3.98643C3.34887 3.80209 3.51652 3.624 3.69287 3.4567L4.17183 3.96139C4.01496 4.11026 3.86574 4.26887 3.72904 4.4327L3.19478 3.98643ZM12.2511 4.40835L12.7823 3.95861C12.9388 4.144 13.0859 4.33983 13.2191 4.54052L12.639 4.92487C12.521 4.74644 12.3906 4.57252 12.2511 4.40835ZM2.11061 5.87026C2.19304 5.64244 2.29009 5.41704 2.39791 5.20104L3.02017 5.5127C2.92417 5.70435 2.83826 5.90435 2.76487 6.10713L2.11061 5.87026ZM1.73913 8C1.73913 7.76139 1.7527 7.52139 1.77948 7.28626L2.47026 7.36522C2.44661 7.57391 2.43478 7.78783 2.43478 8L1.73913 8.01183V8ZM1.90887 9.45496L2.58539 9.29322C2.63583 9.50296 2.69809 9.7113 2.77183 9.91304L2.11826 10.1517C2.03583 9.92487 1.96522 9.69044 1.90887 9.45496ZM8.33391 10.3047L10.2908 8.34783H4.52174V7.65217H10.2908L8.33391 5.6953L8.82574 5.20348L11.6223 8L8.82574 10.7965L8.33391 10.3047ZM12.975 10.4974C13.0713 10.3057 13.1576 10.1061 13.2313 9.90365L13.8849 10.1416C13.8021 10.3697 13.7047 10.5948 13.5958 10.8108L12.975 10.4974ZM2.77426 11.4487L3.35513 11.0654C3.4727 11.2442 3.60313 11.4181 3.74191 11.583L3.21009 12.0313C3.05322 11.8459 2.90678 11.6497 2.77426 11.4487ZM12.2647 11.576L12.7972 12.023C12.6414 12.2087 12.4734 12.3868 12.2977 12.552L11.8209 12.0459C11.9767 11.8995 12.1259 11.7412 12.2647 11.576ZM4.26817 13.0271L4.68313 12.4692C4.85461 12.5969 5.03687 12.7162 5.224 12.8243L4.87617 13.4268C4.66574 13.3057 4.46087 13.1711 4.26817 13.0271ZM6.21113 14.001L6.40939 13.3346C6.6153 13.3958 6.82678 13.4452 7.03896 13.4824L6.9193 14.168C6.68104 14.1259 6.44243 14.0699 6.21113 14.001Z" fill="#444B54"/>
</svg>
