<svg width="18" height="18" viewBox="0 0 18 18" fill="none" xmlns="http://www.w3.org/2000/svg">
<path d="M6 0.600006C5.3382 0.600006 4.8 1.13821 4.8 1.80001V3.60001H2.4V1.80001L0 4.20001L2.4 6.60001V4.80001H4.8V16.2C4.8 16.8618 5.3382 17.4 6 17.4H9.78281C9.46001 17.04 9.18616 16.6386 8.96836 16.2012L6 16.2V4.30079C6.01071 4.23599 6.01071 4.16988 6 4.10508V1.80001H12V8.71407C12.3828 8.57847 12.783 8.48136 13.2 8.43516V1.80001C13.2 1.13821 12.6618 0.600006 12 0.600006H6ZM13.8 9.60001C11.4804 9.60001 9.6 11.4804 9.6 13.8C9.6 16.1196 11.4804 18 13.8 18C16.1196 18 18 16.1196 18 13.8C18 11.4804 16.1196 9.60001 13.8 9.60001ZM13.8 11.4C14.1312 11.4 14.4 11.6682 14.4 12V13.2H15.6C15.9312 13.2 16.2 13.4682 16.2 13.8C16.2 14.1318 15.9312 14.4 15.6 14.4H14.4V15.6C14.4 15.9318 14.1312 16.2 13.8 16.2C13.4688 16.2 13.2 15.9318 13.2 15.6V14.4H12C11.6688 14.4 11.4 14.1318 11.4 13.8C11.4 13.4682 11.6688 13.2 12 13.2H13.2V12C13.2 11.6682 13.4688 11.4 13.8 11.4Z" fill="#56408B"/>
</svg>
