<svg width="40" height="40" viewBox="0 0 40 40" fill="none" xmlns="http://www.w3.org/2000/svg">
<rect width="40" height="40" rx="5" fill="#3A465B"/>
<path d="M18.5714 10C16.4658 10 14.7619 11.7039 14.7619 13.8095C14.7619 15.9152 16.4658 17.619 18.5714 17.619C20.6771 17.619 22.381 15.9152 22.381 13.8095C22.381 11.7039 20.6771 10 18.5714 10ZM24.2857 18.5714C21.1421 18.5714 18.5714 21.1421 18.5714 24.2857C18.5714 27.4293 21.1421 30 24.2857 30C27.4293 30 30 27.4293 30 24.2857C30 21.1421 27.4293 18.5714 24.2857 18.5714ZM17.6674 20.5208C14.6577 20.7701 10 22.1875 10 24.7619V27.1429H17.2284C16.8676 26.2612 16.6667 25.2976 16.6667 24.2857C16.6667 22.9129 17.035 21.6332 17.6674 20.5208ZM23.3333 21.4286H25.2381V23.3333H27.1429V25.2381H25.2381V27.1429H23.3333V25.2381H21.4286V23.3333H23.3333V21.4286Z" fill="white"/>
</svg>
