<svg width="18" height="18" viewBox="0 0 18 18" fill="none" xmlns="http://www.w3.org/2000/svg">
<path d="M4.42308 1C3.08894 1 2 2.08894 2 3.42308V13.7284C2 15.0625 3.08894 16.1514 4.42308 16.1514H10.4856C10.1827 15.7885 9.93029 15.3822 9.74519 14.9399H4.42308C3.75481 14.9399 3.21154 14.3966 3.21154 13.7284V3.42308C3.21154 2.75481 3.75481 2.21154 4.42308 2.21154H8.23077C8.66827 2.32452 8.66587 2.84856 8.66587 3.38702V5.24279C8.66587 5.57692 8.9399 5.84856 9.27164 5.84856H11.0913C11.6947 5.84856 12.3029 5.85096 12.3029 6.45433V8.74519C12.6851 8.58654 13.0913 8.47837 13.5144 8.42308V5.84856C13.5144 5.20433 12.9255 4.59375 11.8678 3.55769C11.7212 3.41346 11.5625 3.2524 11.4135 3.10337C11.2644 2.95192 11.1034 2.8125 10.9591 2.66587C9.92067 1.60817 9.3101 1 8.66587 1H4.42308ZM14.1202 9.59856C12.1755 9.59856 10.5986 11.1755 10.5986 13.1202C10.5986 15.0673 12.1755 16.6442 14.1202 16.6442C16.0673 16.6442 17.6442 15.0673 17.6442 13.1202C17.6442 11.1755 16.0673 9.59856 14.1202 9.59856ZM13.5144 11.3029H14.7284V12.5144H15.9399V13.7284H14.7284V14.9399H13.5144V13.7284H12.3029V12.5144H13.5144V11.3029Z" fill="#00BCD4"/>
</svg>
