<svg width="187" height="24" viewBox="0 0 187 24" fill="none" xmlns="http://www.w3.org/2000/svg">
<path d="M62.108 6.12944C63.0305 6.95005 63.4925 8.12933 63.4925 9.66727C63.4925 10.2311 63.4325 10.7865 63.3138 11.3336L61.7759 19.0261H56.9039L58.3399 11.7955C58.4083 11.5053 58.4432 11.1968 58.4432 10.8731C58.4432 9.64214 57.8026 9.02669 56.5201 9.02669C55.6646 9.02669 54.964 9.28766 54.4169 9.80822C53.8699 10.3302 53.4847 11.1117 53.2628 12.1542L51.8784 19.0261H47.0063L50.801 0H55.673L54.4169 6.28156C55.5962 5.35908 56.9472 4.89713 58.4683 4.89713C59.9714 4.89852 61.1856 5.30883 62.108 6.12944Z" fill="#F4F5F9"/>
<path d="M82.5186 5.12877L79.7497 19.0261H75.1345L75.4164 17.7184C74.3055 18.7442 72.963 19.2564 71.3915 19.2564C70.3658 19.2564 69.4042 19.0037 68.5068 18.4999C67.6095 17.9961 66.8879 17.2648 66.3409 16.3075C65.7938 15.3501 65.5203 14.2225 65.5203 12.9232C65.5203 11.4187 65.858 10.0552 66.5335 8.83407C67.2089 7.61153 68.123 6.64997 69.2772 5.94938C70.4314 5.2488 71.6916 4.8985 73.0593 4.8985C75.0759 4.8985 76.4952 5.53071 77.3158 6.79651L77.6494 5.13017H82.5186V5.12877ZM75.4667 14.2573C76.0821 13.54 76.3891 12.6078 76.3891 11.462C76.3891 10.6414 76.1533 9.99241 75.6844 9.51372C75.2141 9.03504 74.5693 8.79639 73.7487 8.79639C72.7746 8.79639 71.9791 9.15506 71.3636 9.87379C70.7482 10.5911 70.4411 11.5317 70.4411 12.6943C70.4411 13.5149 70.6756 14.1597 71.1459 14.63C71.6162 15.1003 72.261 15.3347 73.0816 15.3347C74.0571 15.3347 74.8512 14.9747 75.4667 14.2573Z" fill="#F4F5F9"/>
<path d="M86.7876 18.4748C85.6851 17.9543 84.8296 17.2146 84.2239 16.2572C83.6168 15.2999 83.314 14.189 83.314 12.9246C83.314 11.4034 83.681 10.0357 84.4165 8.82151C85.152 7.60734 86.1777 6.65137 87.4938 5.94938C88.8098 5.2488 90.2891 4.8985 91.9304 4.8985C93.5032 4.8985 94.8611 5.22786 96.0069 5.88518C97.1513 6.5439 97.99 7.47058 98.5189 8.6666L94.3657 10.6414C93.8535 9.41045 92.9561 8.795 91.6736 8.795C90.6813 8.795 89.8663 9.15366 89.2243 9.87239C88.5837 10.5897 88.2627 11.5136 88.2627 12.6413C88.2627 13.4619 88.4972 14.115 88.9675 14.6021C89.4378 15.0891 90.1091 15.3333 90.98 15.3333C91.6289 15.3333 92.2025 15.1882 92.6979 14.8979C93.1934 14.6076 93.6204 14.1457 93.9805 13.5135L97.5448 15.6669C96.8777 16.7945 95.9427 17.6751 94.7369 18.3073C93.5311 18.9395 92.1676 19.2564 90.6478 19.2564C89.1755 19.2564 87.8901 18.9968 86.7876 18.4748Z" fill="#F4F5F9"/>
<path d="M109.594 11.2834L114.261 19.0275H108.569L105.723 14.2839L103.723 16.027L103.134 19.0275H98.2622L102.057 0.00140381H106.929L104.954 9.87382L110.57 5.13021H116.723L109.594 11.2834Z" fill="#F4F5F9"/>
<path d="M116.864 18.8726C115.762 18.6158 114.902 18.292 114.288 17.8984L116.057 14.4876C116.69 14.8812 117.442 15.1924 118.314 15.4241C119.186 15.6543 120.04 15.7702 120.878 15.7702C122.366 15.7702 123.108 15.4366 123.108 14.7695C123.108 14.496 122.932 14.295 122.582 14.1666C122.232 14.0382 121.672 13.914 120.903 13.7954C119.877 13.607 119.036 13.4074 118.377 13.1925C117.718 12.979 117.142 12.6161 116.646 12.1025C116.151 11.5904 115.903 10.8716 115.903 9.94915C115.903 8.34282 116.591 7.09935 117.967 6.21873C119.343 5.33811 121.125 4.8985 123.313 4.8985C124.304 4.8985 125.261 4.99758 126.185 5.19297C127.108 5.38975 127.912 5.6591 128.595 6.00102L126.877 9.41185C125.715 8.71126 124.339 8.36096 122.749 8.36096C121.997 8.36096 121.437 8.46006 121.07 8.65544C120.702 8.85222 120.519 9.10482 120.519 9.41185C120.519 9.68538 120.694 9.88635 121.044 10.0147C121.394 10.1431 121.971 10.2841 122.774 10.4376C123.765 10.6093 124.59 10.806 125.249 11.0279C125.906 11.2498 126.48 11.6183 126.967 12.1305C127.454 12.6426 127.698 13.3446 127.698 14.2336C127.698 15.8399 127.006 17.0792 125.621 17.9515C124.237 18.8237 122.467 19.2591 120.314 19.2591C119.115 19.2564 117.965 19.1294 116.864 18.8726Z" fill="#F4F5F9"/>
<path d="M135.363 13.8471C135.328 14.0871 135.311 14.2406 135.311 14.309C135.311 15.0947 135.738 15.4883 136.594 15.4883C137.056 15.4883 137.543 15.3515 138.055 15.078L138.67 18.4372C137.713 18.9843 136.507 19.2578 135.056 19.2578C133.62 19.2578 132.479 18.8991 131.632 18.1804C130.787 17.4631 130.364 16.4624 130.364 15.1799C130.364 14.6844 130.406 14.249 130.492 13.8722L131.415 9.2821H129.363L130.107 5.641H132.132L132.851 2.02502H137.723L137.004 5.641H140.158L139.439 9.2821H136.285L135.363 13.8471Z" fill="#F4F5F9"/>
<path d="M152.466 4.8985L151.62 9.28346C151.193 9.23182 150.824 9.20669 150.517 9.20669C149.423 9.20669 148.547 9.46767 147.89 9.98823C147.231 10.5102 146.791 11.335 146.569 12.4626L145.237 19.0261H140.365L143.133 5.12877H147.749L147.44 6.66672C148.603 5.48744 150.277 4.8985 152.466 4.8985Z" fill="#F4F5F9"/>
<path d="M169.003 5.12877L166.235 19.0261H161.619L161.901 17.7184C160.79 18.7442 159.448 19.2564 157.875 19.2564C156.849 19.2564 155.888 19.0037 154.99 18.4999C154.093 17.9961 153.37 17.2648 152.824 16.3075C152.277 15.3501 152.004 14.2225 152.004 12.9232C152.004 11.4187 152.341 10.0552 153.017 8.83407C153.692 7.61153 154.606 6.64997 155.761 5.94938C156.915 5.2488 158.175 4.8985 159.543 4.8985C161.559 4.8985 162.979 5.53071 163.799 6.79651L164.133 5.13017H169.003V5.12877ZM161.953 14.2573C162.568 13.54 162.875 12.6078 162.875 11.462C162.875 10.6414 162.639 9.99241 162.171 9.51372C161.7 9.03504 161.055 8.79639 160.235 8.79639C159.261 8.79639 158.465 9.15506 157.85 9.87379C157.234 10.5911 156.927 11.5317 156.927 12.6943C156.927 13.5149 157.162 14.1597 157.632 14.63C158.102 15.1003 158.747 15.3347 159.568 15.3347C160.542 15.3347 161.337 14.9747 161.953 14.2573Z" fill="#F4F5F9"/>
<path d="M183.375 5.65492C184.273 6.15872 184.994 6.89001 185.541 7.84739C186.088 8.80476 186.362 9.92403 186.362 11.2066C186.362 12.7278 186.024 14.0996 185.349 15.3222C184.673 16.5447 183.759 17.5063 182.605 18.2069C181.451 18.9075 180.191 19.2578 178.823 19.2578C176.806 19.2578 175.387 18.6256 174.566 17.3597L173.234 24H168.362L172.131 5.12877H176.746L176.464 6.43644C177.575 5.41068 178.916 4.8985 180.491 4.8985C181.516 4.8985 182.478 5.15111 183.375 5.65492ZM180.516 14.2573C181.131 13.54 181.438 12.6078 181.438 11.462C181.438 10.6414 181.204 9.99241 180.734 9.51372C180.263 9.03504 179.618 8.79639 178.798 8.79639C177.824 8.79639 177.028 9.15506 176.413 9.87379C175.797 10.5911 175.49 11.5317 175.49 12.6943C175.49 13.5149 175.725 14.1597 176.195 14.63C176.665 15.1003 177.31 15.3347 178.131 15.3347C179.106 15.3347 179.9 14.9747 180.516 14.2573Z" fill="#F4F5F9"/>
<path d="M36.7808 3.8044L10.7586 12.3119L17.4198 2.26645L21.8229 5.30884L18.8949 0.0432739H14.2002H14.1876L0 15.8302L5.07298 20.8837L35.5429 8.87877L33.7482 16.2349L30.7505 14.2365L33.0923 18.9256H37.7857L40.0716 7.0952L36.7808 3.8044Z" fill="#F4F5F9"/>
</svg>
