<svg width="22" height="20" viewBox="0 0 22 20" fill="none" xmlns="http://www.w3.org/2000/svg">
<path opacity="0.3" d="M1.23118 18.7449C2.87192 20.4175 5.54177 20.4192 7.1833 18.7449L16.7061 9.03779C17.1845 8.55512 17.4492 7.90737 17.4508 7.21768C17.4549 5.83922 16.2721 4.6342 14.9199 4.63758C14.2435 4.63924 13.6088 4.90911 13.1321 5.40015L4.80195 13.8913C4.47315 14.2274 4.47315 14.7695 4.80195 15.1047C5.13074 15.4399 5.6634 15.4399 5.9922 15.1047L14.3248 6.61016C14.4867 6.44423 14.698 6.35456 14.9241 6.35375C15.3746 6.35375 15.7674 6.75432 15.7674 7.2135C15.7666 7.44395 15.6786 7.65933 15.5184 7.82102L5.9922 17.5315C5.00827 18.5371 3.4062 18.5371 2.42144 17.5315C1.43667 16.5293 1.43667 14.8952 2.42144 13.8913L13.1346 2.97C14.7753 1.29737 17.4459 1.29737 19.0867 2.97C20.7274 4.64262 20.7274 7.36517 19.0867 9.03779L10.754 17.5315C10.4252 17.8667 10.4252 18.4097 10.754 18.7449C11.0828 19.0801 11.6155 19.0801 11.9443 18.7449L20.2769 10.2512C22.5744 7.90903 22.5744 4.098 20.2769 1.75661C17.9802 -0.585536 14.2418 -0.585536 11.9443 1.75661L1.23118 12.678C-0.410394 14.3514 -0.410394 17.0723 1.23118 18.7449Z" fill="#292F4C"/>
</svg>
