<svg width="18" height="18" viewBox="0 0 18 18" fill="none" xmlns="http://www.w3.org/2000/svg">
<path fill-rule="evenodd" clip-rule="evenodd" d="M12.5156 11.0156L17.4844 15.9844L15.9844 17.4844L11.0156 12.5156V11.7188L10.7344 11.4375C9.51562 12.4688 8.10938 12.9844 6.51562 12.9844C4.70312 12.9844 3.16407 12.3516 1.89844 11.0859C0.632806 9.82031 0 8.28907 0 6.49219C0 4.6953 0.632806 3.16407 1.89844 1.89844C3.16407 0.632806 4.6953 0 6.49219 0C8.28907 0 9.82031 0.632806 11.0859 1.89844C12.3516 3.16407 12.9844 4.70312 12.9844 6.51562C12.9844 8.10938 12.4688 9.51562 11.4375 10.7344L11.7188 11.0156H12.5156ZM6.51562 11.0156C7.76563 11.0156 8.82812 10.5781 9.70312 9.70312C10.5781 8.82812 11.0156 7.76563 11.0156 6.51562C11.0156 5.26562 10.5781 4.20313 9.70312 3.32812C8.82812 2.45312 7.76563 2.01562 6.51562 2.01562C5.26562 2.01562 4.20313 2.45312 3.32812 3.32812C2.45312 4.20313 2.01562 5.26562 2.01562 6.51562C2.01562 7.76563 2.45312 8.82812 3.32812 9.70312C4.20313 10.5781 5.26562 11.0156 6.51562 11.0156Z" fill="#4B74FF"/>
</svg>
