<svg width="26" height="27" viewBox="0 0 26 27" fill="none" xmlns="http://www.w3.org/2000/svg">
<path d="M4.5293 0.515621C4.39569 0.513826 4.26307 0.538827 4.13929 0.589146C4.0155 0.639465 3.90306 0.714082 3.80859 0.80859C3.6211 0.99612 3.51578 1.25044 3.51578 1.51562C3.51578 1.7808 3.6211 2.03512 3.80859 2.22265C3.99612 2.41014 4.25045 2.51547 4.51562 2.51547C4.7808 2.51547 5.03513 2.41014 5.22266 2.22265C5.41015 2.03512 5.51547 1.7808 5.51547 1.51562C5.51547 1.25044 5.41015 0.99612 5.22266 0.80859C5.03851 0.624357 4.78975 0.519247 4.5293 0.515621ZM21.5 0.515621C21.3661 0.513564 21.2331 0.538437 21.1089 0.588764C20.9848 0.639091 20.872 0.713845 20.7773 0.80859C20.5899 0.99612 20.4845 1.25044 20.4845 1.51562C20.4845 1.7808 20.5899 2.03512 20.7773 2.22265C20.9649 2.41014 21.2192 2.51547 21.4844 2.51547C21.7496 2.51547 22.0039 2.41014 22.1914 2.22265C22.3789 2.03512 22.4842 1.7808 22.4842 1.51562C22.4842 1.25044 22.3789 0.99612 22.1914 0.80859C22.0077 0.624825 21.7598 0.519753 21.5 0.515621ZM13 0.999996C8.029 0.999996 4 5.029 4 10C4 15 8 17 10 21H16C18 17 22 15 22 10C22 5.029 17.971 0.999996 13 0.999996ZM13 4V9H17L13 16V11H9L13 4ZM1 9C0.734784 9 0.48043 9.10535 0.292893 9.29289C0.105357 9.48043 0 9.73478 0 10C0 10.2652 0.105357 10.5196 0.292893 10.7071C0.48043 10.8946 0.734784 11 1 11C1.26522 11 1.51957 10.8946 1.70711 10.7071C1.89464 10.5196 2 10.2652 2 10C2 9.73478 1.89464 9.48043 1.70711 9.29289C1.51957 9.10535 1.26522 9 1 9ZM25 9C24.7348 9 24.4804 9.10535 24.2929 9.29289C24.1054 9.48043 24 9.73478 24 10C24 10.2652 24.1054 10.5196 24.2929 10.7071C24.4804 10.8946 24.7348 11 25 11C25.2652 11 25.5196 10.8946 25.7071 10.7071C25.8946 10.5196 26 10.2652 26 10C26 9.73478 25.8946 9.48043 25.7071 9.29289C25.5196 9.10535 25.2652 9 25 9ZM4.5293 17.4844C4.39536 17.4823 4.26237 17.5072 4.13824 17.5575C4.0141 17.6078 3.90133 17.6826 3.80664 17.7773C3.61915 17.9649 3.51382 18.2192 3.51382 18.4844C3.51382 18.7495 3.61915 19.0039 3.80664 19.1914C3.89953 19.2845 4.00988 19.3584 4.13138 19.4088C4.25287 19.4592 4.38311 19.4852 4.51465 19.4852C4.64618 19.4852 4.77643 19.4592 4.89792 19.4088C5.01941 19.3584 5.12976 19.2845 5.22266 19.1914C5.41015 19.0039 5.51547 18.7495 5.51547 18.4844C5.51547 18.2192 5.41015 17.9649 5.22266 17.7773C5.03851 17.5931 4.78975 17.488 4.5293 17.4844ZM21.498 17.4863C21.3646 17.4843 21.232 17.509 21.1083 17.5589C20.9845 17.6089 20.872 17.6832 20.7773 17.7773C20.6842 17.8702 20.6103 17.9806 20.5599 18.1021C20.5095 18.2236 20.4835 18.3538 20.4835 18.4853C20.4835 18.6169 20.5095 18.7471 20.5599 18.8686C20.6103 18.9901 20.6842 19.1005 20.7773 19.1934C20.9649 19.3808 21.2192 19.4862 21.4844 19.4862C21.7496 19.4862 22.0039 19.3808 22.1914 19.1934C22.2845 19.1005 22.3584 18.9901 22.4088 18.8686C22.4593 18.7471 22.4852 18.6169 22.4852 18.4853C22.4852 18.3538 22.4593 18.2236 22.4088 18.1021C22.3584 17.9806 22.2845 17.8702 22.1914 17.7773C22.0069 17.5938 21.7582 17.4894 21.498 17.4863ZM10 23V24C10 25.105 10.895 26 12 26C12 26.2652 12.1054 26.5196 12.2929 26.7071C12.4804 26.8946 12.7348 27 13 27C13.2652 27 13.5196 26.8946 13.7071 26.7071C13.8946 26.5196 14 26.2652 14 26C15.105 26 16 25.105 16 24V23H10Z" fill="black"/>
</svg>
