<svg width="800" height="600" viewBox="0 0 800 600" fill="none" xmlns="http://www.w3.org/2000/svg">
<path d="M536 222V178H457V222H449V367H544V222H536Z" fill="url(#paint0_linear)"/>
<path d="M587.8 211L572.2 161H569.6L567.149 128.041L564.4 161H561.8L546.2 211H541V396H593V211H587.8Z" fill="url(#paint1_linear)"/>
<path d="M298 152V127H226V400H333V152H298Z" fill="url(#paint2_linear)"/>
<path d="M156 239V270H133V406H238V183L156 239Z" fill="url(#paint3_linear)"/>
<path d="M465 381V242H449V196H438V166H423L413 86L402 166H388V196H377V242H361V382H347V404H479V381H465Z" fill="url(#paint4_linear)"/>
<path d="M368 188H289V388H368V188Z" fill="url(#paint5_linear)"/>
<path d="M203 249H194V427H203V249Z" fill="url(#paint6_linear)"/>
<path d="M183 249H174V427H183V249Z" fill="url(#paint7_linear)"/>
<path d="M223 249H214V427H223V249Z" fill="url(#paint8_linear)"/>
<path opacity="0.2" d="M667 461.445C667 472.509 658.034 481.479 646.974 481.479H153.026C141.966 481.479 133 472.51 133 461.445H667Z" fill="url(#paint9_linear)"/>
<path d="M670 237.979V220.979L635.115 207.021L601 220.979V237.979H587V436.979H684V237.979H670Z" fill="url(#paint10_linear)"/>
<path d="M675 251.021H597V256.021H675V251.021Z" fill="url(#paint11_linear)"/>
<path d="M675 261.021H597V266.021H675V261.021Z" fill="url(#paint12_linear)"/>
<path d="M675 271.021H597V276.021H675V271.021Z" fill="url(#paint13_linear)"/>
<path d="M675 281.021H597V286.021H675V281.021Z" fill="url(#paint14_linear)"/>
<path d="M675 291.02H597V296.02H675V291.02Z" fill="url(#paint15_linear)"/>
<path d="M675 301.02H597V306.02H675V301.02Z" fill="url(#paint16_linear)"/>
<path d="M675 311.02H597V316.02H675V311.02Z" fill="url(#paint17_linear)"/>
<path d="M675 321.02H597V326.02H675V321.02Z" fill="url(#paint18_linear)"/>
<path d="M675 331.02H597V336.02H675V331.02Z" fill="url(#paint19_linear)"/>
<path d="M675 341.02H597V346.02H675V341.02Z" fill="url(#paint20_linear)"/>
<path d="M675 351.02H597V356.02H675V351.02Z" fill="url(#paint21_linear)"/>
<path d="M457 436.479H343V460.479H457V436.479Z" fill="#E0E0E0"/>
<path d="M400 443.479C431.48 443.479 457 440.345 457 436.479C457 432.613 431.48 429.479 400 429.479C368.52 429.479 343 432.613 343 436.479C343 440.345 368.52 443.479 400 443.479Z" fill="#B0BEC5"/>
<path d="M400.115 467.479C431.595 467.479 457.115 464.345 457.115 460.479C457.115 456.613 431.595 453.479 400.115 453.479C368.635 453.479 343.115 456.613 343.115 460.479C343.115 464.345 368.635 467.479 400.115 467.479Z" fill="#E0E0E0"/>
<path d="M518.471 226.479H471V239.479H518.471V226.479Z" fill="#BDBDBD"/>
<path d="M465 220.479H444V226.479H465V220.479Z" fill="#BDBDBD"/>
<path d="M465 239.479H444V245.479H465V239.479Z" fill="#BDBDBD"/>
<path d="M523.953 228.8L514.712 238.041L567.3 290.629L576.541 281.388L523.953 228.8Z" fill="#BDBDBD"/>
<path d="M521.013 244.973C527.088 244.973 532.013 240.048 532.013 233.973C532.013 227.898 527.088 222.973 521.013 222.973C514.938 222.973 510.013 227.898 510.013 233.973C510.013 240.048 514.938 244.973 521.013 244.973Z" fill="#78909C"/>
<path d="M521 239.479C524.314 239.479 527 236.793 527 233.479C527 230.165 524.314 227.479 521 227.479C517.686 227.479 515 230.165 515 233.479C515 236.793 517.686 239.479 521 239.479Z" fill="#E0E0E0"/>
<path d="M478 225.021H474V241.98H478V225.021Z" fill="#78909C"/>
<path d="M485 224.979H481V241.979H485V224.979Z" fill="#78909C"/>
<path d="M471 217.979H465V248.979H471V217.979Z" fill="#78909C"/>
<path d="M521 236.479C522.657 236.479 524 235.136 524 233.479C524 231.822 522.657 230.479 521 230.479C519.343 230.479 518 231.822 518 233.479C518 235.136 519.343 236.479 521 236.479Z" fill="#90A4AE"/>
<path d="M520.631 232.479C520.631 232.479 502.501 306.529 572 286.516" stroke="#90A4AE" stroke-width="3" stroke-miterlimit="10"/>
<path d="M582 288.52H561V447.479H582V288.52Z" fill="#BDBDBD"/>
<path d="M572 302.979C580.837 302.979 588 295.816 588 286.979C588 278.142 580.837 270.979 572 270.979C563.163 270.979 556 278.142 556 286.979C556 295.816 563.163 302.979 572 302.979Z" fill="#78909C"/>
<path d="M572 295.479C576.971 295.479 581 291.45 581 286.479C581 281.508 576.971 277.479 572 277.479C567.029 277.479 563 281.508 563 286.479C563 291.45 567.029 295.479 572 295.479Z" fill="#E0E0E0"/>
<path d="M572 290.473C574.209 290.473 576 288.694 576 286.5C576 284.306 574.209 282.527 572 282.527C569.791 282.527 568 284.306 568 286.5C568 288.694 569.791 290.473 572 290.473Z" fill="#90A4AE"/>
<path d="M585 330.979H558V339.02H585V330.979Z" fill="#78909C"/>
<path d="M585 365.979H558V374.02H585V365.979Z" fill="#78909C"/>
<path d="M588 467.979H555V461.979L558 458.479V445.979H585V458.312L588 461.979V467.979Z" fill="#78909C"/>
<path d="M456.143 270.979C456.143 275.579 455 282.48 455 282.48H456.486C456.486 282.48 463 279.029 463 276.154V275.579C463 274.199 462.314 273.049 461.286 272.244C460.486 271.669 460.486 270.403 461.286 269.714C462.315 268.909 463 267.644 463 266.379V265.804C463 262.929 456.486 259.478 456.486 259.478H455C455 259.479 456.143 266.379 456.143 270.979ZM458.429 273.624C460.143 273.624 460.715 274.199 460.715 275.694V276.039C460.715 277.189 459.915 278.224 458.886 278.685C458.086 278.915 457.286 278.34 457.286 277.535L458.429 273.624ZM458.886 263.504C460.029 263.849 460.715 264.884 460.715 266.15V266.38C460.715 267.875 460.144 268.45 458.429 268.45L457.286 264.655C457.286 263.733 458.086 263.159 458.886 263.504Z" fill="#DD2C00"/>
<path d="M456.038 260.479C456.038 260.479 452.67 255.998 454.594 250.024C455.568 247.001 457 243.804 457 241.56C457 237.577 455 238.125 455 239.479" stroke="#DD2C00" stroke-width="2" stroke-miterlimit="10"/>
<path d="M456.485 280.479C451 290.448 463.375 294.823 457.28 307.479" stroke="#DD2C00" stroke-width="2" stroke-miterlimit="10" stroke-linecap="round"/>
<path d="M357.115 257.52C357.115 257.52 342.115 261.52 322.115 286.52C302.115 311.52 255.25 322.042 231.25 316.042C207.25 310.042 179.115 322.52 173.115 342.52C173.115 342.52 199.493 340.228 194.375 364.667C188.813 391.229 203.115 406.52 212.115 408.52C221.115 410.52 244.115 410.52 254.115 398.52C264.115 386.52 289.115 382.52 294.115 395.52L315.063 383.667C315.062 383.667 363.115 255.52 357.115 257.52Z" fill="#C62828"/>
<path d="M278.239 258.794L225.652 311.382L234.893 320.623L287.48 268.035L278.239 258.794Z" fill="#BDBDBD"/>
<path d="M362.87 237.458L342.096 240.556L342.981 246.49L363.755 243.392L362.87 237.458Z" fill="#BDBDBD"/>
<path d="M337.047 247.377L280.31 255.837L282.235 268.745L338.972 260.284L337.047 247.377Z" fill="#BDBDBD"/>
<path d="M365.674 256.252L344.9 259.35L345.785 265.285L366.559 262.187L365.674 256.252Z" fill="#BDBDBD"/>
<path d="M241 328.479H220V456.479H241V328.479Z" fill="#BDBDBD"/>
<path d="M247 467.979H214V461.979L217 458.479V445.979H244V458.312L247 461.979V467.979Z" fill="#78909C"/>
<path d="M244 350.02H217V357.979H244V350.02Z" fill="#78909C"/>
<path d="M244 364.979H217V372.979H244V364.979Z" fill="#78909C"/>
<path d="M281.01 273.978C287.085 273.978 292.01 269.053 292.01 262.978C292.01 256.903 287.085 251.978 281.01 251.978C274.935 251.978 270.01 256.903 270.01 262.978C270.01 269.053 274.935 273.978 281.01 273.978Z" fill="#78909C"/>
<path d="M281 269.479C284.314 269.479 287 266.793 287 263.479C287 260.165 284.314 257.479 281 257.479C277.686 257.479 275 260.165 275 263.479C275 266.793 277.686 269.479 281 269.479Z" fill="#E0E0E0"/>
<path d="M281 266.479C282.657 266.479 284 265.136 284 263.479C284 261.822 282.657 260.479 281 260.479C279.343 260.479 278 261.822 278 263.479C278 265.136 279.343 266.479 281 266.479Z" fill="#90A4AE"/>
<path d="M280.898 262.479C280.898 262.479 300.617 366.267 230.615 316.369" stroke="#90A4AE" stroke-width="3" stroke-miterlimit="10"/>
<path d="M230 332.979C238.837 332.979 246 325.816 246 316.979C246 308.142 238.837 300.979 230 300.979C221.163 300.979 214 308.142 214 316.979C214 325.816 221.163 332.979 230 332.979Z" fill="#78909C"/>
<path d="M230 326.479C234.971 326.479 239 322.45 239 317.479C239 312.508 234.971 308.479 230 308.479C225.029 308.479 221 312.508 221 317.479C221 322.45 225.029 326.479 230 326.479Z" fill="#E0E0E0"/>
<path d="M230 321.473C232.209 321.473 234 319.694 234 317.5C234 315.306 232.209 313.527 230 313.527C227.791 313.527 226 315.306 226 317.5C226 319.694 227.791 321.473 230 321.473Z" fill="#90A4AE"/>
<path d="M333.784 245.339L329.828 245.929L332.336 262.747L336.292 262.157L333.784 245.339Z" fill="#78909C"/>
<path d="M326.859 246.372L322.902 246.962L325.41 263.78L329.367 263.19L326.859 246.372Z" fill="#78909C"/>
<path d="M341.73 237.606L335.796 238.491L340.221 268.167L346.156 267.282L341.73 237.606Z" fill="#78909C"/>
<path d="M356.115 257.52C356.115 257.52 325.117 364.157 294 395.479C284.5 405.041 291.146 411.748 293.115 413.52C303 421.479 318.115 420.52 318.115 420.52C318.115 420.52 365.115 374.52 367.115 278.52C367.222 273.367 364.198 256.52 358.115 256.52C356.115 256.52 356.115 257.52 356.115 257.52Z" fill="#B71C1C"/>
<path d="M380 317.479C380 317.479 379.326 345.928 382.115 381.485C382.414 385.298 382.728 388.51 383.115 392.479H396.115C400.115 354.5 400.115 335.51 400.115 335.51V317.52L380 317.479Z" fill="#1565C0"/>
<path d="M420 317.479C420 317.479 420.938 345.519 418.102 381.339C417.813 384.992 417.485 388.726 417.115 392.52H404.115C400.115 354.52 400.115 335.52 400.115 335.52V317.52L420 317.479Z" fill="#1565C0"/>
<path d="M420.115 280.491L410.115 257.511C405.175 256.585 400.115 246.521 400.115 246.521C400.115 246.521 395.055 256.585 390.115 257.511L380.115 280.491L383.115 303.471L380.115 317.459L397.149 335.165C398.737 336.918 401.493 336.918 403.081 335.165L420.115 317.459L417 303.479L420.115 280.491Z" fill="#1E88E5"/>
<path d="M407.115 434.358C407.115 434.358 407.115 437.479 410.022 437.479C416.563 437.479 428.093 437.479 428.093 437.479C428.093 437.479 427.818 432.415 422.005 432.018C414.114 431.479 415.049 428.888 415.114 426.479C415.364 417.219 417.114 392.479 417.114 392.479H404.114L407.115 434.358Z" fill="#B71C1C"/>
<path d="M393.115 434.358C393.115 434.358 393.115 437.479 390.208 437.479C383.667 437.479 372.137 437.479 372.137 437.479C372.137 437.479 372.412 432.415 378.225 432.018C386.116 431.479 385.181 428.888 385.116 426.479C384.866 417.219 383.116 392.479 383.116 392.479H396.116L393.115 434.358Z" fill="#B71C1C"/>
<path d="M410.115 257.52C403.074 252.52 405.952 241.52 405.952 241.52H393.933C393.933 241.52 397.041 252.52 390 257.52C390.634 257.675 397.041 259.52 400.058 261.52C403.074 259.52 409.712 257.676 410.115 257.52Z" fill="#1565C0"/>
<path d="M423.13 307.52H417.646C416.462 307.52 415.568 308.594 415.783 309.759L416.912 315.87C417.244 317.668 419.238 318.614 420.841 317.734L428.116 312.52L424.609 308.179C424.231 307.76 423.694 307.52 423.13 307.52Z" fill="#FFCCBC"/>
<path d="M377.1 307.52H382.584C383.768 307.52 384.662 308.594 384.447 309.759L383.318 315.87C382.986 317.668 380.992 318.614 379.389 317.734L372.114 312.52L375.621 308.179C375.999 307.76 376.536 307.52 377.1 307.52Z" fill="#FFCCBC"/>
<path d="M411 228.313C411 233.676 408 248.48 400 248.48C392 248.48 389 233.675 389 228.313C389 222.951 393.925 218.603 400 218.603C406.075 218.603 411 222.95 411 228.313Z" fill="#FFCCBC"/>
<path d="M410.115 257.52C420.479 260.111 429.671 265.113 436.211 273.561L443.652 284.173C447.279 288.858 446.619 295.559 442.148 299.447L428.114 312.52L423.114 307.52L432.592 294.276C433.386 293.36 433.161 291.949 432.121 291.325L420.113 280.52L410.115 257.52Z" fill="#1565C0"/>
<path d="M390.115 257.52C379.751 260.111 370.559 265.113 364.019 273.561L356.344 284.167C352.717 288.852 353.377 295.553 357.848 299.441L372.116 312.52L377.116 307.52L367.404 294.27C366.61 293.354 366.835 291.943 367.875 291.319L380.117 280.52L390.115 257.52Z" fill="#1565C0"/>
<path d="M413 225.708C413 220.872 410.682 216.446 405.238 215.306L403.753 213H400.04C395.757 213 390.115 214.834 387.916 220.834C385.333 227.875 389.562 235.197 389.562 235.197L389.32 231.776C389.492 230.186 390.567 228.837 392.08 228.316L405.198 223.789L408.866 227.044C409.849 227.917 410.464 229.13 410.586 230.44L410.438 235.197C410.438 235.195 413 230.666 413 225.708Z" fill="#424242"/>
<path d="M409 237.479C410.657 237.479 412 235.912 412 233.979C412 232.046 410.657 230.479 409 230.479C407.343 230.479 406 232.046 406 233.979C406 235.912 407.343 237.479 409 237.479Z" fill="#FFCCBC"/>
<path d="M391 237.479C392.657 237.479 394 235.912 394 233.979C394 232.046 392.657 230.479 391 230.479C389.343 230.479 388 232.046 388 233.979C388 235.912 389.343 237.479 391 237.479Z" fill="#FFCCBC"/>
<defs>
<linearGradient id="paint0_linear" x1="496.5" y1="367" x2="496.5" y2="178" gradientUnits="userSpaceOnUse">
<stop stop-color="white" stop-opacity="0"/>
<stop offset="0.3493" stop-color="#FAFAFA" stop-opacity="0.3493"/>
<stop offset="0.7742" stop-color="#EBEBEB" stop-opacity="0.7742"/>
<stop offset="1" stop-color="#E0E0E0"/>
</linearGradient>
<linearGradient id="paint1_linear" x1="567" y1="396" x2="567" y2="128.041" gradientUnits="userSpaceOnUse">
<stop stop-color="white" stop-opacity="0"/>
<stop offset="0.3493" stop-color="#FAFAFA" stop-opacity="0.3493"/>
<stop offset="0.7742" stop-color="#EBEBEB" stop-opacity="0.7742"/>
<stop offset="1" stop-color="#E0E0E0"/>
</linearGradient>
<linearGradient id="paint2_linear" x1="279.5" y1="400" x2="279.5" y2="127" gradientUnits="userSpaceOnUse">
<stop stop-color="white" stop-opacity="0"/>
<stop offset="1" stop-color="#EEEEEE"/>
</linearGradient>
<linearGradient id="paint3_linear" x1="185.5" y1="406" x2="185.5" y2="183" gradientUnits="userSpaceOnUse">
<stop stop-color="white" stop-opacity="0"/>
<stop offset="0.3493" stop-color="#FAFAFA" stop-opacity="0.3493"/>
<stop offset="0.7742" stop-color="#EBEBEB" stop-opacity="0.7742"/>
<stop offset="1" stop-color="#E0E0E0"/>
</linearGradient>
<linearGradient id="paint4_linear" x1="413" y1="404" x2="413" y2="86" gradientUnits="userSpaceOnUse">
<stop stop-color="white" stop-opacity="0"/>
<stop offset="1" stop-color="#EEEEEE"/>
</linearGradient>
<linearGradient id="paint5_linear" x1="328.5" y1="388" x2="328.5" y2="188" gradientUnits="userSpaceOnUse">
<stop stop-color="white" stop-opacity="0"/>
<stop offset="1" stop-color="#E0E0E0"/>
</linearGradient>
<linearGradient id="paint6_linear" x1="198.5" y1="427" x2="198.5" y2="249" gradientUnits="userSpaceOnUse">
<stop stop-color="white" stop-opacity="0"/>
<stop offset="1" stop-color="#FAFAFA"/>
</linearGradient>
<linearGradient id="paint7_linear" x1="178.5" y1="427" x2="178.5" y2="249" gradientUnits="userSpaceOnUse">
<stop stop-color="white" stop-opacity="0"/>
<stop offset="1" stop-color="#FAFAFA"/>
</linearGradient>
<linearGradient id="paint8_linear" x1="218.5" y1="427" x2="218.5" y2="249" gradientUnits="userSpaceOnUse">
<stop stop-color="white" stop-opacity="0"/>
<stop offset="1" stop-color="#FAFAFA"/>
</linearGradient>
<linearGradient id="paint9_linear" x1="400" y1="481.479" x2="400" y2="461.445" gradientUnits="userSpaceOnUse">
<stop stop-color="white"/>
<stop offset="1" stop-color="#E0E0E0"/>
</linearGradient>
<linearGradient id="paint10_linear" x1="635.5" y1="436.979" x2="635.5" y2="207.021" gradientUnits="userSpaceOnUse">
<stop stop-color="white" stop-opacity="0"/>
<stop offset="1" stop-color="#EEEEEE"/>
</linearGradient>
<linearGradient id="paint11_linear" x1="636" y1="355.687" x2="636" y2="252.354" gradientUnits="userSpaceOnUse">
<stop stop-color="white" stop-opacity="0"/>
<stop offset="1" stop-color="white"/>
</linearGradient>
<linearGradient id="paint12_linear" x1="636" y1="355.687" x2="636" y2="252.354" gradientUnits="userSpaceOnUse">
<stop stop-color="white" stop-opacity="0"/>
<stop offset="1" stop-color="white"/>
</linearGradient>
<linearGradient id="paint13_linear" x1="636" y1="355.687" x2="636" y2="252.354" gradientUnits="userSpaceOnUse">
<stop stop-color="white" stop-opacity="0"/>
<stop offset="1" stop-color="white"/>
</linearGradient>
<linearGradient id="paint14_linear" x1="636" y1="355.687" x2="636" y2="252.354" gradientUnits="userSpaceOnUse">
<stop stop-color="white" stop-opacity="0"/>
<stop offset="1" stop-color="white"/>
</linearGradient>
<linearGradient id="paint15_linear" x1="636" y1="355.687" x2="636" y2="252.354" gradientUnits="userSpaceOnUse">
<stop stop-color="white" stop-opacity="0"/>
<stop offset="1" stop-color="white"/>
</linearGradient>
<linearGradient id="paint16_linear" x1="636" y1="355.687" x2="636" y2="252.354" gradientUnits="userSpaceOnUse">
<stop stop-color="white" stop-opacity="0"/>
<stop offset="1" stop-color="white"/>
</linearGradient>
<linearGradient id="paint17_linear" x1="636" y1="355.687" x2="636" y2="252.354" gradientUnits="userSpaceOnUse">
<stop stop-color="white" stop-opacity="0"/>
<stop offset="1" stop-color="white"/>
</linearGradient>
<linearGradient id="paint18_linear" x1="636" y1="355.687" x2="636" y2="252.354" gradientUnits="userSpaceOnUse">
<stop stop-color="white" stop-opacity="0"/>
<stop offset="1" stop-color="white"/>
</linearGradient>
<linearGradient id="paint19_linear" x1="636" y1="355.687" x2="636" y2="252.354" gradientUnits="userSpaceOnUse">
<stop stop-color="white" stop-opacity="0"/>
<stop offset="1" stop-color="white"/>
</linearGradient>
<linearGradient id="paint20_linear" x1="636" y1="355.687" x2="636" y2="252.354" gradientUnits="userSpaceOnUse">
<stop stop-color="white" stop-opacity="0"/>
<stop offset="1" stop-color="white"/>
</linearGradient>
<linearGradient id="paint21_linear" x1="636" y1="355.687" x2="636" y2="252.354" gradientUnits="userSpaceOnUse">
<stop stop-color="white" stop-opacity="0"/>
<stop offset="1" stop-color="white"/>
</linearGradient>
</defs>
</svg>
