<svg width="16" height="16" viewBox="0 0 16 16" fill="none" xmlns="http://www.w3.org/2000/svg">
<path fill-rule="evenodd" clip-rule="evenodd" d="M1.332 14H7.99867C11.6747 14 14.6653 11.3087 14.6653 8C14.6653 4.69133 11.6747 2 7.99867 2C4.32267 2 1.332 4.69133 1.332 8C1.332 9.15667 1.69267 10.2613 2.38133 11.224L0.844 12.88C0.663334 13.074 0.615334 13.3567 0.721333 13.6C0.826667 13.8427 1.06667 14 1.332 14ZM7.99867 12.6667H2.86067L3.746 11.7133C3.978 11.4633 3.984 11.0787 3.76 10.8213C3.044 10 2.66533 9.02467 2.66533 8C2.66533 5.42733 5.058 3.33333 7.99867 3.33333C10.9393 3.33333 13.332 5.42733 13.332 8C13.332 10.5733 10.9393 12.6667 7.99867 12.6667Z" fill="#757575"/>
</svg>
