<svg width="17" height="18" viewBox="0 0 17 18" fill="none" xmlns="http://www.w3.org/2000/svg">
<path d="M15.9999 0.428589H5.9999V5.00002H4.14275L0.428467 6.42859V18H6.9999V17.5714H15.9999V0.428589Z" fill="white"/>
<path d="M16.0001 18C15.7572 18 15.5715 17.8143 15.5715 17.5714V0.857143H6.42868V17.5714C6.42868 17.8143 6.24296 18 6.0001 18C5.75725 18 5.57153 17.8143 5.57153 17.5714V0.428571C5.57153 0.185714 5.75725 0 6.0001 0H16.0001C16.243 0 16.4287 0.185714 16.4287 0.428571V17.5714C16.4287 17.8143 16.243 18 16.0001 18Z" fill="#444B54"/>
<path d="M11.4288 18H10.5716C10.3288 18 10.1431 17.8143 10.1431 17.5714V15C10.1431 14.7571 10.3288 14.5714 10.5716 14.5714H11.4288C11.6716 14.5714 11.8574 14.7571 11.8574 15V17.5714C11.8574 17.8143 11.6716 18 11.4288 18Z" fill="#444B54"/>
<path d="M3.71394 18H2.85679C2.61394 18 2.42822 17.8143 2.42822 17.5714V15C2.42822 14.7571 2.61394 14.5714 2.85679 14.5714H3.71394C3.95679 14.5714 4.14251 14.7571 4.14251 15V17.5714C4.14251 17.8143 3.95679 18 3.71394 18Z" fill="#444B54"/>
<path d="M0.428571 17.9999C0.185714 17.9999 0 17.8142 0 17.5713V6.42848C0 6.25706 0.114286 6.08563 0.271428 6.02848L3.98571 4.59991C4.2 4.5142 4.45714 4.62848 4.54286 4.84277C4.62857 5.05706 4.51429 5.3142 4.3 5.39991L0.857143 6.72848V17.5713C0.857143 17.8142 0.671429 17.9999 0.428571 17.9999Z" fill="#444B54"/>
<path d="M13.4285 6.85705C13.3999 6.85705 13.3713 6.85705 13.3427 6.84276C13.3142 6.84276 13.2856 6.82848 13.257 6.81419C13.2285 6.79991 13.2142 6.78562 13.1856 6.77134C13.157 6.75705 13.1427 6.74276 13.1142 6.71419C13.0285 6.62848 12.9856 6.52848 12.9856 6.41419C12.9856 6.38562 12.9856 6.35705 12.9999 6.32848C12.9999 6.29991 13.0142 6.27134 13.0285 6.24276C13.0427 6.21419 13.057 6.19991 13.0713 6.17134C13.0856 6.14276 13.0999 6.12848 13.1285 6.09991C13.157 6.07134 13.1713 6.05705 13.1999 6.04276C13.2285 6.02848 13.2427 6.01419 13.2713 5.99991C13.2999 5.98562 13.3285 5.98562 13.357 5.97134C13.4999 5.94276 13.6427 5.98562 13.7427 6.08562C13.757 6.09991 13.7856 6.12848 13.7999 6.15705C13.8142 6.18562 13.8285 6.19991 13.8427 6.22848C13.857 6.25705 13.857 6.28562 13.8713 6.31419C13.8713 6.34276 13.8856 6.37134 13.8856 6.39991C13.8856 6.51419 13.8427 6.62848 13.757 6.69991C13.7427 6.71419 13.7142 6.74276 13.6999 6.75705C13.6713 6.77134 13.657 6.78562 13.6285 6.79991C13.5999 6.81419 13.5713 6.81419 13.5427 6.82848C13.4856 6.85705 13.457 6.85705 13.4285 6.85705Z" fill="#71C2FF"/>
<path d="M10.5715 6.42845C10.5715 6.18559 10.7572 5.99988 11.0001 5.99988C11.243 5.99988 11.4287 6.18559 11.4287 6.42845C11.4287 6.67131 11.243 6.85702 11.0001 6.85702C10.7572 6.85702 10.5715 6.67131 10.5715 6.42845Z" fill="#71C2FF"/>
<path d="M8.57139 6.85704C8.45711 6.85704 8.34282 6.81419 8.27139 6.72847C8.18568 6.65704 8.14282 6.54276 8.14282 6.42847C8.14282 6.3999 8.14282 6.37133 8.15711 6.34276C8.15711 6.31419 8.17139 6.28561 8.18568 6.25704C8.19997 6.22847 8.21425 6.21419 8.22854 6.18561C8.24282 6.15704 8.25711 6.14276 8.28568 6.11419C8.38568 6.01419 8.52854 5.97133 8.67139 5.9999C8.69996 5.9999 8.72854 6.01419 8.75711 6.02847C8.78568 6.04276 8.81425 6.05704 8.82854 6.07133C8.85711 6.08561 8.87139 6.0999 8.88568 6.12847C8.89996 6.14276 8.92854 6.17133 8.94282 6.1999C8.95711 6.22847 8.97139 6.24276 8.98568 6.27133C8.99997 6.2999 8.99996 6.32847 9.01425 6.35704C9.01425 6.38561 9.02854 6.41419 9.02854 6.44276C9.02854 6.55704 8.98568 6.67133 8.89997 6.74276C8.88568 6.75704 8.85711 6.78561 8.84282 6.7999C8.81425 6.81419 8.79997 6.82847 8.77139 6.84276C8.74282 6.85704 8.71425 6.85704 8.68568 6.87133C8.62854 6.85704 8.59997 6.85704 8.57139 6.85704Z" fill="#71C2FF"/>
<path d="M13.4288 4.71435C13.4003 4.71435 13.3717 4.71435 13.3431 4.70007C13.3145 4.70007 13.286 4.68578 13.2574 4.6715C13.2288 4.65721 13.2145 4.64292 13.186 4.62864C13.1574 4.61435 13.1431 4.60007 13.1145 4.5715C13.1003 4.55721 13.0717 4.52864 13.0574 4.50007C13.0431 4.4715 13.0288 4.45721 13.0145 4.42864C13.0003 4.40007 13.0003 4.3715 12.986 4.34292C12.986 4.31435 12.9717 4.28578 12.9717 4.25721C12.9717 4.22864 12.9717 4.20007 12.986 4.1715C12.986 4.14292 13.0003 4.11435 13.0145 4.08578C13.0288 4.05721 13.0431 4.04292 13.0574 4.01435C13.0717 3.98578 13.086 3.9715 13.1145 3.94292C13.1431 3.91435 13.1574 3.90007 13.186 3.88578C13.2145 3.8715 13.2288 3.85721 13.2574 3.84292C13.286 3.82864 13.3145 3.82864 13.3431 3.81435C13.486 3.78578 13.6288 3.82864 13.7288 3.92864C13.8145 4.01435 13.8574 4.11435 13.8574 4.22864C13.8574 4.25721 13.8574 4.28578 13.8431 4.31435C13.8431 4.34292 13.8288 4.3715 13.8145 4.40007C13.8003 4.42864 13.786 4.45721 13.7717 4.4715C13.7574 4.50007 13.7431 4.51435 13.7145 4.54292C13.7003 4.55721 13.6717 4.58578 13.6574 4.60007C13.6288 4.61435 13.6145 4.62864 13.586 4.64292C13.5574 4.65721 13.5288 4.65721 13.5003 4.6715C13.486 4.71435 13.4574 4.71435 13.4288 4.71435Z" fill="#71C2FF"/>
<path d="M10.5715 4.28575C10.5715 4.04289 10.7572 3.85718 11.0001 3.85718C11.243 3.85718 11.4287 4.04289 11.4287 4.28575C11.4287 4.52861 11.243 4.71432 11.0001 4.71432C10.7572 4.71432 10.5715 4.52861 10.5715 4.28575Z" fill="#71C2FF"/>
<path d="M8.57139 4.71434C8.45711 4.71434 8.34282 4.67148 8.27139 4.58577C8.18568 4.51434 8.14282 4.40005 8.14282 4.28577C8.14282 4.17148 8.18568 4.0572 8.27139 3.98577C8.37139 3.88577 8.51425 3.84291 8.65711 3.87148C8.68568 3.87148 8.71425 3.88577 8.74282 3.90005C8.77139 3.91434 8.79996 3.92863 8.81425 3.94291C8.84282 3.9572 8.85711 3.97148 8.87139 4.00005C8.95711 4.08577 8.99997 4.18577 8.99997 4.30005C8.99997 4.41434 8.95711 4.52863 8.87139 4.60005C8.85711 4.61434 8.82854 4.64291 8.81425 4.6572C8.78568 4.67148 8.77139 4.68577 8.74282 4.70005C8.71425 4.71434 8.68568 4.71434 8.65711 4.72862C8.62854 4.71434 8.59997 4.71434 8.57139 4.71434Z" fill="#71C2FF"/>
<path d="M13.4283 9.00007C13.3998 9.00007 13.3712 9.00007 13.3426 8.98578C13.314 8.98578 13.2855 8.9715 13.2569 8.95721C13.2283 8.94292 13.214 8.92864 13.1855 8.91435C13.1569 8.90007 13.1426 8.88578 13.114 8.85721C13.0998 8.84292 13.0712 8.81435 13.0569 8.80007C13.0426 8.77149 13.0283 8.75721 13.014 8.72864C12.9998 8.70007 12.9998 8.67149 12.9855 8.64292C12.9855 8.61435 12.9712 8.58578 12.9712 8.55721C12.9712 8.52864 12.9712 8.50007 12.9855 8.47149C12.9855 8.44292 12.9998 8.41435 13.014 8.38578C13.0283 8.35721 13.0426 8.34292 13.0569 8.31435C13.0712 8.28578 13.0855 8.2715 13.114 8.24292C13.1426 8.21435 13.1569 8.20007 13.1855 8.18578C13.214 8.17149 13.2283 8.15721 13.2569 8.14292C13.2855 8.12864 13.314 8.12864 13.3426 8.11435C13.3998 8.10007 13.4569 8.10007 13.514 8.11435C13.5426 8.11435 13.5712 8.12864 13.5998 8.14292C13.6283 8.15721 13.6569 8.17149 13.6712 8.18578C13.6998 8.20007 13.714 8.21435 13.7283 8.24292C13.7426 8.25721 13.7712 8.28578 13.7855 8.31435C13.7998 8.34292 13.814 8.35721 13.8283 8.38578C13.8426 8.41435 13.8426 8.44292 13.8569 8.47149C13.8569 8.50007 13.8712 8.52864 13.8712 8.55721C13.8712 8.6715 13.8283 8.78578 13.7426 8.85721C13.6569 8.95721 13.5426 9.00007 13.4283 9.00007Z" fill="#71C2FF"/>
<path d="M10.5713 8.57139C10.5713 8.32854 10.757 8.14282 10.9999 8.14282C11.2427 8.14282 11.4284 8.32854 11.4284 8.57139C11.4284 8.81425 11.2427 8.99997 10.9999 8.99997C10.757 8.99997 10.5713 8.81425 10.5713 8.57139Z" fill="#71C2FF"/>
<path d="M8.57127 8.99998C8.45699 8.99998 8.3427 8.95713 8.27128 8.87141C8.25699 8.85713 8.22842 8.82856 8.21413 8.81427C8.19985 8.7857 8.18556 8.77141 8.17127 8.74284C8.15699 8.71427 8.15699 8.6857 8.1427 8.65713C8.1427 8.62856 8.12842 8.59998 8.12842 8.57141C8.12842 8.45713 8.17128 8.34284 8.25699 8.27141C8.35699 8.17141 8.49985 8.12856 8.6427 8.15713C8.67127 8.15713 8.69985 8.17141 8.72842 8.1857C8.75699 8.19998 8.78556 8.21427 8.79985 8.22856C8.82842 8.24284 8.8427 8.25713 8.85699 8.2857C8.9427 8.37141 8.98556 8.47141 8.98556 8.5857C8.98556 8.61427 8.98556 8.64284 8.97128 8.67141C8.97128 8.69998 8.95699 8.72856 8.9427 8.75713C8.92842 8.7857 8.91413 8.81427 8.89985 8.82856C8.88556 8.85713 8.87128 8.87141 8.8427 8.8857C8.82842 8.89998 8.79985 8.92856 8.78556 8.94284C8.75699 8.95713 8.7427 8.97141 8.71413 8.9857C8.68556 8.99998 8.65699 8.99998 8.62842 9.01427C8.62842 8.99998 8.59985 8.99998 8.57127 8.99998Z" fill="#71C2FF"/>
<path d="M13.4285 11.1429C13.3142 11.1429 13.1999 11.1001 13.1285 11.0144C13.1142 11.0001 13.0856 10.9715 13.0713 10.9572C13.057 10.9287 13.0427 10.9144 13.0285 10.8858C13.0142 10.8572 13.0142 10.8287 12.9999 10.8001C12.9999 10.7715 12.9856 10.7429 12.9856 10.7144C12.9856 10.6858 12.9856 10.6572 12.9999 10.6287C12.9999 10.6001 13.0142 10.5715 13.0285 10.5429C13.0427 10.5144 13.057 10.5001 13.0713 10.4715C13.0856 10.4429 13.0999 10.4287 13.1285 10.4001C13.2856 10.2429 13.5713 10.2429 13.7285 10.4001C13.7427 10.4144 13.7713 10.4429 13.7856 10.4715C13.7999 10.5001 13.8142 10.5144 13.8285 10.5429C13.8427 10.5715 13.8427 10.6001 13.857 10.6287C13.857 10.6572 13.8713 10.6858 13.8713 10.7144C13.8713 10.7429 13.8713 10.7715 13.857 10.8001C13.857 10.8287 13.8427 10.8572 13.8285 10.8858C13.8142 10.9144 13.7999 10.9429 13.7856 10.9572C13.7713 10.9858 13.757 11.0001 13.7285 11.0144C13.657 11.1001 13.5427 11.1429 13.4285 11.1429Z" fill="#71C2FF"/>
<path d="M10.5715 10.7142C10.5715 10.4714 10.7572 10.2856 11.0001 10.2856C11.243 10.2856 11.4287 10.4714 11.4287 10.7142C11.4287 10.9571 11.243 11.1428 11.0001 11.1428C10.7572 11.1428 10.5715 10.9571 10.5715 10.7142Z" fill="#71C2FF"/>
<path d="M8.57139 11.1429C8.45711 11.1429 8.34282 11.1001 8.27139 11.0144C8.18568 10.9429 8.14282 10.8286 8.14282 10.7144C8.14282 10.6001 8.18568 10.4858 8.27139 10.4144C8.37139 10.3144 8.51425 10.2715 8.65711 10.3001C8.68568 10.3001 8.71425 10.3144 8.74282 10.3286C8.77139 10.3429 8.79996 10.3572 8.81425 10.3715C8.84282 10.3858 8.85711 10.4001 8.87139 10.4286C8.95711 10.5144 8.99997 10.6144 8.99997 10.7286C8.99997 10.8429 8.95711 10.9572 8.87139 11.0286C8.85711 11.0429 8.82854 11.0715 8.81425 11.0858C8.78568 11.1001 8.77139 11.1144 8.74282 11.1286C8.71425 11.1429 8.68568 11.1429 8.65711 11.1572C8.62854 11.1429 8.59997 11.1429 8.57139 11.1429Z" fill="#71C2FF"/>
<path d="M13.4282 13.2858C13.3139 13.2858 13.1996 13.2429 13.1282 13.1572C13.1139 13.1429 13.0854 13.1143 13.0711 13.1C13.0568 13.0715 13.0425 13.0572 13.0282 13.0286C13.0139 13 13.0139 12.9715 12.9996 12.9429C12.9996 12.9143 12.9854 12.8858 12.9854 12.8572C12.9854 12.8286 12.9854 12.8 12.9996 12.7715C12.9996 12.7429 13.0139 12.7143 13.0282 12.6858C13.0425 12.6572 13.0568 12.6429 13.0711 12.6143C13.0854 12.5858 13.0996 12.5715 13.1282 12.5429C13.2854 12.3858 13.5711 12.3858 13.7282 12.5429C13.8139 12.6286 13.8568 12.7286 13.8568 12.8429C13.8568 12.8715 13.8568 12.9 13.8425 12.9286C13.8425 12.9572 13.8282 12.9858 13.8139 13.0143C13.7996 13.0429 13.7854 13.0715 13.7711 13.0858C13.7568 13.1143 13.7425 13.1286 13.7139 13.1429C13.6568 13.2429 13.5425 13.2858 13.4282 13.2858Z" fill="#71C2FF"/>
<path d="M10.5713 12.8572C10.5713 12.6143 10.757 12.4286 10.9999 12.4286C11.2427 12.4286 11.4284 12.6143 11.4284 12.8572C11.4284 13.1 11.2427 13.2857 10.9999 13.2857C10.757 13.2857 10.5713 13.1 10.5713 12.8572Z" fill="#71C2FF"/>
<path d="M8.57115 13.2858C8.45686 13.2858 8.34258 13.2429 8.27115 13.1572C8.18544 13.0858 8.14258 12.9715 8.14258 12.8572C8.14258 12.8286 8.14258 12.8 8.15686 12.7715C8.15686 12.7429 8.17115 12.7143 8.18544 12.6858C8.19972 12.6572 8.21401 12.6429 8.22829 12.6143C8.24258 12.5858 8.25686 12.5715 8.28544 12.5429C8.38544 12.4429 8.52829 12.4 8.67115 12.4286C8.69972 12.4286 8.72829 12.4429 8.75686 12.4572C8.78544 12.4715 8.81401 12.4858 8.82829 12.5C8.85686 12.5143 8.87115 12.5286 8.88543 12.5572C8.89972 12.5715 8.92829 12.6 8.94258 12.6286C8.95686 12.6572 8.97115 12.6715 8.98544 12.7C8.99972 12.7286 8.99972 12.7572 9.01401 12.7858C9.01401 12.8143 9.02829 12.8429 9.02829 12.8715C9.02829 12.9858 8.98544 13.1 8.89972 13.1715C8.79972 13.2429 8.68544 13.2858 8.57115 13.2858Z" fill="#71C2FF"/>
<path d="M13.4285 15.4286C13.3142 15.4286 13.1999 15.3857 13.1285 15.3C13.1142 15.2857 13.0856 15.2571 13.0713 15.2429C13.057 15.2143 13.0427 15.2 13.0285 15.1714C13.0142 15.1429 13.0142 15.1143 12.9999 15.0857C12.9999 15.0571 12.9856 15.0286 12.9856 15C12.9856 14.9714 12.9856 14.9429 12.9999 14.9143C12.9999 14.8857 13.0142 14.8571 13.0285 14.8286C13.0427 14.8 13.057 14.7857 13.0713 14.7571C13.0856 14.7286 13.0999 14.7143 13.1285 14.7C13.157 14.6857 13.1713 14.6571 13.1999 14.6429C13.2285 14.6286 13.2427 14.6143 13.2713 14.6C13.2999 14.5857 13.3285 14.5857 13.357 14.5714C13.4999 14.5429 13.6427 14.5857 13.7427 14.6857C13.757 14.7 13.7856 14.7286 13.7999 14.7429C13.8142 14.7714 13.8285 14.7857 13.8427 14.8143C13.857 14.8429 13.857 14.8714 13.8713 14.9C13.8713 14.9286 13.8856 14.9571 13.8856 14.9857C13.8856 15.0143 13.8856 15.0429 13.8713 15.0714C13.8713 15.1 13.857 15.1286 13.8427 15.1571C13.8285 15.1857 13.8142 15.2143 13.7999 15.2286C13.7856 15.2571 13.7713 15.2714 13.7427 15.2857C13.657 15.3857 13.5427 15.4286 13.4285 15.4286Z" fill="#71C2FF"/>
<path d="M8.57139 15.4286C8.45711 15.4286 8.34282 15.3857 8.27139 15.3C8.18568 15.2143 8.14282 15.1143 8.14282 15C8.14282 14.8857 8.18568 14.7714 8.27139 14.7C8.37139 14.6 8.51425 14.5571 8.65711 14.5857C8.68568 14.5857 8.71425 14.6 8.74282 14.6143C8.77139 14.6286 8.79996 14.6429 8.81425 14.6571C8.84282 14.6714 8.85711 14.6857 8.87139 14.7143C8.95711 14.8 8.99997 14.9 8.99997 15.0143C8.99997 15.1286 8.95711 15.2429 8.87139 15.3143C8.85711 15.3286 8.82854 15.3571 8.81425 15.3714C8.78568 15.3857 8.77139 15.4 8.74282 15.4143C8.71425 15.4286 8.68568 15.4286 8.65711 15.4429C8.62854 15.4286 8.59997 15.4286 8.57139 15.4286Z" fill="#71C2FF"/>
<path d="M3.28575 8.99999C3.17146 8.99999 3.05718 8.95713 2.98575 8.87142C2.90003 8.79999 2.85718 8.6857 2.85718 8.57142C2.85718 8.54284 2.85718 8.51427 2.87146 8.4857C2.87146 8.45713 2.88575 8.42856 2.90003 8.39999C2.91432 8.37142 2.92861 8.35713 2.94289 8.32856C2.95718 8.29999 2.97146 8.2857 3.00003 8.25713C3.10003 8.15713 3.24289 8.11427 3.38575 8.14284C3.41432 8.14284 3.44289 8.15713 3.47146 8.17142C3.50003 8.1857 3.52861 8.19999 3.54289 8.21427C3.57146 8.22856 3.58575 8.24284 3.61432 8.27142C3.62861 8.2857 3.65718 8.31427 3.67146 8.34284C3.68575 8.37142 3.70003 8.3857 3.71432 8.41427C3.72861 8.44284 3.72861 8.47142 3.74289 8.49999C3.74289 8.52856 3.75718 8.55713 3.75718 8.5857C3.75718 8.69999 3.71432 8.81427 3.62861 8.8857C3.61432 8.89999 3.58575 8.92856 3.55718 8.94284C3.52861 8.95713 3.51432 8.97142 3.48575 8.9857C3.45718 8.99999 3.42861 8.99999 3.40003 9.01427C3.34289 8.99999 3.31432 8.99999 3.28575 8.99999Z" fill="#71C2FF"/>
<path d="M3.28575 11.1429C3.17146 11.1429 3.05718 11.1001 2.98575 11.0144C2.90003 10.9429 2.85718 10.8286 2.85718 10.7144C2.85718 10.6858 2.85718 10.6572 2.87146 10.6286C2.87146 10.6001 2.88575 10.5715 2.90003 10.5429C2.91432 10.5144 2.92861 10.5001 2.94289 10.4715C2.95718 10.4429 2.97146 10.4286 3.00003 10.4001C3.10003 10.3001 3.24289 10.2572 3.38575 10.2858C3.41432 10.2858 3.44289 10.3001 3.47146 10.3144C3.50003 10.3286 3.52861 10.3429 3.54289 10.3572C3.57146 10.3715 3.58575 10.3858 3.61432 10.4144C3.62861 10.4286 3.65718 10.4572 3.67146 10.4858C3.68575 10.5144 3.70003 10.5286 3.71432 10.5572C3.72861 10.5858 3.72861 10.6144 3.74289 10.6429C3.74289 10.6715 3.75718 10.7001 3.75718 10.7286C3.75718 10.7572 3.75718 10.7858 3.74289 10.8144C3.74289 10.8429 3.72861 10.8715 3.71432 10.9001C3.70003 10.9286 3.68575 10.9572 3.67146 10.9715C3.65718 11.0001 3.64289 11.0144 3.61432 11.0286C3.60003 11.0429 3.57146 11.0715 3.54289 11.0858C3.51432 11.1001 3.50003 11.1144 3.47146 11.1286C3.44289 11.1429 3.41432 11.1429 3.38575 11.1572C3.34289 11.1429 3.31432 11.1429 3.28575 11.1429Z" fill="#71C2FF"/>
<path d="M3.28563 13.2858C3.17134 13.2858 3.05706 13.2429 2.98563 13.1572C2.97134 13.1429 2.94277 13.1143 2.92849 13.1C2.9142 13.0715 2.89992 13.0572 2.88563 13.0286C2.87135 13 2.87134 12.9715 2.85706 12.9429C2.85706 12.9143 2.84277 12.8858 2.84277 12.8572C2.84277 12.8286 2.84277 12.8 2.85706 12.7715C2.85706 12.7429 2.87135 12.7143 2.88563 12.6858C2.89992 12.6572 2.9142 12.6429 2.92849 12.6143C2.94277 12.5858 2.95706 12.5715 2.98563 12.5429C3.08563 12.4429 3.22849 12.4 3.37134 12.4286C3.39992 12.4286 3.42849 12.4429 3.45706 12.4572C3.48563 12.4715 3.5142 12.4858 3.52849 12.5C3.55706 12.5143 3.57134 12.5286 3.59992 12.5572C3.6142 12.5715 3.64277 12.6 3.65706 12.6286C3.67134 12.6572 3.68563 12.6715 3.69992 12.7C3.7142 12.7286 3.7142 12.7572 3.72849 12.7858C3.72849 12.8143 3.74277 12.8429 3.74277 12.8715C3.74277 12.9 3.74277 12.9286 3.72849 12.9572C3.72849 12.9858 3.7142 13.0143 3.69992 13.0429C3.68563 13.0715 3.67134 13.1 3.65706 13.1143C3.64277 13.1429 3.62849 13.1572 3.59992 13.1715C3.58563 13.1858 3.55706 13.2143 3.52849 13.2286C3.49992 13.2429 3.48563 13.2572 3.45706 13.2715C3.42849 13.2858 3.39992 13.2858 3.37134 13.3C3.34277 13.2858 3.3142 13.2858 3.28563 13.2858Z" fill="#71C2FF"/>
</svg>
