<svg width="30" height="30" viewBox="0 0 30 30" fill="none" xmlns="http://www.w3.org/2000/svg">
<path fill-rule="evenodd" clip-rule="evenodd" d="M15 30C23.2843 30 30 23.2843 30 15C30 6.71573 23.2843 0 15 0C6.71573 0 0 6.71573 0 15C0 23.2843 6.71573 30 15 30Z" fill="url(#paint0_linear)"/>
<path fill-rule="evenodd" clip-rule="evenodd" d="M18.1529 7.19995H11.8475C9.28497 7.19995 7.2002 9.28473 7.2002 11.8473V18.1526C7.2002 20.7152 9.28497 22.8 11.8475 22.8H18.1529C20.7154 22.8 22.8002 20.7152 22.8002 18.1526V11.8473C22.8002 9.28473 20.7154 7.19995 18.1529 7.19995ZM21.2308 18.1526C21.2308 19.8525 19.8527 21.2306 18.1528 21.2306H11.8475C10.1476 21.2306 8.76953 19.8525 8.76953 18.1526V11.8473C8.76953 10.1474 10.1476 8.76932 11.8475 8.76932H18.1528C19.8527 8.76932 21.2308 10.1474 21.2308 11.8473V18.1526ZM10.9653 14.9999C10.9653 12.7752 12.7753 10.9652 15 10.9652C17.2248 10.9652 19.0348 12.7752 19.0348 14.9999C19.0348 17.2247 17.2248 19.0346 15 19.0346C12.7753 19.0346 10.9653 17.2246 10.9653 14.9999ZM15 17.4653C13.6384 17.4653 12.5347 16.3615 12.5347 14.9999C12.5347 13.6384 13.6385 12.5346 15 12.5346C16.3616 12.5346 17.4654 13.6384 17.4654 14.9999C17.4654 16.3615 16.3616 17.4653 15 17.4653ZM20.0093 10.9955C20.0093 11.5295 19.5764 11.9623 19.0425 11.9623C18.5085 11.9623 18.0757 11.5295 18.0757 10.9955C18.0757 10.4616 18.5085 10.0287 19.0425 10.0287C19.5764 10.0287 20.0093 10.4616 20.0093 10.9955Z" fill="white"/>
<defs>
<linearGradient id="paint0_linear" x1="0.100231" y1="-0.0501153" x2="4.68378e-07" y2="29.9499" gradientUnits="userSpaceOnUse">
<stop stop-color="#7024C4"/>
<stop offset="0.415461" stop-color="#C21975"/>
<stop offset="0.702206" stop-color="#C74C4D"/>
<stop offset="1" stop-color="#E09B3D"/>
</linearGradient>
</defs>
</svg>
