<svg width="30" height="30" viewBox="0 0 30 30" fill="none" xmlns="http://www.w3.org/2000/svg">
<path fill-rule="evenodd" clip-rule="evenodd" d="M15 30C23.2843 30 30 23.2843 30 15C30 6.71573 23.2843 0 15 0C6.71573 0 0 6.71573 0 15C0 23.2843 6.71573 30 15 30Z" fill="#2AA3EF"/>
<path fill-rule="evenodd" clip-rule="evenodd" d="M21.5999 10.8784C21.1146 11.0952 20.5919 11.2418 20.0444 11.3082C20.6036 10.9703 21.033 10.4364 21.2349 9.79991C20.7115 10.1124 20.1322 10.3392 19.5148 10.4611C19.0209 9.93106 18.3174 9.6001 17.5385 9.6001C16.0428 9.6001 14.8298 10.8206 14.8298 12.3265C14.8298 12.541 14.8547 12.7485 14.9005 12.9483C12.65 12.8349 10.655 11.7487 9.31935 10.0992C9.08561 10.502 8.95281 10.9703 8.95281 11.4702C8.95281 12.416 9.43118 13.2508 10.1573 13.7391C9.71307 13.7252 9.29528 13.6026 8.93107 13.3981C8.93107 13.4097 8.93107 13.4213 8.93107 13.4328C8.93107 14.7536 9.86372 15.8553 11.1031 16.106C10.8756 16.1685 10.6372 16.2017 10.3895 16.2017C10.2155 16.2017 10.0454 16.1847 9.88003 16.1523C10.2248 17.2355 11.225 18.0239 12.4101 18.0463C11.4829 18.7769 10.3149 19.2128 9.046 19.2128C8.82779 19.2128 8.6119 19.2004 8.3999 19.175C9.59814 19.9488 11.0216 20.4001 12.5514 20.4001C17.5323 20.4001 20.2564 16.2457 20.2564 12.6428C20.2564 12.524 20.2533 12.4075 20.2487 12.2903C20.7775 11.9061 21.2372 11.4254 21.5999 10.8792V10.8784Z" fill="white"/>
</svg>
