<svg width="30" height="30" viewBox="0 0 30 30" fill="none" xmlns="http://www.w3.org/2000/svg">
<path fill-rule="evenodd" clip-rule="evenodd" d="M15 30C23.2843 30 30 23.2843 30 15C30 6.71573 23.2843 0 15 0C6.71573 0 0 6.71573 0 15C0 23.2843 6.71573 30 15 30Z" fill="#0288D1"/>
<path d="M11.8125 10.7917H9V20.0001H11.8125V10.7917Z" fill="white"/>
<path d="M10.3978 9.70833H10.3821C9.54281 9.70833 9 9.106 9 8.35362C9 7.585 9.55969 7 10.4141 7C11.2697 7 11.7968 7.585 11.8125 8.35362C11.8125 9.10546 11.2697 9.70833 10.3978 9.70833Z" fill="white"/>
<path d="M22.5 20.0001H19.6875V15.0715C19.6875 13.8809 18.9984 13.0684 17.892 13.0684C17.0477 13.0684 16.5909 13.6165 16.3693 14.1463C16.2883 14.3359 16.3125 14.8602 16.3125 15.1251V20.0001H13.5V10.7917H16.3125V12.2087C16.7181 11.6042 17.3531 10.7917 18.9776 10.7917C20.9903 10.7917 22.4994 12.0105 22.4994 14.7318L22.5 20.0001Z" fill="white"/>
</svg>
