<svg width="24" height="24" viewBox="0 0 24 24" fill="none" xmlns="http://www.w3.org/2000/svg">
<g opacity="0.6">
<path fill-rule="evenodd" clip-rule="evenodd" d="M7.65625 16.6562V8.65625H15.6562V16.6562C15.6562 17.0313 15.526 17.349 15.2656 17.6094C15.0052 17.8698 14.6979 18 14.3438 18H9C8.625 18 8.30729 17.8698 8.04688 17.6094C7.78646 17.349 7.65625 17.0313 7.65625 16.6562ZM16.3438 6.65625V8H7V6.65625H9.34375L10 6H13.3438L14 6.65625H16.3438Z" fill="#333333"/>
<mask id="mask0" mask-type="alpha" maskUnits="userSpaceOnUse" x="7" y="6" width="10" height="12">
<path fill-rule="evenodd" clip-rule="evenodd" d="M7.65625 16.6562V8.65625H15.6562V16.6562C15.6562 17.0313 15.526 17.349 15.2656 17.6094C15.0052 17.8698 14.6979 18 14.3438 18H9C8.625 18 8.30729 17.8698 8.04688 17.6094C7.78646 17.349 7.65625 17.0313 7.65625 16.6562ZM16.3438 6.65625V8H7V6.65625H9.34375L10 6H13.3438L14 6.65625H16.3438Z" fill="white"/>
</mask>
<g mask="url(#mask0)">
<rect x="-24" y="-24" width="72" height="72" fill="#333333"/>
</g>
</g>
</svg>
