<svg width="12" height="12" viewBox="0 0 12 12" fill="none" xmlns="http://www.w3.org/2000/svg">
<path d="M4.80278 0L4.72654 0.385938L4.43685 1.79609C3.97182 1.97422 3.55253 2.22471 3.17136 2.52344L1.7534 2.04844L1.37222 1.92969L1.17401 2.27109L0.19821 3.90391L0 4.24531L0.289691 4.49766L1.38747 5.43281C1.34745 5.67588 1.29599 5.91895 1.29599 6.175C1.29599 6.43106 1.34745 6.67412 1.38747 6.91719L0.289691 7.85234L0 8.10469L0.19821 8.44609L1.17401 10.0789L1.37222 10.4203L1.7534 10.3016L3.17136 9.82656C3.55253 10.1253 3.97182 10.3758 4.43685 10.5539L4.72654 11.9641L4.80278 12.35H7.54722L7.62346 11.9641L7.91315 10.5539C8.37818 10.3758 8.79747 10.1253 9.17864 9.82656L10.5966 10.3016L10.9778 10.4203L11.176 10.0789L12.1518 8.44609L12.35 8.10469L12.0603 7.85234L10.9625 6.91719C11.0026 6.67412 11.054 6.43106 11.054 6.175C11.054 5.91895 11.0026 5.67588 10.9625 5.43281L12.0603 4.49766L12.35 4.24531L12.1518 3.90391L11.176 2.27109L10.9778 1.92969L10.5966 2.04844L9.17864 2.52344C8.79747 2.22471 8.37818 1.97422 7.91315 1.79609L7.62346 0.385938L7.54722 0H4.80278ZM5.59562 0.95H6.75438L6.99833 2.18203L7.05932 2.46406L7.33377 2.55313C7.88837 2.72197 8.39152 3.00771 8.81272 3.38438L9.02617 3.57734L9.30062 3.48828L10.5356 3.07266L11.115 4.0375L10.1392 4.88359L9.91049 5.06172L9.98673 5.34375C10.0496 5.61465 10.0782 5.89111 10.0782 6.175C10.0782 6.45889 10.0496 6.73535 9.98673 7.00625L9.92574 7.28828L10.1392 7.46641L11.115 8.3125L10.5356 9.27734L9.30062 8.86172L9.02617 8.77266L8.81272 8.96563C8.39152 9.34229 7.88837 9.62803 7.33377 9.79688L7.05932 9.88594L6.99833 10.168L6.75438 11.4H5.59562L5.35167 10.168L5.29068 9.88594L5.01623 9.79688C4.46163 9.62803 3.95848 9.34229 3.53728 8.96563L3.32383 8.77266L3.04938 8.86172L1.81438 9.27734L1.235 8.3125L2.2108 7.46641L2.43951 7.28828L2.36327 7.00625C2.30038 6.73535 2.27179 6.45889 2.27179 6.175C2.27179 5.89111 2.30038 5.61465 2.36327 5.34375L2.43951 5.06172L2.2108 4.88359L1.235 4.0375L1.81438 3.07266L3.04938 3.48828L3.32383 3.57734L3.53728 3.38438C3.95848 3.00771 4.46163 2.72197 5.01623 2.55313L5.29068 2.46406L5.35167 2.18203L5.59562 0.95ZM6.175 3.8C4.83327 3.8 3.73549 4.86875 3.73549 6.175C3.73549 7.48125 4.83327 8.55 6.175 8.55C7.51673 8.55 8.61451 7.48125 8.61451 6.175C8.61451 4.86875 7.51673 3.8 6.175 3.8ZM6.175 4.75C6.9888 4.75 7.6387 5.38272 7.6387 6.175C7.6387 6.96729 6.9888 7.6 6.175 7.6C5.3612 7.6 4.7113 6.96729 4.7113 6.175C4.7113 5.38272 5.3612 4.75 6.175 4.75Z" fill="white"/>
</svg>
