<!-- replaced svg to match figma ui spec -->
<svg width="18" height="4" viewBox="0 0 18 4" fill="none" xmlns="http://www.w3.org/2000/svg">
<path fill-rule="evenodd" clip-rule="evenodd" d="M1.5 3.33398C2.32843 3.33398 3 2.66241 3 1.83398C3 1.00556 2.32843 0.333984 1.5 0.333984C0.671573 0.333984 0 1.00556 0 1.83398C0 2.66241 0.671573 3.33398 1.5 3.33398Z" fill="#8190B0"/>
<path fill-rule="evenodd" clip-rule="evenodd" d="M9.5 3.33398C10.3284 3.33398 11 2.66241 11 1.83398C11 1.00556 10.3284 0.333984 9.5 0.333984C8.67157 0.333984 8 1.00556 8 1.83398C8 2.66241 8.67157 3.33398 9.5 3.33398Z" fill="#8190B0"/>
<path fill-rule="evenodd" clip-rule="evenodd" d="M16.5 3.33398C17.3284 3.33398 18 2.66241 18 1.83398C18 1.00556 17.3284 0.333984 16.5 0.333984C15.6716 0.333984 15 1.00556 15 1.83398C15 2.66241 15.6716 3.33398 16.5 3.33398Z" fill="#8190B0"/>
</svg>
