<svg width="16" height="16" viewBox="0 0 16 16" fill="none" xmlns="http://www.w3.org/2000/svg">
<path d="M8 0C7.1175 0 6.4 0.7175 6.4 1.6C6.4 2.4825 7.1175 3.2 8 3.2C8.8825 3.2 9.6 2.4825 9.6 1.6C9.6 0.7175 8.8825 0 8 0ZM6.53 3.28L4.42 6.52C4.23875 6.44875 4.04625 6.4 3.84 6.4C2.9575 6.4 2.24 7.1175 2.24 8C2.24 8.8825 2.9575 9.6 3.84 9.6C4.7225 9.6 5.44 8.8825 5.44 8C5.44 7.55375 5.255 7.15 4.96 6.86L7.06 3.63C6.86375 3.53875 6.69 3.42 6.53 3.28ZM9.47 3.28C9.31 3.42 9.13625 3.53875 8.94 3.63L11.04 6.86C10.745 7.15 10.56 7.55375 10.56 8C10.56 8.8825 11.2775 9.6 12.16 9.6C13.0425 9.6 13.76 8.8825 13.76 8C13.76 7.1175 13.0425 6.4 12.16 6.4C11.9537 6.4 11.7612 6.44875 11.58 6.52L9.47 3.28ZM2.81 9.99L1.83 12.82C1.75375 12.8088 1.67875 12.8 1.6 12.8C0.7175 12.8 0 13.5175 0 14.4C0 15.2825 0.7175 16 1.6 16C2.4825 16 3.2 15.2825 3.2 14.4C3.2 13.8237 2.8875 13.3225 2.43 13.04L3.42 10.2C3.20625 10.1587 2.9975 10.0875 2.81 9.99ZM4.87 9.99C4.6825 10.0875 4.47375 10.1587 4.26 10.2L5.26 13.03C4.79625 13.31 4.48 13.82 4.48 14.4C4.48 15.2825 5.1975 16 6.08 16C6.9625 16 7.68 15.2825 7.68 14.4C7.68 13.5175 6.9625 12.8 6.08 12.8C6.0075 12.8 5.94 12.81 5.87 12.82L4.87 9.99ZM11.13 9.99L10.13 12.82C10.06 12.81 9.9925 12.8 9.92 12.8C9.0375 12.8 8.32 13.5175 8.32 14.4C8.32 15.2825 9.0375 16 9.92 16C10.8025 16 11.52 15.2825 11.52 14.4C11.52 13.82 11.2037 13.31 10.74 13.03L11.74 10.2C11.5262 10.1587 11.3175 10.0875 11.13 9.99ZM13.19 9.99C13.0025 10.0875 12.7937 10.1587 12.58 10.2L13.57 13.04C13.1125 13.3225 12.8 13.8237 12.8 14.4C12.8 15.2825 13.5175 16 14.4 16C15.2825 16 16 15.2825 16 14.4C16 13.5175 15.2825 12.8 14.4 12.8C14.3212 12.8 14.2462 12.8088 14.17 12.82L13.19 9.99Z" fill="#444B54"/>
</svg>
