<svg width="24" height="24" viewBox="0 0 24 24" fill="none" xmlns="http://www.w3.org/2000/svg">
<g opacity="0.6">
<path fill-rule="evenodd" clip-rule="evenodd" d="M6 15.5L13.375 8.125L15.875 10.625L8.5 18H6V15.5ZM17.8125 8.6875L16.5938 9.90625L14.0938 7.40625L15.3125 6.1875C15.4375 6.0625 15.5937 6 15.7812 6C15.9688 6 16.125 6.0625 16.25 6.1875L17.8125 7.75C17.9375 7.875 18 8.03125 18 8.21875C18 8.40625 17.9375 8.5625 17.8125 8.6875Z" fill="#333333"/>
<mask id="mask0" mask-type="alpha" maskUnits="userSpaceOnUse" x="6" y="6" width="12" height="12">
<path fill-rule="evenodd" clip-rule="evenodd" d="M6 15.5L13.375 8.125L15.875 10.625L8.5 18H6V15.5ZM17.8125 8.6875L16.5938 9.90625L14.0938 7.40625L15.3125 6.1875C15.4375 6.0625 15.5937 6 15.7812 6C15.9688 6 16.125 6.0625 16.25 6.1875L17.8125 7.75C17.9375 7.875 18 8.03125 18 8.21875C18 8.40625 17.9375 8.5625 17.8125 8.6875Z" fill="white"/>
</mask>
<g mask="url(#mask0)">
<rect x="-24" y="-24" width="72" height="72" fill="#333333"/>
</g>
</g>
</svg>
