<svg width="3" height="11" viewBox="0 0 3 11" fill="none" xmlns="http://www.w3.org/2000/svg">
<path fill-rule="evenodd" clip-rule="evenodd" d="M1.32812 2.6875C0.96354 2.6875 0.651043 2.55729 0.390625 2.29688C0.130207 2.03646 0 1.71875 0 1.34375C0 0.968748 0.130207 0.651043 0.390625 0.390625C0.651043 0.130207 0.96354 0 1.32812 0C1.69271 0 2.00521 0.130207 2.26562 0.390625C2.52604 0.651043 2.65625 0.968748 2.65625 1.34375C2.65625 1.71875 2.52604 2.03646 2.26562 2.29688C2.00521 2.55729 1.69271 2.6875 1.32812 2.6875ZM1.32812 4C1.69271 4 2.00521 4.13021 2.26562 4.39062C2.52604 4.65104 2.65625 4.96875 2.65625 5.34375C2.65625 5.71875 2.52604 6.03646 2.26562 6.29688C2.00521 6.55729 1.69271 6.6875 1.32812 6.6875C0.96354 6.6875 0.651043 6.55729 0.390625 6.29688C0.130207 6.03646 0 5.71875 0 5.34375C0 4.96875 0.130207 4.65104 0.390625 4.39062C0.651043 4.13021 0.96354 4 1.32812 4ZM1.32812 8C1.69271 8 2.00521 8.13021 2.26562 8.39062C2.52604 8.65104 2.65625 8.96875 2.65625 9.34375C2.65625 9.71875 2.52604 10.0365 2.26562 10.2969C2.00521 10.5573 1.69271 10.6875 1.32812 10.6875C0.96354 10.6875 0.651043 10.5573 0.390625 10.2969C0.130207 10.0365 0 9.71875 0 9.34375C0 8.96875 0.130207 8.65104 0.390625 8.39062C0.651043 8.13021 0.96354 8 1.32812 8Z" fill="#333333"/>
<mask id="mask0" mask-type="alpha" maskUnits="userSpaceOnUse" x="0" y="0" width="3" height="11">
<path fill-rule="evenodd" clip-rule="evenodd" d="M1.32812 2.6875C0.96354 2.6875 0.651043 2.55729 0.390625 2.29688C0.130207 2.03646 0 1.71875 0 1.34375C0 0.968748 0.130207 0.651043 0.390625 0.390625C0.651043 0.130207 0.96354 0 1.32812 0C1.69271 0 2.00521 0.130207 2.26562 0.390625C2.52604 0.651043 2.65625 0.968748 2.65625 1.34375C2.65625 1.71875 2.52604 2.03646 2.26562 2.29688C2.00521 2.55729 1.69271 2.6875 1.32812 2.6875ZM1.32812 4C1.69271 4 2.00521 4.13021 2.26562 4.39062C2.52604 4.65104 2.65625 4.96875 2.65625 5.34375C2.65625 5.71875 2.52604 6.03646 2.26562 6.29688C2.00521 6.55729 1.69271 6.6875 1.32812 6.6875C0.96354 6.6875 0.651043 6.55729 0.390625 6.29688C0.130207 6.03646 0 5.71875 0 5.34375C0 4.96875 0.130207 4.65104 0.390625 4.39062C0.651043 4.13021 0.96354 4 1.32812 4ZM1.32812 8C1.69271 8 2.00521 8.13021 2.26562 8.39062C2.52604 8.65104 2.65625 8.96875 2.65625 9.34375C2.65625 9.71875 2.52604 10.0365 2.26562 10.2969C2.00521 10.5573 1.69271 10.6875 1.32812 10.6875C0.96354 10.6875 0.651043 10.5573 0.390625 10.2969C0.130207 10.0365 0 9.71875 0 9.34375C0 8.96875 0.130207 8.65104 0.390625 8.39062C0.651043 8.13021 0.96354 8 1.32812 8Z" fill="white"/>
</mask>
<g mask="url(#mask0)">
<rect x="-34" y="-31" width="72" height="72" fill="#333333"/>
</g>
</svg>
