<svg width="14" height="14" viewBox="0 0 14 14" fill="none" xmlns="http://www.w3.org/2000/svg">
<path d="M1.75 0.25C0.925 0.25 0.25 0.925 0.25 1.75V3.25C0.25 4.075 0.925 4.75 1.75 4.75H4.75L6.25 6.25V1.75C6.25 0.925 5.575 0.25 4.75 0.25H1.75ZM1.75 1.75H4.75V3.25H1.75V1.75ZM9.25 1.75C8.425 1.75 7.75 2.425 7.75 3.25V7.75L9.25 6.25H12.25C13.075 6.25 13.75 5.575 13.75 4.75V3.25C13.75 2.425 13.075 1.75 12.25 1.75H9.25ZM9.25 3.25H12.25V4.75H9.25V3.25ZM4.75 7C4.35218 7 3.97064 7.15804 3.68934 7.43934C3.40804 7.72064 3.25 8.10218 3.25 8.5C3.25 8.89782 3.40804 9.27936 3.68934 9.56066C3.97064 9.84196 4.35218 10 4.75 10C5.14782 10 5.52936 9.84196 5.81066 9.56066C6.09196 9.27936 6.25 8.89782 6.25 8.5C6.25 8.10218 6.09196 7.72064 5.81066 7.43934C5.52936 7.15804 5.14782 7 4.75 7ZM4.75 11.5C3.74875 11.5 1.75 12.0025 1.75 13V13.75H7.75V13C7.75 12.0025 5.75125 11.5 4.75 11.5Z" fill="white"/>
</svg>
