<svg width="25" height="7" viewBox="0 0 25 7" fill="none" xmlns="http://www.w3.org/2000/svg">
<path d="M2.88462 0.615387C1.29207 0.615387 0 1.90745 0 3.5C0 5.09255 1.29207 6.38462 2.88462 6.38462C4.47716 6.38462 5.76923 5.09255 5.76923 3.5C5.76923 1.90745 4.47716 0.615387 2.88462 0.615387ZM12.5 0.615387C10.9075 0.615387 9.61538 1.90745 9.61538 3.5C9.61538 5.09255 10.9075 6.38462 12.5 6.38462C14.0925 6.38462 15.3846 5.09255 15.3846 3.5C15.3846 1.90745 14.0925 0.615387 12.5 0.615387ZM22.1154 0.615387C20.5228 0.615387 19.2308 1.90745 19.2308 3.5C19.2308 5.09255 20.5228 6.38462 22.1154 6.38462C23.7079 6.38462 25 5.09255 25 3.5C25 1.90745 23.7079 0.615387 22.1154 0.615387Z" fill="#FFF"/>
</svg>
