<svg width="17" height="17" viewBox="0 0 17 17" fill="none" xmlns="http://www.w3.org/2000/svg">
<path d="M8.50005 0C3.81312 0 0 3.81312 0 8.50005C0 13.187 3.81312 17.0001 8.50005 17.0001C13.187 17.0001 17.0001 13.187 17.0001 8.50005C17.0001 3.81312 13.1869 0 8.50005 0ZM8.50005 15.5429C4.61668 15.5429 1.45717 12.3834 1.45717 8.50005C1.45717 4.61668 4.61668 1.45717 8.50005 1.45717C12.3834 1.45717 15.5429 4.61668 15.5429 8.50005C15.5429 12.3834 12.3833 15.5429 8.50005 15.5429Z" fill="#00BA00"/>
<path d="M12.8349 5.79684C12.5197 5.54687 12.0615 5.59907 11.8113 5.91499L8.45845 10.1422L6.45227 8.00205C6.17791 7.70798 5.71632 7.69423 5.42245 7.96839C5.12887 8.24402 5.11394 8.70502 5.38928 8.99821L7.97295 11.7546C8.11101 11.9021 8.30361 11.9851 8.5044 11.9851C8.51435 11.9851 8.5243 11.9851 8.53455 11.9846C8.74607 11.9757 8.94365 11.8751 9.07527 11.709L12.953 6.82003C13.2029 6.50508 13.1501 6.0469 12.8349 5.79684Z" fill="#00BA00"/>
</svg>
