<svg width="28" height="29" viewBox="0 0 28 29" fill="none" xmlns="http://www.w3.org/2000/svg">
<g filter="url(#filter0_d)">
<path d="M21.6628 1.84058C21.5339 1.82984 21.4049 1.82984 21.276 1.84774C19.1777 2.14495 14.6732 2.79306 10.0576 8.25009H8.14909C7.8304 8.25009 7.52604 8.37899 7.30404 8.60816L5.19857 10.8031C4.8584 11.1433 4.75456 11.6518 4.94075 12.0994C5.12337 12.547 5.55664 12.8334 6.04004 12.8334H8.29232C7.99154 13.1772 7.8304 13.5424 7.66211 13.9542C7.47233 14.4161 7.30404 14.921 7.16081 15.4008C6.87793 16.3604 6.68815 17.2162 6.68815 17.2162C6.62012 17.5242 6.71321 17.8429 6.93522 18.0649C7.15723 18.2869 7.47591 18.38 7.78385 18.3119C7.78385 18.3119 8.63965 18.1222 9.59928 17.8357C10.0791 17.6961 10.584 17.5278 11.0423 17.3416C11.4577 17.1697 11.8229 17.0086 12.1667 16.7042V18.9601C12.1667 19.4434 12.4531 19.8767 12.9007 20.0593C13.0511 20.1238 13.2087 20.1524 13.3662 20.1524C13.667 20.1524 13.9606 20.0378 14.1683 19.8337L16.3669 17.8285C16.6103 17.6065 16.75 17.2914 16.75 16.962V14.9425C22.207 10.3269 22.8551 5.82235 23.1523 3.72405C23.224 3.20484 23.0521 2.6928 22.6797 2.3204C22.404 2.0411 22.0423 1.87639 21.6628 1.84058ZM18.125 5.50009C18.8841 5.50009 19.5 6.11597 19.5 6.87509C19.5 7.6342 18.8841 8.25009 18.125 8.25009C17.3659 8.25009 16.75 7.6342 16.75 6.87509C16.75 6.11597 17.3659 5.50009 18.125 5.50009ZM14.4583 9.16676C15.2174 9.16676 15.8333 9.78264 15.8333 10.5418C15.8333 11.3009 15.2174 11.9168 14.4583 11.9168C13.6992 11.9168 13.0833 11.3009 13.0833 10.5418C13.0833 9.78264 13.6992 9.16676 14.4583 9.16676ZM10.0039 13.7L11.3001 14.9962L10.9814 15.3149C10.9993 15.297 10.7129 15.4939 10.3477 15.6443C9.97884 15.7947 9.52051 15.9487 9.0765 16.0811C8.96549 16.1134 8.97265 16.1062 8.86523 16.1349C8.89388 16.0274 8.88672 16.0346 8.92252 15.9236C9.05143 15.4796 9.2054 15.0212 9.35579 14.6524C9.50618 14.2872 9.70312 14.0007 9.68522 14.0186L10.0039 13.7Z" fill="#10389B"/>
</g>
<defs>
<filter id="filter0_d" x="-1" y="0" width="30" height="30" filterUnits="userSpaceOnUse" color-interpolation-filters="sRGB">
<feFlood flood-opacity="0" result="BackgroundImageFix"/>
<feColorMatrix in="SourceAlpha" type="matrix" values="0 0 0 0 0 0 0 0 0 0 0 0 0 0 0 0 0 0 127 0"/>
<feOffset dy="4"/>
<feGaussianBlur stdDeviation="2"/>
<feColorMatrix type="matrix" values="0 0 0 0 0 0 0 0 0 0 0 0 0 0 0 0 0 0 0.25 0"/>
<feBlend mode="normal" in2="BackgroundImageFix" result="effect1_dropShadow"/>
<feBlend mode="normal" in="SourceGraphic" in2="effect1_dropShadow" result="shape"/>
</filter>
</defs>
</svg>
