<svg width="16" height="16" viewBox="0 0 16 16" fill="none" xmlns="http://www.w3.org/2000/svg">
<path d="M8.51064 0L5.02128 3.89362H7.14894V5.25532H1.02128V6.2766H0V15.1277H14.6383V14.1064H16V5.25532H9.87234V3.89362H12L8.51064 0ZM3.59574 5.93617H13.4255C13.7646 5.93617 13.883 6.12367 14.0532 6.52128C14.1223 6.68218 14.1862 6.83511 14.2979 6.94681C14.4269 7.0758 14.621 7.14761 14.8191 7.2234C15.0944 7.32846 15.3191 7.42952 15.3191 7.55319V11.8085C15.3191 11.8564 15.3152 11.8657 15.2766 11.9043C15.2566 11.9242 15.2207 11.9441 15.1809 11.9681C15.1755 11.9707 15.1755 11.9761 15.1702 11.9787C15.1316 12 15.0904 12.0213 15.0426 12.0426C14.9362 12.0904 14.8178 12.141 14.6915 12.1915C14.6383 12.2128 14.5811 12.2314 14.5319 12.2553C14.5199 12.2606 14.512 12.2699 14.5 12.2766C14.4894 12.2819 14.4787 12.2912 14.4681 12.2979C14.4122 12.3285 14.3524 12.3604 14.2979 12.4149V12.4255C14.2726 12.4521 14.2447 12.4801 14.2234 12.5106C14.1543 12.6024 14.113 12.6981 14.0745 12.7872C14.0665 12.8045 14.0612 12.8218 14.0532 12.8404C14.0106 12.9402 13.9761 13.0226 13.9362 13.0957C13.9309 13.1064 13.9202 13.1183 13.9149 13.1277C13.887 13.1755 13.8577 13.2181 13.8298 13.2553C13.8218 13.2646 13.8165 13.2793 13.8085 13.2872C13.8032 13.2926 13.7926 13.2926 13.7872 13.2979C13.746 13.3378 13.7021 13.3723 13.6489 13.3936C13.6383 13.3976 13.629 13.4016 13.617 13.4043C13.5944 13.4109 13.5678 13.4109 13.5426 13.4149C13.5066 13.4202 13.4707 13.4255 13.4255 13.4255H3.59574C3.25665 13.4255 3.1383 13.2367 2.96809 12.8404C2.89894 12.6795 2.83511 12.5266 2.7234 12.4149C2.59441 12.2859 2.40027 12.2141 2.20213 12.1383C1.92686 12.0332 1.70213 11.9322 1.70213 11.8085V7.55319C1.70213 7.42952 1.92686 7.32846 2.20213 7.2234C2.40027 7.14761 2.59441 7.0758 2.7234 6.94681C2.83511 6.83511 2.89894 6.68218 2.96809 6.52128C3.1383 6.12367 3.25665 5.93617 3.59574 5.93617ZM8.51064 6.2766C6.82181 6.2766 5.44681 7.80319 5.44681 9.68085C5.44681 11.5585 6.82181 13.0851 8.51064 13.0851C10.1995 13.0851 11.5745 11.5585 11.5745 9.68085C11.5745 7.80319 10.1995 6.2766 8.51064 6.2766ZM0.680851 6.95745H1.02128V14.1064H13.9574V14.4468H0.680851V6.95745ZM3.57447 8.65957C3.10505 8.65957 2.7234 9.04122 2.7234 9.51064C2.7234 9.98005 3.10505 10.3617 3.57447 10.3617C4.04388 10.3617 4.42553 9.98005 4.42553 9.51064C4.42553 9.04122 4.04388 8.65957 3.57447 8.65957ZM13.4468 8.65957C12.9774 8.65957 12.5957 9.04122 12.5957 9.51064C12.5957 9.98005 12.9774 10.3617 13.4468 10.3617C13.9162 10.3617 14.2979 9.98005 14.2979 9.51064C14.2979 9.04122 13.9162 8.65957 13.4468 8.65957Z" fill="#444B54"/>
</svg>
