<svg width="16" height="19" viewBox="0 0 16 19" fill="none" xmlns="http://www.w3.org/2000/svg">
<path d="M14.6667 0H1.33333C0.598958 0 0 0.598958 0 1.33333V18.2222C0 18.4688 0.199653 18.6667 0.444444 18.6667H15.5556C15.8021 18.6667 16 18.4688 16 18.2222V1.33333C16 0.598958 15.401 0 14.6667 0ZM4.88889 16.4444H2.22222V14.2222H4.88889V16.4444ZM4.88889 12.4444H2.22222V10.2222H4.88889V12.4444ZM4.88889 8.44444H2.22222V6.22222H4.88889V8.44444ZM4.88889 4.44444H2.22222V2.22222H4.88889V4.44444ZM9.33333 17.7778H6.66667V14.2222H9.33333V17.7778ZM9.33333 12.4444H6.66667V10.2222H9.33333V12.4444ZM9.33333 8.44444H6.66667V6.22222H9.33333V8.44444ZM9.33333 4.44444H6.66667V2.22222H9.33333V4.44444ZM13.7778 16.4444H11.1111V14.2222H13.7778V16.4444ZM13.7778 12.4444H11.1111V10.2222H13.7778V12.4444ZM13.7778 8.44444H11.1111V6.22222H13.7778V8.44444ZM13.7778 4.44444H11.1111V2.22222H13.7778V4.44444Z" fill="#444B54"/>
</svg>
