<svg width="18" height="18" viewBox="0 0 18 18" fill="none" xmlns="http://www.w3.org/2000/svg">
<path d="M5.53852 2.64209C4.36214 2.64209 3.29122 3.05044 2.53672 3.79143C1.7795 4.53512 1.36304 5.59792 1.36304 6.81757C1.36304 8.88097 2.62866 10.4224 4.07007 11.7178C5.51148 13.0159 7.19086 14.1625 8.33209 15.512C8.45649 15.6688 8.64309 15.7608 8.84321 15.7662H8.88377C9.08389 15.7608 9.27049 15.6688 9.39759 15.512C10.5361 14.1625 12.2182 13.0159 13.6569 11.7178C15.0983 10.4224 16.3639 8.88097 16.3639 6.81757C16.3639 5.59792 15.9258 4.53512 15.1713 3.79143C14.4141 3.05044 13.3648 2.64209 12.1885 2.64209C11.0202 2.64209 10.0656 3.27761 9.39759 3.85633C9.06766 4.13758 9.05414 4.21601 8.86484 4.43235C8.67824 4.21601 8.65931 4.13758 8.33209 3.85633C7.66412 3.27761 6.70679 2.64209 5.53852 2.64209ZM5.53852 4.00507C6.18215 4.00507 6.8988 4.43506 7.43696 4.9002C7.97512 5.36535 8.31045 5.81697 8.31045 5.81697C8.43756 5.99546 8.64579 6.10092 8.86484 6.10092C9.08119 6.10092 9.28942 5.99546 9.41652 5.81697C9.41652 5.81697 9.75186 5.36535 10.29 4.9002C10.8309 4.43506 11.5421 4.00507 12.1885 4.00507C13.0647 4.00507 13.7543 4.30525 14.2329 4.7731C14.7116 5.24095 15.001 5.90351 15.001 6.81757C15.001 8.32929 14.0869 9.48404 12.7428 10.6956C11.5502 11.7692 10.098 12.8699 8.86484 14.1679C7.62896 12.8644 6.17944 11.7692 4.98684 10.6956C3.64008 9.48404 2.72602 8.32929 2.72602 6.81757C2.72602 5.90351 3.01538 5.24095 3.49405 4.7731C3.97271 4.30525 4.65961 4.00507 5.53852 4.00507Z" fill="#00BCD4"/>
</svg>
