<svg width="465" height="204" viewBox="0 0 465 204" fill="none" xmlns="http://www.w3.org/2000/svg">
<path d="M50.3331 143.577C53.4088 146.311 54.9484 150.244 54.9484 155.371C54.9484 157.252 54.7499 159.102 54.3493 160.927L49.222 186.564H32.9865L37.7725 162.467C37.9989 161.498 38.1138 160.474 38.1138 159.391C38.1138 155.288 35.9751 153.24 31.7046 153.24C28.8553 153.24 26.5216 154.107 24.6963 155.845C22.8711 157.583 21.5927 160.189 20.8508 163.665L16.2355 186.561H0L12.6477 123.155H28.8832L24.6963 144.093C28.6289 141.017 33.1258 139.477 38.1974 139.477C43.2098 139.474 47.2574 140.843 50.3331 143.577Z" fill="#0F0F0F"/>
<path d="M118.354 140.243L109.124 186.56H93.7417L94.6822 182.202C90.9795 185.619 86.507 187.33 81.2682 187.33C77.8511 187.33 74.6465 186.49 71.6544 184.808C68.6623 183.129 66.2553 180.691 64.4336 177.5C62.6084 174.309 61.6992 170.551 61.6992 166.221C61.6992 161.209 62.8243 156.667 65.0745 152.591C67.3247 148.519 70.3725 145.315 74.2181 142.977C78.0636 140.644 82.2644 139.473 86.8205 139.473C93.5432 139.473 98.2735 141.581 101.004 145.795L102.115 140.24H118.354V140.243ZM94.8529 170.666C96.9045 168.273 97.9286 165.169 97.9286 161.352C97.9286 158.617 97.1449 156.451 95.5774 154.859C94.0099 153.263 91.8608 152.466 89.1264 152.466C85.88 152.466 83.2293 153.661 81.1776 156.054C79.126 158.447 78.1019 161.581 78.1019 165.455C78.1019 168.189 78.8856 170.342 80.4531 171.906C82.0206 173.473 84.1697 174.257 86.9041 174.257C90.154 174.254 92.8047 173.059 94.8529 170.666Z" fill="#0F0F0F"/>
<path d="M132.579 184.721C128.904 182.983 126.055 180.52 124.035 177.329C122.011 174.139 121.001 170.436 121.001 166.221C121.001 161.153 122.227 156.593 124.676 152.549C127.125 148.505 130.542 145.315 134.931 142.977C139.316 140.644 144.245 139.473 149.713 139.473C154.952 139.473 159.484 140.57 163.302 142.765C167.119 144.959 169.909 148.049 171.675 152.037L157.833 158.617C156.123 154.514 153.134 152.466 148.86 152.466C145.554 152.466 142.834 153.661 140.699 156.054C138.564 158.447 137.494 161.522 137.494 165.284C137.494 168.019 138.278 170.199 139.845 171.822C141.413 173.445 143.649 174.257 146.554 174.257C148.717 174.257 150.626 173.773 152.277 172.805C153.928 171.836 155.353 170.297 156.551 168.189L168.429 175.368C166.207 179.127 163.089 182.063 159.073 184.17C155.057 186.278 150.515 187.333 145.443 187.333C140.539 187.33 136.254 186.459 132.579 184.721Z" fill="#0F0F0F"/>
<path d="M208.591 160.753L224.143 186.56H205.174L195.689 170.749L189.025 176.56L187.061 186.556H170.825L183.473 123.151H199.708L193.129 156.05L211.844 140.243H232.354L208.591 160.753Z" fill="#0F0F0F"/>
<path d="M232.814 186.048C229.139 185.195 226.276 184.111 224.228 182.802L230.125 171.436C232.232 172.745 234.74 173.787 237.645 174.553C240.55 175.323 243.399 175.706 246.189 175.706C251.146 175.706 253.623 174.595 253.623 172.373C253.623 171.464 253.038 170.791 251.871 170.363C250.704 169.934 248.837 169.523 246.273 169.123C242.856 168.496 240.049 167.827 237.854 167.113C235.66 166.402 233.737 165.19 232.086 163.48C230.431 161.77 229.609 159.377 229.609 156.301C229.609 150.947 231.901 146.802 236.489 143.866C241.073 140.933 247.012 139.466 254.306 139.466C257.608 139.466 260.798 139.794 263.874 140.449C266.95 141.103 269.628 142.002 271.906 143.141L266.18 154.507C262.307 152.173 257.719 151.003 252.421 151.003C249.913 151.003 248.05 151.33 246.823 151.985C245.597 152.64 244.984 153.479 244.984 154.507C244.984 155.42 245.569 156.088 246.736 156.517C247.903 156.945 249.826 157.416 252.505 157.928C255.807 158.499 258.559 159.154 260.75 159.892C262.944 160.634 264.853 161.857 266.476 163.567C268.099 165.277 268.911 167.611 268.911 170.575C268.911 175.929 266.605 180.06 261.99 182.965C257.374 185.87 251.481 187.323 244.302 187.323C240.32 187.33 236.489 186.901 232.814 186.048Z" fill="#0F0F0F"/>
<path d="M294.471 169.297C294.356 170.095 294.3 170.607 294.3 170.837C294.3 173.456 295.725 174.766 298.574 174.766C300.114 174.766 301.737 174.309 303.444 173.4L305.496 184.595C302.305 186.421 298.289 187.33 293.447 187.33C288.661 187.33 284.857 186.132 282.039 183.739C279.218 181.346 277.807 178.012 277.807 173.742C277.807 172.09 277.95 170.638 278.236 169.384L281.311 154.089H274.474L276.954 141.953H283.704L286.097 129.905H302.333L299.94 141.953H310.449L308.056 154.089H297.543L294.471 169.297Z" fill="#0F0F0F"/>
<path d="M351.468 139.473L348.647 154.086C347.222 153.915 345.996 153.828 344.972 153.828C341.325 153.828 338.406 154.699 336.215 156.433C334.02 158.171 332.554 160.92 331.812 164.678L327.367 186.553H311.132L320.359 140.236H335.741L334.717 145.363C338.59 141.441 344.174 139.473 351.468 139.473Z" fill="#0F0F0F"/>
<path d="M406.587 140.243L397.357 186.56H381.975L382.915 182.202C379.212 185.619 374.74 187.33 369.498 187.33C366.081 187.33 362.876 186.49 359.884 184.808C356.892 183.129 354.485 180.691 352.663 177.5C350.838 174.309 349.929 170.551 349.929 166.221C349.929 161.209 351.054 156.667 353.304 152.591C355.554 148.519 358.602 145.315 362.448 142.977C366.293 140.644 370.494 139.473 375.05 139.473C381.773 139.473 386.503 141.581 389.234 145.795L390.345 140.24H406.587V140.243ZM383.086 170.666C385.137 168.273 386.162 165.169 386.162 161.352C386.162 158.617 385.378 156.451 383.81 154.859C382.243 153.263 380.094 152.466 377.359 152.466C374.113 152.466 371.462 153.661 369.411 156.054C367.359 158.447 366.335 161.581 366.335 165.455C366.335 168.189 367.119 170.342 368.686 171.906C370.254 173.473 372.403 174.257 375.137 174.257C378.387 174.254 381.034 173.059 383.086 170.666Z" fill="#0F0F0F"/>
<path d="M454.482 141.995C457.474 143.678 459.877 146.112 461.703 149.303C463.524 152.494 464.437 156.224 464.437 160.498C464.437 165.57 463.312 170.14 461.062 174.212C458.812 178.287 455.764 181.488 451.918 183.826C448.073 186.163 443.872 187.33 439.312 187.33C432.59 187.33 427.863 185.222 425.128 181.008L420.684 203.14H404.448L417.009 140.247H432.391L431.45 144.604C435.153 141.187 439.626 139.477 444.868 139.477C448.285 139.473 451.49 140.316 454.482 141.995ZM444.952 170.666C447.003 168.273 448.027 165.169 448.027 161.352C448.027 158.617 447.244 156.451 445.676 154.859C444.109 153.263 441.96 152.466 439.225 152.466C435.979 152.466 433.328 153.661 431.276 156.054C429.225 158.447 428.201 161.581 428.201 165.455C428.201 168.189 428.984 170.342 430.552 171.906C432.119 173.473 434.268 174.257 437.003 174.257C440.253 174.254 442.903 173.059 444.952 170.666Z" fill="#0F0F0F"/>
<path d="M306.548 16.6988L191.04 54.4608L220.609 9.87157L240.15 23.3727L227.154 0H206.321H206.265L143.284 70.0728L165.807 92.5084L301.055 39.2215L293.089 71.8701L279.779 63.0018L290.177 83.8142H311.01L321.153 31.3006L306.548 16.6988Z" fill="#10389B"/>
</svg>
