<svg width="868" height="97" viewBox="0 0 868 97" fill="none" xmlns="http://www.w3.org/2000/svg">
<path d="M289.5 24.7935C293.79 28.1069 295.938 32.8685 295.938 39.0783C295.938 41.3548 295.659 43.5975 295.108 45.8064L287.956 76.8666H265.299L271.977 47.6717C272.295 46.4996 272.458 45.2542 272.458 43.9469C272.458 38.9768 269.479 36.4918 263.514 36.4918C259.536 36.4918 256.278 37.5455 253.734 39.6474C251.19 41.7549 249.399 44.9105 248.367 49.1198L241.929 76.8666H219.272L236.918 0.0446167H259.575L253.734 25.4078C259.218 21.683 265.5 19.8178 272.574 19.8178C279.564 19.8235 285.21 21.4802 289.5 24.7935Z" fill="#0F0F0F"/>
<path d="M384.416 20.7533L371.54 76.8666H350.078L351.389 71.5866C346.223 75.7283 339.979 77.7964 332.672 77.7964C327.902 77.7964 323.43 76.7764 319.257 74.7422C315.084 72.708 311.728 69.7552 309.184 65.8896C306.64 62.024 305.368 57.4709 305.368 52.2247C305.368 46.1502 306.939 40.6448 310.08 35.7142C313.221 30.7779 317.472 26.8954 322.839 24.0667C328.207 21.2379 334.067 19.8235 340.427 19.8235C349.805 19.8235 356.406 22.3762 360.222 27.4871L361.773 20.7589H384.416V20.7533ZM351.623 57.6118C354.485 54.7154 355.912 50.9513 355.912 46.3249C355.912 43.0115 354.816 40.3912 352.635 38.4584C350.448 36.5256 347.449 35.562 343.633 35.562C339.103 35.562 335.404 37.0103 332.542 39.9123C329.68 42.8087 328.252 46.6066 328.252 51.3006C328.252 54.614 329.342 57.2174 331.529 59.1164C333.717 61.0154 336.715 61.962 340.531 61.962C345.068 61.962 348.76 60.5082 351.623 57.6118Z" fill="#0F0F0F"/>
<path d="M404.269 74.6408C399.142 72.5389 395.164 69.5524 392.347 65.6868C389.524 61.8212 388.116 57.3357 388.116 52.2304C388.116 46.0882 389.823 40.5659 393.243 35.6635C396.663 30.761 401.433 26.9011 407.553 24.0667C413.673 21.2379 420.553 19.8235 428.185 19.8235C435.499 19.8235 441.814 21.1534 447.142 23.8074C452.464 26.4672 456.365 30.2088 458.824 35.038L439.51 43.0115C437.128 38.0415 432.955 35.5564 426.991 35.5564C422.376 35.5564 418.586 37.0046 415.601 39.9066C412.622 42.803 411.129 46.5334 411.129 51.0865C411.129 54.3999 412.22 57.0371 414.407 59.0037C416.594 60.9703 419.716 61.9564 423.765 61.9564C426.783 61.9564 429.45 61.3704 431.754 60.1983C434.058 59.0262 436.044 57.161 437.719 54.6084L454.294 63.3032C451.192 67.8563 446.844 71.4119 441.236 73.9646C435.629 76.5172 429.288 77.7964 422.221 77.7964C415.374 77.7964 409.396 76.7483 404.269 74.6408Z" fill="#0F0F0F"/>
<path d="M510.329 45.6037L532.032 76.8723H505.559L492.326 57.719L483.026 64.7571L480.287 76.8723H457.63L475.277 0.050415H497.933L488.75 39.9124L514.865 20.759H543.48L510.329 45.6037Z" fill="#0F0F0F"/>
<path d="M544.135 76.2468C539.008 75.2099 535.01 73.9026 532.155 72.3136L540.384 58.5416C543.324 60.1307 546.822 61.3873 550.878 62.3227C554.935 63.2525 558.907 63.7202 562.801 63.7202C569.719 63.7202 573.172 62.3734 573.172 59.6799C573.172 58.5754 572.354 57.764 570.725 57.2456C569.096 56.7271 566.493 56.2256 562.917 55.7466C558.147 54.9859 554.234 54.1801 551.171 53.3123C548.107 52.4501 545.427 50.985 543.123 48.9114C540.819 46.8433 539.664 43.9413 539.664 40.2166C539.664 33.7307 542.863 28.7099 549.262 25.1542C555.662 21.5985 563.949 19.8235 574.126 19.8235C578.734 19.8235 583.186 20.2236 587.482 21.0125C591.772 21.807 595.51 22.8946 598.69 24.2752L590.701 38.0471C585.295 35.2183 578.896 33.8039 571.504 33.8039C568.006 33.8039 565.403 34.204 563.696 34.9929C561.983 35.7875 561.133 36.8074 561.133 38.0471C561.133 39.1516 561.944 39.963 563.573 40.4814C565.202 40.9998 567.882 41.569 571.62 42.1888C576.228 42.8819 580.064 43.6765 583.127 44.5724C586.184 45.4684 588.851 46.956 591.116 49.0241C593.381 51.0921 594.517 53.9265 594.517 57.516C594.517 64.0019 591.298 69.0058 584.86 72.5277C578.422 76.0496 570.193 77.8077 560.179 77.8077C554.604 77.7964 549.256 77.2836 544.135 76.2468Z" fill="#0F0F0F"/>
<path d="M630.16 55.9551C629.998 56.9243 629.92 57.5442 629.92 57.8203C629.92 60.9928 631.906 62.5819 635.884 62.5819C638.033 62.5819 640.298 62.0296 642.68 60.9252L645.542 74.4886C641.089 76.6975 635.482 77.802 628.733 77.802C622.054 77.802 616.752 76.3538 612.813 73.4518C608.88 70.5554 606.913 66.5151 606.913 61.3365C606.913 59.3361 607.108 57.578 607.51 56.0565L611.8 37.523H602.26L605.719 22.8213H615.136L618.478 8.22101H641.135L637.793 22.8213H652.46L649.118 37.523H634.45L630.16 55.9551Z" fill="#0F0F0F"/>
<path d="M709.695 19.8235L705.762 37.5287C703.776 37.3202 702.063 37.2187 700.635 37.2187C695.547 37.2187 691.471 38.2725 688.415 40.3743C685.351 42.4818 683.307 45.8121 682.275 50.3652L676.077 76.8666H653.42L666.297 20.7533H687.759L686.325 26.9631C691.731 22.2015 699.519 19.8235 709.695 19.8235Z" fill="#0F0F0F"/>
<path d="M786.602 20.7533L773.726 76.8666H752.263L753.574 71.5866C748.408 75.7283 742.165 77.7964 734.851 77.7964C730.08 77.7964 725.609 76.7764 721.436 74.7422C717.263 72.708 713.901 69.7552 711.363 65.8896C708.819 62.024 707.547 57.4709 707.547 52.2247C707.547 46.1502 709.118 40.6448 712.259 35.7142C715.4 30.7779 719.651 26.8954 725.018 24.0667C730.385 21.2379 736.246 19.8235 742.606 19.8235C751.984 19.8235 758.585 22.3762 762.401 27.4871L763.952 20.7589H786.602V20.7533ZM753.814 57.6118C756.676 54.7154 758.104 50.9513 758.104 46.3249C758.104 43.0115 757.007 40.3912 754.827 38.4584C752.64 36.5256 749.641 35.562 745.825 35.562C741.295 35.562 737.596 37.0103 734.734 39.9123C731.872 42.8087 730.444 46.6066 730.444 51.3006C730.444 54.614 731.534 57.2174 733.721 59.1164C735.908 61.0154 738.907 61.962 742.723 61.962C747.253 61.962 750.952 60.5082 753.814 57.6118Z" fill="#0F0F0F"/>
<path d="M853.436 22.8777C857.609 24.9119 860.964 27.8646 863.508 31.7302C866.052 35.5959 867.325 40.1151 867.325 45.2937C867.325 51.4358 865.754 56.975 862.613 61.9113C859.472 66.8476 855.221 70.7301 849.853 73.5588C844.486 76.3876 838.626 77.802 832.266 77.802C822.887 77.802 816.287 75.2494 812.471 70.1384L806.273 96.9497H783.616L801.146 20.7533H822.608L821.297 26.0333C826.463 21.8915 832.7 19.8235 840.021 19.8235C844.791 19.8235 849.263 20.8434 853.436 22.8777ZM840.138 57.6118C843 54.7154 844.428 50.9512 844.428 46.3249C844.428 43.0115 843.337 40.3912 841.15 38.4584C838.963 36.5256 835.965 35.562 832.149 35.562C827.619 35.562 823.919 37.0102 821.057 39.9123C818.195 42.8087 816.767 46.6066 816.767 51.3006C816.767 54.614 817.858 57.2174 820.045 59.1164C822.232 61.0153 825.23 61.962 829.046 61.962C833.583 61.962 837.276 60.5082 840.138 57.6118Z" fill="#0F0F0F"/>
<path d="M171.72 15.4056L50.7072 49.7566L81.684 9.19585L102.16 21.4801L88.5439 0.219299H66.7115H66.6531L0.675781 63.9624L24.2669 84.3668L165.963 35.8945L157.617 65.5965L143.676 57.5273L154.567 76.4608H176.393L187.023 28.6929L171.72 15.4056Z" fill="#10389B"/>
</svg>
