<svg width="17" height="17" viewBox="0 0 17 17" fill="none" xmlns="http://www.w3.org/2000/svg">
<path fill-rule="evenodd" clip-rule="evenodd" d="M8.21426 0.340227C8.01896 0.340138 7.83798 0.340057 7.66974 0.340322V0.337891C5.86972 0.339917 5.52444 0.352072 4.63348 0.39259C3.69182 0.436147 3.18054 0.594168 2.84009 0.727879C2.38938 0.904538 2.06745 1.11523 1.72941 1.45559C1.39138 1.79594 1.18172 2.12008 1.00666 2.57389C0.87447 2.91667 0.717123 3.43125 0.674064 4.37938C0.627786 5.40449 0.61853 5.71081 0.61853 8.30762C0.61853 10.9044 0.627786 11.2124 0.674064 12.2375C0.716922 13.1856 0.87447 13.7002 1.00666 14.0426C1.18212 14.4966 1.39138 14.8199 1.72941 15.1603C2.06745 15.5006 2.38938 15.7113 2.84009 15.8876C3.18074 16.0207 3.69182 16.1791 4.63348 16.2229C5.65161 16.2695 5.95724 16.2796 8.53616 16.2796C11.1149 16.2796 11.4207 16.2695 12.4388 16.2229C13.3805 16.1795 13.892 16.0215 14.232 15.8878C14.6829 15.7115 15.0039 15.5008 15.3419 15.1605C15.6799 14.8203 15.8896 14.4972 16.0646 14.0434C16.1968 13.701 16.3542 13.1864 16.3972 12.2383C16.4435 11.2132 16.4536 10.9052 16.4536 8.31006C16.4536 5.71486 16.4435 5.40692 16.3972 4.38181C16.3544 3.43369 16.1968 2.9191 16.0646 2.57673C15.8892 2.12292 15.6799 1.79878 15.3419 1.45842C15.0041 1.11807 14.6827 0.907374 14.232 0.73112C13.8916 0.598018 13.3805 0.439591 12.4388 0.396237C11.4205 0.349641 11.1149 0.340322 8.53616 0.340322L8.21426 0.340227ZM12.5326 3.12186C12.5326 2.47742 13.0517 1.95534 13.6916 1.95534V1.95493C14.3314 1.95493 14.8505 2.47762 14.8505 3.12186C14.8505 3.7661 14.3314 4.28878 13.6916 4.28878C13.0517 4.28878 12.5326 3.7661 12.5326 3.12186ZM8.53613 3.319C5.79705 3.319 3.57629 5.55499 3.57629 8.31287C3.57629 11.0707 5.79705 13.3057 8.53613 13.3057C11.2752 13.3057 13.4952 11.0707 13.4952 8.31287C13.4952 5.55499 11.275 3.319 8.53593 3.319H8.53613ZM11.7555 8.31239C11.7555 6.52209 10.314 5.07093 8.53614 5.07093C6.75804 5.07093 5.31677 6.52209 5.31677 8.31239C5.31677 10.1025 6.75804 11.5538 8.53614 11.5538C10.314 11.5538 11.7555 10.1025 11.7555 8.31239Z" fill="#212B36"/>
<mask id="mask0" mask-type="alpha" maskUnits="userSpaceOnUse" x="0" y="0" width="17" height="17">
<path fill-rule="evenodd" clip-rule="evenodd" d="M8.21426 0.340227C8.01896 0.340138 7.83798 0.340057 7.66974 0.340322V0.337891C5.86972 0.339917 5.52444 0.352072 4.63348 0.39259C3.69182 0.436147 3.18054 0.594168 2.84009 0.727879C2.38938 0.904538 2.06745 1.11523 1.72941 1.45559C1.39138 1.79594 1.18172 2.12008 1.00666 2.57389C0.87447 2.91667 0.717123 3.43125 0.674064 4.37938C0.627786 5.40449 0.61853 5.71081 0.61853 8.30762C0.61853 10.9044 0.627786 11.2124 0.674064 12.2375C0.716922 13.1856 0.87447 13.7002 1.00666 14.0426C1.18212 14.4966 1.39138 14.8199 1.72941 15.1603C2.06745 15.5006 2.38938 15.7113 2.84009 15.8876C3.18074 16.0207 3.69182 16.1791 4.63348 16.2229C5.65161 16.2695 5.95724 16.2796 8.53616 16.2796C11.1149 16.2796 11.4207 16.2695 12.4388 16.2229C13.3805 16.1795 13.892 16.0215 14.232 15.8878C14.6829 15.7115 15.0039 15.5008 15.3419 15.1605C15.6799 14.8203 15.8896 14.4972 16.0646 14.0434C16.1968 13.701 16.3542 13.1864 16.3972 12.2383C16.4435 11.2132 16.4536 10.9052 16.4536 8.31006C16.4536 5.71486 16.4435 5.40692 16.3972 4.38181C16.3544 3.43369 16.1968 2.9191 16.0646 2.57673C15.8892 2.12292 15.6799 1.79878 15.3419 1.45842C15.0041 1.11807 14.6827 0.907374 14.232 0.73112C13.8916 0.598018 13.3805 0.439591 12.4388 0.396237C11.4205 0.349641 11.1149 0.340322 8.53616 0.340322L8.21426 0.340227ZM12.5326 3.12186C12.5326 2.47742 13.0517 1.95534 13.6916 1.95534V1.95493C14.3314 1.95493 14.8505 2.47762 14.8505 3.12186C14.8505 3.7661 14.3314 4.28878 13.6916 4.28878C13.0517 4.28878 12.5326 3.7661 12.5326 3.12186ZM8.53613 3.319C5.79705 3.319 3.57629 5.55499 3.57629 8.31287C3.57629 11.0707 5.79705 13.3057 8.53613 13.3057C11.2752 13.3057 13.4952 11.0707 13.4952 8.31287C13.4952 5.55499 11.275 3.319 8.53593 3.319H8.53613ZM11.7555 8.31239C11.7555 6.52209 10.314 5.07093 8.53614 5.07093C6.75804 5.07093 5.31677 6.52209 5.31677 8.31239C5.31677 10.1025 6.75804 11.5538 8.53614 11.5538C10.314 11.5538 11.7555 10.1025 11.7555 8.31239Z" fill="white"/>
</mask>
<g mask="url(#mask0)">
<rect x="-0.371094" y="-0.658203" width="17.8144" height="17.9367" rx="4" fill="#F5F6F6"/>
</g>
</svg>
