<svg width="12" height="13" viewBox="0 0 12 13" fill="none" xmlns="http://www.w3.org/2000/svg">
<!-- changed fill color to match figma ui spec -->
<path fill-rule="evenodd" clip-rule="evenodd" d="M5.0625 10.125C2.81884 10.125 1 8.30616 1 6.0625C1 3.81884 2.81884 2 5.0625 2C7.30616 2 9.125 3.81884 9.125 6.0625C9.125 8.30616 7.30616 10.125 5.0625 10.125ZM5.0625 9.5C6.96098 9.5 8.5 7.96098 8.5 6.0625C8.5 4.16402 6.96098 2.625 5.0625 2.625C3.16402 2.625 1.625 4.16402 1.625 6.0625C1.625 7.96098 3.16402 9.5 5.0625 9.5ZM10.4665 11.9085L8.27903 9.72097C8.15699 9.59893 8.15699 9.40107 8.27903 9.27903C8.40107 9.15699 8.59893 9.15699 8.72097 9.27903L10.9085 11.4665C11.0305 11.5886 11.0305 11.7864 10.9085 11.9085C10.7864 12.0305 10.5886 12.0305 10.4665 11.9085Z" fill="#8190B0"/>
</svg>
