<svg width="17" height="16" viewBox="0 0 17 16" fill="none" xmlns="http://www.w3.org/2000/svg">
<path fill-rule="evenodd" clip-rule="evenodd" d="M4.08637 2.10801C4.06434 1.10127 3.34932 0.334473 2.18823 0.334473C1.02715 0.334473 0.268066 1.10127 0.268066 2.10801C0.268066 3.09391 1.00471 3.88278 2.14418 3.88278H2.16587C3.34932 3.88278 4.08637 3.09391 4.08637 2.10801ZM3.86281 5.28431H0.46875V15.552H3.86281V5.28431ZM12.1952 5.04293C14.4287 5.04293 16.1031 6.51076 16.1031 9.66457L16.1029 15.5518H12.709V10.0585C12.709 8.67874 12.2179 7.73722 10.9892 7.73722C10.0515 7.73722 9.493 8.37194 9.2477 8.985C9.15795 9.20471 9.13593 9.51083 9.13593 9.81769V15.552H5.74146C5.74146 15.552 5.78619 6.24778 5.74146 5.28431H9.13593V6.73865C9.5864 6.03952 10.3932 5.04293 12.1952 5.04293Z" fill="black"/>
<mask id="mask0" mask-type="alpha" maskUnits="userSpaceOnUse" x="0" y="0" width="17" height="16">
<path fill-rule="evenodd" clip-rule="evenodd" d="M4.08637 2.10801C4.06434 1.10127 3.34932 0.334473 2.18823 0.334473C1.02715 0.334473 0.268066 1.10127 0.268066 2.10801C0.268066 3.09391 1.00471 3.88278 2.14418 3.88278H2.16587C3.34932 3.88278 4.08637 3.09391 4.08637 2.10801ZM3.86281 5.28431H0.46875V15.552H3.86281V5.28431ZM12.1952 5.04293C14.4287 5.04293 16.1031 6.51076 16.1031 9.66457L16.1029 15.5518H12.709V10.0585C12.709 8.67874 12.2179 7.73722 10.9892 7.73722C10.0515 7.73722 9.493 8.37194 9.2477 8.985C9.15795 9.20471 9.13593 9.51083 9.13593 9.81769V15.552H5.74146C5.74146 15.552 5.78619 6.24778 5.74146 5.28431H9.13593V6.73865C9.5864 6.03952 10.3932 5.04293 12.1952 5.04293Z" fill="white"/>
</mask>
<g mask="url(#mask0)">
<rect x="-0.72168" y="-0.662109" width="17.8144" height="17.9367" rx="4" fill="white"/>
</g>
</svg>
