<svg width="24" height="24" viewBox="0 0 24 24" fill="none" xmlns="http://www.w3.org/2000/svg">
<path fill-rule="evenodd" clip-rule="evenodd" d="M11.471 19.848C11.633 19.949 11.816 20 12 20C12.184 20 12.367 19.949 12.529 19.848C12.876 19.632 21 14.491 21 9C21 6.243 18.757 4 16 4C14.406 4 12.93 4.837 12 6.08C11.07 4.837 9.594 4 8 4C5.243 4 3 6.243 3 9C3 14.491 11.124 19.632 11.471 19.848ZM5 9C5 7.346 6.346 6 8 6C9.689 6 11 7.612 11 9C11 9.552 11.447 10 12 10C12.553 10 13 9.552 13 9C13 7.612 14.311 6 16 6C17.654 6 19 7.346 19 9C19 12.364 14.357 16.207 12 17.806C9.643 16.207 5 12.363 5 9Z" fill="#747474"/>
</svg>
