<svg width="16" height="16" viewBox="0 0 16 16" fill="none" xmlns="http://www.w3.org/2000/svg">
<path d="M4.66667 0C3.93 0 3.33333 0.596667 3.33333 1.33333V3.33333C3.33333 4.07 3.93 4.66667 4.66667 4.66667H6.33333L8 6.33333L9.66667 4.66667H11.3333C12.07 4.66667 12.6667 4.07 12.6667 3.33333V1.33333C12.6667 0.596667 12.07 0 11.3333 0H4.66667ZM4 6.0013C2.38467 6.0013 1.07422 6.97351 1.07422 8.71484C1.07422 9.45084 1.48828 10.0247 1.48828 10.0247C1.48828 10.0247 1.29948 10.1158 1.29948 10.5091C1.29948 11.2731 1.79036 11.4557 1.79036 11.4557C1.84303 11.9197 2.406 12.5458 2.66667 12.8138V13.5638C2.04533 14.5138 0.636 14.35 0 16H8C7.364 14.35 5.95467 14.5131 5.33333 13.5638V12.8151C5.594 12.5471 6.15697 11.9204 6.20964 11.457C6.20964 11.457 6.70052 11.1178 6.70052 10.5104C6.70052 10.0891 6.51172 10.0247 6.51172 10.0247C6.51172 10.0247 6.85026 9.38414 6.85026 8.77214C6.85026 7.54547 6.23452 6.60156 5.20052 6.60156C5.20052 6.60156 4.76067 6.0013 4 6.0013ZM12 6.0013C10.3847 6.0013 9.07422 6.97351 9.07422 8.71484C9.07422 9.45084 9.48828 10.0247 9.48828 10.0247C9.48828 10.0247 9.29948 10.1158 9.29948 10.5091C9.29948 11.2731 9.79037 11.4557 9.79037 11.4557C9.84303 11.9197 10.406 12.5458 10.6667 12.8138V13.5638C10.2627 14.1811 9.52608 14.3299 8.88542 14.8099C9.01608 15.0206 9.13949 15.2502 9.24349 15.5195L9.42969 16H16C15.364 14.35 13.9547 14.5131 13.3333 13.5638V12.8151C13.594 12.5471 14.157 11.9204 14.2096 11.457C14.2096 11.457 14.7005 11.1178 14.7005 10.5104C14.7005 10.0891 14.5117 10.0247 14.5117 10.0247C14.5117 10.0247 14.8503 9.38414 14.8503 8.77214C14.8503 7.54547 14.2345 6.60156 13.2005 6.60156C13.2005 6.60156 12.7607 6.0013 12 6.0013Z" fill="#444B54"/>
</svg>
