<svg width="21" height="17" viewBox="0 0 21 17" fill="none" xmlns="http://www.w3.org/2000/svg">
<path d="M0.5 0.166656V3.49999H3.83333V0.166656H0.5ZM8 0.99999C7.88957 0.998428 7.77994 1.01883 7.67746 1.06001C7.57499 1.10119 7.48172 1.16232 7.40308 1.23986C7.32444 1.31739 7.26199 1.40979 7.21937 1.51167C7.17675 1.61355 7.1548 1.72289 7.1548 1.83332C7.1548 1.94376 7.17675 2.0531 7.21937 2.15498C7.26199 2.25686 7.32444 2.34925 7.40308 2.42679C7.48172 2.50433 7.57499 2.56546 7.67746 2.60664C7.77994 2.64782 7.88957 2.66822 8 2.66666H19.6667C19.7771 2.66822 19.8867 2.64782 19.9892 2.60664C20.0917 2.56546 20.1849 2.50433 20.2636 2.42679C20.3422 2.34925 20.4047 2.25686 20.4473 2.15498C20.4899 2.0531 20.5119 1.94376 20.5119 1.83332C20.5119 1.72289 20.4899 1.61355 20.4473 1.51167C20.4047 1.40979 20.3422 1.31739 20.2636 1.23986C20.1849 1.16232 20.0917 1.10119 19.9892 1.06001C19.8867 1.01883 19.7771 0.998428 19.6667 0.99999H8ZM0.5 6.83332V10.1667H3.83333V6.83332H0.5ZM8 7.66666C7.88957 7.66509 7.77994 7.6855 7.67746 7.72667C7.57499 7.76785 7.48172 7.82899 7.40308 7.90652C7.32444 7.98406 7.26199 8.07645 7.21937 8.17833C7.17675 8.28022 7.1548 8.38955 7.1548 8.49999C7.1548 8.61043 7.17675 8.71976 7.21937 8.82164C7.26199 8.92353 7.32444 9.01592 7.40308 9.09346C7.48172 9.17099 7.57499 9.23213 7.67746 9.27331C7.77994 9.31448 7.88957 9.33488 8 9.33332H19.6667C19.7771 9.33488 19.8867 9.31448 19.9892 9.27331C20.0917 9.23213 20.1849 9.17099 20.2636 9.09346C20.3422 9.01592 20.4047 8.92353 20.4473 8.82164C20.4899 8.71976 20.5119 8.61043 20.5119 8.49999C20.5119 8.38955 20.4899 8.28022 20.4473 8.17833C20.4047 8.07645 20.3422 7.98406 20.2636 7.90652C20.1849 7.82899 20.0917 7.76785 19.9892 7.72667C19.8867 7.6855 19.7771 7.66509 19.6667 7.66666H8ZM0.5 13.5V16.8333H3.83333V13.5H0.5ZM8 14.3333C7.88957 14.3318 7.77994 14.3522 7.67746 14.3933C7.57499 14.4345 7.48172 14.4957 7.40308 14.5732C7.32444 14.6507 7.26199 14.7431 7.21937 14.845C7.17675 14.9469 7.1548 15.0562 7.1548 15.1667C7.1548 15.2771 7.17675 15.3864 7.21937 15.4883C7.26199 15.5902 7.32444 15.6826 7.40308 15.7601C7.48172 15.8377 7.57499 15.8988 7.67746 15.94C7.77994 15.9811 7.88957 16.0016 8 16H19.6667C19.7771 16.0016 19.8867 15.9811 19.9892 15.94C20.0917 15.8988 20.1849 15.8377 20.2636 15.7601C20.3422 15.6826 20.4047 15.5902 20.4473 15.4883C20.4899 15.3864 20.5119 15.2771 20.5119 15.1667C20.5119 15.0562 20.4899 14.9469 20.4473 14.845C20.4047 14.7431 20.3422 14.6507 20.2636 14.5732C20.1849 14.4957 20.0917 14.4345 19.9892 14.3933C19.8867 14.3522 19.7771 14.3318 19.6667 14.3333H8Z" fill="#FFF"/>
</svg>
