<svg width="15" height="24" viewBox="0 0 15 24" fill="none" xmlns="http://www.w3.org/2000/svg">
<path opacity="0.3" fill-rule="evenodd" clip-rule="evenodd" d="M3.20334 10.959V3.79306C3.20334 2.44724 4.00072 1.27139 5.20278 0.598191V3.60264C5.20278 3.95734 5.52954 4.24853 5.93422 4.24853C6.33949 4.24853 6.66508 3.95786 6.66508 3.60264V0.0744915C6.93607 0.0293706 7.21356 0 7.49996 0C7.78462 0 8.06269 0.0293706 8.33367 0.0744915V3.60257C8.33367 3.95728 8.66109 4.24847 9.06695 4.24847C9.47097 4.24847 9.79839 3.95779 9.79839 3.60257V0.598126C10.9964 1.27133 11.7979 2.44718 11.7979 3.79306V10.959C11.7979 13.0557 9.87149 14.7547 7.49945 14.7547C5.12559 14.7547 3.20334 13.0557 3.20334 10.959ZM0.565652 22.7234H1.56508L6.03525 21.3785V17.1263C2.80874 16.5292 0.375444 13.9959 0.375444 10.9684C0.375444 10.5649 0.74504 10.2385 1.20258 10.2385C1.32326 10.2385 1.4403 10.2627 1.54249 10.3031C1.83183 10.419 2.03446 10.6719 2.03446 10.9684C2.03446 13.6308 4.48435 15.7952 7.49931 15.7952C10.5131 15.7952 12.9666 13.6307 12.9666 10.9684C12.9666 10.6725 13.168 10.419 13.455 10.3031C13.559 10.2627 13.6743 10.2385 13.7949 10.2385C14.2543 10.2385 14.6257 10.5649 14.6257 10.9684C14.6257 13.9954 12.193 16.5287 8.96234 17.1263V21.378L13.4361 22.7234H14.4355C14.7487 22.7234 15 22.948 15 23.2229V23.4994C15 23.7759 14.7487 24 14.4355 24H0.565652C0.252562 24 0 23.7759 0 23.4994V23.2229C0 22.948 0.252489 22.7234 0.565652 22.7234Z" fill="#292F4C"/>
</svg>
