<svg width="12" height="13" viewBox="0 0 12 13" fill="none" xmlns="http://www.w3.org/2000/svg">
<path fill-rule="evenodd" clip-rule="evenodd" d="M5.88015 12.8804C6.73259 12.8804 7.42363 12.1894 7.42363 11.3369C7.42363 11.3369 4.33667 11.3369 4.33667 11.3369C4.33667 12.1894 5.02771 12.8804 5.88015 12.8804Z" fill="white"/>
<path fill-rule="evenodd" clip-rule="evenodd" d="M1.60472 9.79344C2.02146 8.23501 2.02146 5.09526 2.02146 4.39129C2.02146 2.26019 3.74905 0.532593 5.88015 0.532593C8.01125 0.532593 9.73885 2.26019 9.73885 4.39129C9.73885 5.09811 9.73885 8.23569 10.1555 9.79344H10.8965C11.1096 9.79344 11.2824 9.9662 11.2824 10.1793C11.2824 10.3924 11.1096 10.5652 10.8965 10.5652H10.5106C10.5106 10.5652 10.5106 10.5652 10.5106 10.5652H1.24972C1.24973 10.5652 1.24973 10.5652 1.24974 10.5652H0.863896C0.650786 10.5652 0.478027 10.3924 0.478027 10.1793C0.478027 9.9662 0.650787 9.79344 0.863897 9.79344H1.60472ZM1.56943 10.5652L1.56944 10.5652H2.15544C2.15544 10.5652 2.15544 10.5652 2.15545 10.5652H1.56943ZM9.60489 10.5652C9.60489 10.5652 9.6049 10.5652 9.6049 10.5652H10.191L10.191 10.5652H9.60489ZM9.35485 9.79344H2.40557C2.54425 9.20051 2.63329 8.44445 2.69845 7.51701C2.74096 6.91193 2.76747 6.2694 2.78147 5.60759C2.79088 5.16216 2.79325 4.82834 2.79325 4.39128C2.79325 2.6864 4.17533 1.30432 5.88021 1.30432C7.58509 1.30432 8.96716 2.6864 8.96716 4.39128C8.96716 4.83644 8.96962 5.17683 8.9794 5.63027C8.99394 6.30431 9.02147 6.95718 9.06563 7.56982C9.13076 8.47347 9.21894 9.21195 9.35485 9.79344Z" fill="white"/>
</svg>
