<svg width="24" height="22" viewBox="0 0 24 22" fill="none" xmlns="http://www.w3.org/2000/svg">
<path d="M23.4932 0.472829C23.3893 0.383292 23.2414 0.362519 23.116 0.419628L0.467079 10.7563C0.345144 10.8119 0.266623 10.9314 0.265158 11.0635C0.263692 11.1955 0.33963 11.3167 0.460378 11.3749L6.87 14.4647C6.98753 14.5213 7.12768 14.5085 7.23266 14.4315L13.4646 9.85631L8.57226 14.7994C8.50246 14.8699 8.46687 14.9665 8.47455 15.0645L8.96166 21.2957C8.97247 21.4338 9.0667 21.5518 9.20064 21.5951C9.23644 21.6066 9.27323 21.6122 9.30959 21.6122C9.40933 21.6122 9.50635 21.5702 9.57384 21.4934L12.9759 17.6211L17.1814 19.5949C17.2727 19.6378 17.3784 19.6396 17.4712 19.5999C17.5639 19.5602 17.6346 19.483 17.6649 19.3883L23.596 0.833239C23.6375 0.703665 23.5971 0.562366 23.4932 0.472829Z" fill="white"/>
</svg>
