<svg width="16" height="11" viewBox="0 0 16 11" fill="none" xmlns="http://www.w3.org/2000/svg">
<path d="M8 0C7.38116 0 6.78767 0.245833 6.35008 0.683418C5.9125 1.121 5.66667 1.7145 5.66667 2.33333C5.66667 2.95217 5.9125 3.54566 6.35008 3.98325C6.78767 4.42083 7.38116 4.66667 8 4.66667C8.61884 4.66667 9.21233 4.42083 9.64992 3.98325C10.0875 3.54566 10.3333 2.95217 10.3333 2.33333C10.3333 1.7145 10.0875 1.121 9.64992 0.683418C9.21233 0.245833 8.61884 0 8 0ZM3 2C2.55797 2 2.13405 2.1756 1.82149 2.48816C1.50893 2.80072 1.33333 3.22464 1.33333 3.66667C1.33333 3.88554 1.37644 4.10226 1.4602 4.30447C1.54396 4.50668 1.66672 4.69041 1.82149 4.84518C2.13405 5.15774 2.55797 5.33333 3 5.33333C3.21887 5.33333 3.4356 5.29022 3.63781 5.20647C3.84001 5.12271 4.02375 4.99994 4.17851 4.84518C4.33328 4.69041 4.45604 4.50668 4.5398 4.30447C4.62356 4.10226 4.66667 3.88554 4.66667 3.66667C4.66667 3.4478 4.62356 3.23107 4.5398 3.02886C4.45604 2.82665 4.33328 2.64292 4.17851 2.48816C4.02375 2.33339 3.84001 2.21063 3.63781 2.12687C3.4356 2.04311 3.21887 2 3 2ZM13 2C12.558 2 12.134 2.1756 11.8215 2.48816C11.5089 2.80072 11.3333 3.22464 11.3333 3.66667C11.3333 3.88554 11.3764 4.10226 11.4602 4.30447C11.544 4.50668 11.6667 4.69041 11.8215 4.84518C12.134 5.15774 12.558 5.33333 13 5.33333C13.2189 5.33333 13.4356 5.29022 13.6378 5.20647C13.84 5.12271 14.0237 4.99994 14.1785 4.84518C14.3333 4.69041 14.456 4.50668 14.5398 4.30447C14.6236 4.10226 14.6667 3.88554 14.6667 3.66667C14.6667 3.22464 14.4911 2.80072 14.1785 2.48816C13.866 2.1756 13.442 2 13 2ZM8 6C6.44267 6 3.33333 6.782 3.33333 8.33333V10C3.33333 10.368 3.632 10.6667 4 10.6667H12C12.368 10.6667 12.6667 10.368 12.6667 10V8.33333C12.6667 6.782 9.55733 6 8 6ZM2.59896 6.70182C1.54496 6.86449 0 7.59272 0 8.47005V10C0 10.368 0.298667 10.6667 0.666667 10.6667H2V8.33333C2 7.69267 2.23029 7.15516 2.59896 6.70182ZM13.401 6.70182C13.7697 7.15516 14 7.69267 14 8.33333V10.6667H15.3333C15.7013 10.6667 16 10.368 16 10V8.47005C16 7.59272 14.455 6.86449 13.401 6.70182Z" fill="#444B54"/>
</svg>
