<svg width="13" height="13" viewBox="0 0 13 13" fill="none" xmlns="http://www.w3.org/2000/svg">
<path fill-rule="evenodd" clip-rule="evenodd" d="M6.41349 12.8804C5.98723 12.8804 5.64175 12.5349 5.64175 12.1087C5.64175 11.6824 5.98723 11.3369 6.41349 11.3369C6.83974 11.3369 7.18522 11.6824 7.18522 12.1087C7.18522 12.5349 6.83974 12.8804 6.41349 12.8804ZM5.98464 9.35247C5.98464 7.95628 6.94417 7.22511 7.79079 6.58038C8.66229 5.91624 9.41459 5.34295 9.41459 4.14316C9.41459 2.53647 8.18038 1.41458 6.41338 1.41458C4.64639 1.41458 3.41218 2.68405 3.41218 4.50154C3.41218 4.74526 3.22038 4.94253 2.98343 4.94253C2.74648 4.94253 2.55469 4.74526 2.55469 4.50154C2.55469 2.2019 4.17763 0.532593 6.41338 0.532593C8.64914 0.532593 10.2721 2.05108 10.2721 4.14316C10.2721 5.78747 9.2248 6.58508 8.30128 7.28862C7.5184 7.88572 6.84213 8.4008 6.84213 9.35247C6.84213 9.59619 6.65033 9.79346 6.41338 9.79346C6.17643 9.79346 5.98464 9.59619 5.98464 9.35247Z" fill="white"/>
</svg>
