<svg width="11" height="11" viewBox="0 0 11 11" fill="none" xmlns="http://www.w3.org/2000/svg">
<path d="M0.169678 5.49974C0.169678 2.55638 2.55663 0.169434 5.49998 0.169434C8.44334 0.169434 10.8303 2.55638 10.8303 5.49974C10.8303 8.4431 8.44334 10.83 5.49998 10.83C2.55663 10.83 0.169678 8.4431 0.169678 5.49974Z" fill="#10389B"/>
<path d="M7.61655 4.5407C6.92961 4.5407 6.24266 4.5407 5.55389 4.5407C5.18513 4.5407 4.81455 4.5407 4.4458 4.5407C4.13664 4.5407 3.81125 4.62666 3.81125 5.0445C3.81125 5.45845 3.81125 5.87048 3.81125 6.28443C3.81125 6.65543 3.82749 7.09676 4.2867 7.09676C4.91941 7.09676 5.55212 7.09676 6.1866 7.09676C6.1866 6.86633 6.1866 6.63789 6.1866 6.40746C6.1866 6.30197 6.3005 6.22196 6.38728 6.28245C6.89889 6.63591 7.41049 6.99127 7.92203 7.34473C8.00881 7.40522 8.00705 7.53412 7.92203 7.5927C7.41049 7.94616 6.89889 8.30153 6.38728 8.65491C6.33305 8.69206 6.27882 8.68031 6.24266 8.64515C6.21011 8.62371 6.18843 8.58466 6.18843 8.53195C6.18843 8.34058 6.18843 8.14921 6.18843 7.95783C5.89015 7.95783 5.59188 7.95783 5.29544 7.95783C4.8959 7.95783 4.46564 8.00665 4.06977 7.9383C2.77724 7.71184 3.01768 6.10282 3.01768 5.07379C3.01768 4.37473 3.4985 3.72448 4.17096 3.68741C4.47651 3.66987 4.7856 3.68154 5.09115 3.68154C5.93175 3.68154 6.77411 3.68154 7.61471 3.68154C8.12632 3.67963 8.12992 4.5407 7.61655 4.5407Z" fill="white"/>
</svg>
