<svg width="16" height="10" viewBox="0 0 16 10" fill="none" xmlns="http://www.w3.org/2000/svg">
<path d="M8 0C7.08 0 6.08875 0.5025 5.54125 1.28H6.6L7.69 0.675L8 0.50125L8.31 0.675L9.4 1.28H10.4587C9.91125 0.5025 8.92 0 8 0ZM5.12 0.64L4.8 0.96V1.92H4.48V2.56H2.56V2.315L2.9175 1.6H0.2825L0.64 2.315V3.2H0.32V3.84H0.64V7.68H0V9.6H16V7.68H15.36V3.84H15.68V3.2H15.36V2.315L15.7175 1.6H13.0825L13.44 2.315V2.56H11.52V1.92H11.2V0.96L10.88 0.64L10.56 0.96V1.92H9.355L8 1.2425L6.645 1.92H5.44V0.96L5.12 0.64ZM8 1.9575L10.485 3.2H5.515L8 1.9575ZM1.28 2.24H1.92V3.2H1.28V2.24ZM14.08 2.24H14.72V3.2H14.08V2.24ZM2.56 3.84H3.2V7.68H2.56V3.84ZM5.12 3.84H5.76V7.68H5.12V3.84ZM6.4 3.84H7.04V7.68H6.4V3.84ZM7.68 3.84H8.32V7.68H7.68V3.84ZM8.96 3.84H9.6V7.68H8.96V3.84ZM10.24 3.84H10.88V7.68H10.24V3.84ZM12.8 3.84H13.44V7.68H12.8V3.84ZM1.28 4.48H1.92V5.12H1.28V4.48ZM3.84 4.48H4.48V5.12H3.84V4.48ZM11.52 4.48H12.16V5.12H11.52V4.48ZM14.08 4.48H14.72V5.12H14.08V4.48ZM1.6 6.08C1.77625 6.08 1.92 6.22375 1.92 6.4V7.36H1.28V6.4C1.28 6.22375 1.42375 6.08 1.6 6.08ZM4.16 6.08C4.33625 6.08 4.48 6.22375 4.48 6.4V7.36H3.84V6.4C3.84 6.22375 3.98375 6.08 4.16 6.08ZM11.84 6.08C12.0162 6.08 12.16 6.22375 12.16 6.4V7.36H11.52V6.4C11.52 6.22375 11.6637 6.08 11.84 6.08ZM14.4 6.08C14.5762 6.08 14.72 6.22375 14.72 6.4V7.36H14.08V6.4C14.08 6.22375 14.2238 6.08 14.4 6.08ZM4.9975 8.32H11.0025L11.3225 8.96H4.6775L4.9975 8.32Z" fill="#444B54"/>
</svg>
