<svg width="21" height="21" viewBox="0 0 21 21" fill="none" xmlns="http://www.w3.org/2000/svg">
<path d="M8.65997 0.380005C4.33669 0.380005 0.839966 3.87672 0.839966 8.20001C0.839966 12.5233 4.33669 16.02 8.65997 16.02C10.2035 16.02 11.632 15.5672 12.8431 14.7981L18.4925 20.4475L20.4475 18.4925L14.87 12.9294C15.8726 11.6141 16.48 9.9843 16.48 8.20001C16.48 3.87672 12.9832 0.380005 8.65997 0.380005ZM8.65997 2.22001C11.9716 2.22001 14.64 4.88836 14.64 8.20001C14.64 11.5116 11.9716 14.18 8.65997 14.18C5.34833 14.18 2.67997 11.5116 2.67997 8.20001C2.67997 4.88836 5.34833 2.22001 8.65997 2.22001Z" fill="#FFF"/>
</svg>
