<svg width="21" height="21" viewBox="0 0 21 21" fill="none" xmlns="http://www.w3.org/2000/svg">
<path d="M8.92728 0.0833335C8.42833 0.0833335 8.0018 0.436035 7.90596 0.925619L7.55806 2.71191C6.7031 3.03521 5.91256 3.48688 5.21838 4.05672L3.50533 3.46672C3.03345 3.30422 2.51428 3.49933 2.26428 3.93058L0.693642 6.65275C0.444683 7.08504 0.535292 7.63385 0.911334 7.96094L2.28462 9.15519C2.2132 9.5941 2.16662 10.0409 2.16662 10.5C2.16662 10.9591 2.2132 11.4059 2.28462 11.8448L0.911334 13.0391C0.535292 13.3661 0.444683 13.915 0.693642 14.3473L2.26428 17.0694C2.51324 17.5017 3.03345 17.6968 3.50533 17.5353L5.21838 16.9453C5.91234 17.5148 6.70349 17.9649 7.55806 18.2881L7.90596 20.0744C8.0018 20.564 8.42833 20.9167 8.92728 20.9167H12.0726C12.5716 20.9167 12.9981 20.564 13.094 20.0744L13.4419 18.2881C14.2968 17.9648 15.0873 17.5131 15.7815 16.9433L17.4946 17.5333C17.9665 17.6958 18.4856 17.5017 18.7356 17.0694L20.3063 14.3452C20.5552 13.9129 20.4646 13.3661 20.0886 13.0391L18.7153 11.8448C18.7867 11.4059 18.8333 10.9591 18.8333 10.5C18.8333 10.0409 18.7867 9.5941 18.7153 9.15519L20.0886 7.96094C20.4646 7.63385 20.5552 7.08504 20.3063 6.65275L18.7356 3.93058C18.4867 3.49829 17.9665 3.30322 17.4946 3.46468L15.7815 4.05469C15.0876 3.4852 14.2964 3.03506 13.4419 2.71191L13.094 0.925619C12.9981 0.436035 12.5716 0.0833335 12.0726 0.0833335H8.92728ZM10.5 6.33333C12.801 6.33333 14.6666 8.19896 14.6666 10.5C14.6666 12.801 12.801 14.6667 10.5 14.6667C8.19891 14.6667 6.33329 12.801 6.33329 10.5C6.33329 8.19896 8.19891 6.33333 10.5 6.33333Z" fill="#FFF"/>
</svg>
