<svg width="18" height="18" viewBox="0 0 18 18" fill="none" xmlns="http://www.w3.org/2000/svg">
<g clip-path="url(#clip0)">
<path d="M14.0625 2.125C12.5156 2.125 11.25 3.39062 11.25 4.9375C11.25 5.13086 11.272 5.31543 11.3071 5.5L6.20947 7.79395C5.69531 7.09082 4.86914 6.625 3.9375 6.625C2.39062 6.625 1.125 7.89062 1.125 9.4375C1.125 10.9844 2.39062 12.25 3.9375 12.25C4.87353 12.25 5.7085 11.7798 6.21826 11.0679L11.3203 13.3354C11.2764 13.5288 11.25 13.731 11.25 13.9375C11.25 15.4844 12.5156 16.75 14.0625 16.75C15.6094 16.75 16.875 15.4844 16.875 13.9375C16.875 12.3906 15.6094 11.125 14.0625 11.125C13.1265 11.125 12.2915 11.5952 11.7817 12.3071L6.67969 10.0439C6.72363 9.84619 6.75 9.64404 6.75 9.4375C6.75 9.22656 6.72363 9.02002 6.67969 8.82227L11.751 6.52832C12.2607 7.2666 13.1089 7.75 14.0625 7.75C15.6094 7.75 16.875 6.48438 16.875 4.9375C16.875 3.39062 15.6094 2.125 14.0625 2.125ZM14.0625 3.25C15.0029 3.25 15.75 3.99707 15.75 4.9375C15.75 5.87793 15.0029 6.625 14.0625 6.625C13.1221 6.625 12.375 5.87793 12.375 4.9375C12.375 3.99707 13.1221 3.25 14.0625 3.25ZM3.9375 7.75C4.87793 7.75 5.625 8.49707 5.625 9.4375C5.625 10.3779 4.87793 11.125 3.9375 11.125C2.99707 11.125 2.25 10.3779 2.25 9.4375C2.25 8.49707 2.99707 7.75 3.9375 7.75ZM14.0625 12.25C15.0029 12.25 15.75 12.9971 15.75 13.9375C15.75 14.8779 15.0029 15.625 14.0625 15.625C13.1221 15.625 12.375 14.8779 12.375 13.9375C12.375 12.9971 13.1221 12.25 14.0625 12.25Z" fill="#00BCD4"/>
</g>
<defs>
<clipPath id="clip0">
<rect width="18" height="18" fill="white"/>
</clipPath>
</defs>
</svg>
