<svg width="16" height="16" viewBox="0 0 16 16" fill="none" xmlns="http://www.w3.org/2000/svg">
<path fill-rule="evenodd" clip-rule="evenodd" d="M10 10.2542C10.4893 9.69416 11.2 9.3335 12 9.3335C13.47 9.3335 14.6667 10.5295 14.6667 12.0002C14.6667 13.4702 13.47 14.6668 12 14.6668C10.53 14.6668 9.33334 13.4702 9.33334 12.0002C9.33334 11.8088 9.35534 11.6228 9.39468 11.4422L6.00001 9.74483C5.51068 10.3048 4.80001 10.6668 4.00001 10.6668C2.53001 10.6668 1.33334 9.47016 1.33334 8.00016C1.33334 6.5295 2.53001 5.3335 4.00001 5.3335C4.80001 5.3335 5.51068 5.69483 6.00001 6.25416L9.39468 4.5575C9.35534 4.3775 9.33334 4.1915 9.33334 4.00016C9.33334 2.5295 10.53 1.3335 12 1.3335C13.47 1.3335 14.6667 2.5295 14.6667 4.00016C14.6667 5.47016 13.47 6.66683 12 6.66683C11.2 6.66683 10.4893 6.3055 10 5.7455L6.60534 7.44216C6.64468 7.62283 6.66668 7.80816 6.66668 8.00016C6.66668 8.19216 6.64468 8.37816 6.60534 8.5575L10 10.2542ZM13.3333 4.00016C13.3333 3.2635 12.736 2.66683 12 2.66683C11.264 2.66683 10.6667 3.2635 10.6667 4.00016C10.6667 4.73616 11.264 5.3335 12 5.3335C12.736 5.3335 13.3333 4.73616 13.3333 4.00016ZM4.00001 9.3335C3.26401 9.3335 2.66668 8.73616 2.66668 8.00016C2.66668 7.2635 3.26401 6.66683 4.00001 6.66683C4.73601 6.66683 5.33334 7.2635 5.33334 8.00016C5.33334 8.73616 4.73601 9.3335 4.00001 9.3335ZM10.6667 12.0002C10.6667 12.7362 11.264 13.3335 12 13.3335C12.736 13.3335 13.3333 12.7362 13.3333 12.0002C13.3333 11.2635 12.736 10.6668 12 10.6668C11.264 10.6668 10.6667 11.2635 10.6667 12.0002Z" fill="#757575"/>
</svg>
