<svg width="13" height="11" viewBox="0 0 13 11" fill="none" xmlns="http://www.w3.org/2000/svg">
<path d="M6.5 2.52081L7.28542 4.11873L7.52917 4.63331L8.09792 4.71456L9.85833 4.95831L8.58542 6.20415L8.17917 6.6104L8.2875 7.17915L8.58542 8.93956L7.01458 8.09998L6.5 7.82915L5.98542 8.09998L4.41458 8.93956L4.7125 7.17915L4.82083 6.6104L4.41458 6.20415L3.14167 4.95831L4.90208 4.71456L5.47083 4.63331L5.71458 4.11873L6.5 2.52081ZM6.5 0.083313L4.73958 3.65831L0.8125 4.22706L3.65625 6.98956L2.97917 10.9166L6.5 9.07498L10.0208 10.9166L9.34375 6.98956L12.1875 4.22706L8.26042 3.65831L6.5 0.083313Z" fill="white"/>
</svg>
