<svg width="16" height="14" viewBox="0 0 16 14" fill="none" xmlns="http://www.w3.org/2000/svg">
<path fill-rule="evenodd" clip-rule="evenodd" d="M7.70933 3.83211L7.74365 4.402L7.17157 4.33221C5.08918 4.06472 3.26995 3.15755 1.72532 1.63396L0.970169 0.87799L0.77566 1.43625C0.363759 2.6807 0.626918 3.99493 1.48505 4.87884C1.94271 5.36732 1.83974 5.4371 1.05026 5.14634C0.77566 5.0533 0.535384 4.98352 0.512501 5.01841C0.432409 5.09982 0.70701 6.15819 0.924402 6.57688C1.22189 7.1584 1.8283 7.72829 2.49191 8.06557L3.05256 8.33307L2.38894 8.3447C1.7482 8.3447 1.72532 8.35633 1.79397 8.60057C2.0228 9.35654 2.9267 10.159 3.93357 10.5079L4.64295 10.7522L4.0251 11.1244C3.10977 11.6594 2.03425 11.9617 0.958727 11.985C0.443851 11.9966 0.0205078 12.0432 0.0205078 12.0781C0.0205078 12.1944 1.41639 12.8457 2.22876 13.1015C4.66584 13.8575 7.56059 13.5318 9.73451 12.2409C11.2791 11.3221 12.8238 9.49611 13.5446 7.72829C13.9336 6.78623 14.3226 5.06493 14.3226 4.23917C14.3226 3.70417 14.357 3.63439 14.9977 2.99472C15.3753 2.62255 15.73 2.21548 15.7986 2.09918C15.913 1.8782 15.9016 1.8782 15.3181 2.07592C14.3455 2.42483 14.2082 2.37831 14.6888 1.85494C15.0435 1.48277 15.4668 0.808207 15.4668 0.610491C15.4668 0.5756 15.2952 0.633752 15.1007 0.738425C14.8947 0.854729 14.437 1.02918 14.0938 1.13386L13.4759 1.33157L12.9153 0.947772C12.6064 0.738425 12.1716 0.505817 11.9428 0.436035C11.3592 0.27321 10.4668 0.29647 9.94046 0.482557C8.51025 1.00592 7.60635 2.35505 7.70933 3.83211Z" fill="#212B36"/>
<mask id="mask0" mask-type="alpha" maskUnits="userSpaceOnUse" x="0" y="0" width="16" height="14">
<path fill-rule="evenodd" clip-rule="evenodd" d="M7.70933 3.83211L7.74365 4.402L7.17157 4.33221C5.08918 4.06472 3.26995 3.15755 1.72532 1.63396L0.970169 0.87799L0.77566 1.43625C0.363759 2.6807 0.626918 3.99493 1.48505 4.87884C1.94271 5.36732 1.83974 5.4371 1.05026 5.14634C0.77566 5.0533 0.535384 4.98352 0.512501 5.01841C0.432409 5.09982 0.70701 6.15819 0.924402 6.57688C1.22189 7.1584 1.8283 7.72829 2.49191 8.06557L3.05256 8.33307L2.38894 8.3447C1.7482 8.3447 1.72532 8.35633 1.79397 8.60057C2.0228 9.35654 2.9267 10.159 3.93357 10.5079L4.64295 10.7522L4.0251 11.1244C3.10977 11.6594 2.03425 11.9617 0.958727 11.985C0.443851 11.9966 0.0205078 12.0432 0.0205078 12.0781C0.0205078 12.1944 1.41639 12.8457 2.22876 13.1015C4.66584 13.8575 7.56059 13.5318 9.73451 12.2409C11.2791 11.3221 12.8238 9.49611 13.5446 7.72829C13.9336 6.78623 14.3226 5.06493 14.3226 4.23917C14.3226 3.70417 14.357 3.63439 14.9977 2.99472C15.3753 2.62255 15.73 2.21548 15.7986 2.09918C15.913 1.8782 15.9016 1.8782 15.3181 2.07592C14.3455 2.42483 14.2082 2.37831 14.6888 1.85494C15.0435 1.48277 15.4668 0.808207 15.4668 0.610491C15.4668 0.5756 15.2952 0.633752 15.1007 0.738425C14.8947 0.854729 14.437 1.02918 14.0938 1.13386L13.4759 1.33157L12.9153 0.947772C12.6064 0.738425 12.1716 0.505817 11.9428 0.436035C11.3592 0.27321 10.4668 0.29647 9.94046 0.482557C8.51025 1.00592 7.60635 2.35505 7.70933 3.83211Z" fill="white"/>
</mask>
<g mask="url(#mask0)">
<rect x="-0.969116" y="-1.66553" width="17.8144" height="17.9367" rx="4" fill="#F5F6F6"/>
</g>
</svg>
