<svg width="27" height="30" viewBox="0 0 27 30" fill="none" xmlns="http://www.w3.org/2000/svg">
<g clip-path="url(#clip0)" filter="url(#filter0_d)">
<path d="M6.49996 1.83325C5.49019 1.83325 4.66663 2.65682 4.66663 3.66659V18.3333C4.66663 19.343 5.49019 20.1666 6.49996 20.1666H11.1764C11.1155 19.8694 11.0833 19.5614 11.0833 19.2499C11.0833 18.0253 11.5595 16.8723 12.4261 16.0094L17.0094 11.426C17.6683 10.7636 18.4811 10.3518 19.3333 10.1799V7.33325L13.8333 1.83325H6.49996ZM12.9166 3.20825L17.9583 8.24992H12.9166V3.20825ZM20.25 11.9166C19.5446 11.9166 18.8427 12.1851 18.3056 12.7222L16.9557 14.0686L18.2519 15.3684L16.3147 17.302L17.6145 18.5982L19.5625 16.6503L18.2627 15.3541L19.6018 14.0185C19.9599 13.6604 20.54 13.6604 20.8981 14.0185C21.0699 14.1903 21.1666 14.4195 21.1666 14.6666C21.1666 14.9101 21.0699 15.1392 20.8981 15.3111L19.5732 16.6396L20.8694 17.9358L22.1943 16.6109C22.7135 16.0917 23 15.4006 23 14.6666C23 13.929 22.7135 13.2415 22.1943 12.7222C21.6572 12.1851 20.9554 11.9166 20.25 11.9166ZM16.3147 17.302L15.0221 16.0094L13.7223 17.3056C13.2031 17.8248 12.9166 18.5159 12.9166 19.2499C12.9166 19.984 13.2031 20.675 13.7223 21.1943C14.2415 21.7135 14.9326 21.9999 15.6666 21.9999C16.4007 21.9999 17.0918 21.7135 17.611 21.1943L18.9072 19.8944L17.6145 18.6018L16.3147 19.898C15.9674 20.2454 15.3658 20.2454 15.0185 19.898C14.8466 19.7262 14.75 19.4934 14.75 19.2499C14.75 19.0028 14.8466 18.7737 15.0185 18.6018L16.3147 17.302Z" fill="#10389B"/>
</g>
<defs>
<filter id="filter0_d" x="-3" y="0" width="30" height="30" filterUnits="userSpaceOnUse" color-interpolation-filters="sRGB">
<feFlood flood-opacity="0" result="BackgroundImageFix"/>
<feColorMatrix in="SourceAlpha" type="matrix" values="0 0 0 0 0 0 0 0 0 0 0 0 0 0 0 0 0 0 127 0"/>
<feOffset dy="4"/>
<feGaussianBlur stdDeviation="2"/>
<feColorMatrix type="matrix" values="0 0 0 0 0 0 0 0 0 0 0 0 0 0 0 0 0 0 0.25 0"/>
<feBlend mode="normal" in2="BackgroundImageFix" result="effect1_dropShadow"/>
<feBlend mode="normal" in="SourceGraphic" in2="effect1_dropShadow" result="shape"/>
</filter>
<clipPath id="clip0">
<rect width="22" height="22" fill="white" transform="translate(1)"/>
</clipPath>
</defs>
</svg>
