<svg width="24" height="24" viewBox="0 0 24 24" fill="none" xmlns="http://www.w3.org/2000/svg">
<path fill-rule="evenodd" clip-rule="evenodd" d="M2 12.001C2 6.48698 6.486 2.00098 12 2.00098C17.514 2.00098 22 6.48698 22 12.001C22 17.515 17.514 22.001 12 22.001C6.486 22.001 2 17.515 2 12.001ZM4 12.001C4 16.412 7.589 20.001 12 20.001C16.411 20.001 20 16.412 20 12.001C20 7.58998 16.411 4.00098 12 4.00098C7.589 4.00098 4 7.58998 4 12.001Z" fill="white"/>
<path d="M13 7.00098H11V11.001H7V13.001H11V17.001H13V13.001H17V11.001H13V7.00098Z" fill="white"/>
</svg>
