<svg width="16" height="16" viewBox="0 0 16 16" fill="none" xmlns="http://www.w3.org/2000/svg">
<path d="M6.85714 0C5.17262 0 3.80952 1.3631 3.80952 3.04762C3.80952 4.73214 5.17262 6.09524 6.85714 6.09524C8.54167 6.09524 9.90476 4.73214 9.90476 3.04762C9.90476 1.3631 8.54167 0 6.85714 0ZM11.4286 6.85714C8.91369 6.85714 6.85714 8.91369 6.85714 11.4286C6.85714 13.9435 8.91369 16 11.4286 16C13.9435 16 16 13.9435 16 11.4286C16 8.91369 13.9435 6.85714 11.4286 6.85714ZM6.13393 8.41667C3.72619 8.61607 0 9.75 0 11.8095V13.7143H5.78274C5.49405 13.0089 5.33333 12.2381 5.33333 11.4286C5.33333 10.3304 5.62798 9.30655 6.13393 8.41667ZM10.6667 9.14286H12.1905V10.6667H13.7143V12.1905H12.1905V13.7143H10.6667V12.1905H9.14286V10.6667H10.6667V9.14286Z" fill="#CFD8DC"/>
</svg>
