<svg width="20" height="20" viewBox="0 0 20 20" fill="none" xmlns="http://www.w3.org/2000/svg">
<path d="M10 1.0625C5.07202 1.0625 1.0625 5.07202 1.0625 10C1.0625 14.928 5.07202 18.9375 10 18.9375C14.928 18.9375 18.9375 14.928 18.9375 10C18.9375 5.07202 14.928 1.0625 10 1.0625ZM10 2.4375C14.1841 2.4375 17.5625 5.81592 17.5625 10C17.5625 14.1841 14.1841 17.5625 10 17.5625C5.81592 17.5625 2.4375 14.1841 2.4375 10C2.4375 5.81592 5.81592 2.4375 10 2.4375ZM9.3125 6.5625V9.3125H6.5625V10.6875H9.3125V13.4375H10.6875V10.6875H13.4375V9.3125H10.6875V6.5625H9.3125Z" fill="#778F9B" stroke="#778F9B" stroke-width="0.5"/>
</svg>
