<svg width="20" height="20" viewBox="0 0 20 20" fill="none" xmlns="http://www.w3.org/2000/svg">
<path d="M10.1843 0C4.60549 0 0.0607222 4.51968 0 10.0943V10.1036V10.1138C0.0608381 15.5735 4.51227 20 9.97622 20C13.3321 20 16.171 18.9943 18.4918 16.2092C18.565 16.1215 18.6202 16.0202 18.6542 15.9111C18.6882 15.802 18.7003 15.6873 18.69 15.5735C18.6797 15.4597 18.647 15.3491 18.594 15.2479C18.5409 15.1467 18.4684 15.057 18.3806 14.9839C18.2928 14.9107 18.1915 14.8556 18.0825 14.8216C17.9734 14.7876 17.8587 14.7754 17.7449 14.7857C17.6311 14.796 17.5205 14.8287 17.4193 14.8818C17.3181 14.9348 17.2284 15.0073 17.1552 15.0951C15.1283 17.5275 13.0169 18.2609 9.97622 18.2609C5.4512 18.2609 1.7955 14.6281 1.73998 10.1036C1.79607 5.46478 5.5448 1.73913 10.1843 1.73913C12.0697 1.73913 13.8936 2.37993 15.2182 3.50543C16.5429 4.63094 17.3888 6.20935 17.3888 8.25577V8.42391C17.3888 9.89583 16.6959 11.2936 15.7439 12.3149C14.7919 13.3361 13.5726 13.913 12.8524 13.913C12.6927 13.913 12.6994 13.8932 12.6868 13.8791C12.6742 13.8649 12.6061 13.77 12.6061 13.4783V13.4562L12.6053 13.4341C12.6053 13.4341 12.5461 12.4154 13.1301 10.9969C13.1308 10.9952 13.1311 10.9936 13.1318 10.9918L15.1512 5.97741C15.2076 5.84305 15.2293 5.69667 15.2144 5.55172C15.1995 5.40677 15.1483 5.26789 15.0658 5.14784C14.9832 5.02779 14.8717 4.93042 14.7417 4.86467C14.6116 4.79893 14.4671 4.76691 14.3215 4.77157C14.1509 4.77709 13.9857 4.83269 13.8465 4.93144C13.7072 5.0302 13.6002 5.16774 13.5386 5.32694L13.4265 5.60632C13.2666 5.415 13.0897 5.24372 12.894 5.09681C12.1559 4.54272 11.2466 4.34783 10.3074 4.34783C9.0488 4.34783 7.67182 5.06299 6.46824 6.30095C5.26466 7.53891 4.29942 9.37421 4.29942 11.6559C4.29942 13.8518 6.09483 15.6522 8.28889 15.6522C9.49726 15.6522 10.4409 15.1395 11.0793 14.5304C11.1581 14.7108 11.2529 14.8833 11.3867 15.034C11.7604 15.4546 12.3256 15.6522 12.8524 15.6522C14.3318 15.6522 15.8148 14.7889 17.016 13.5003C18.2171 12.2118 19.1279 10.4303 19.1279 8.42391V8.25577C19.1279 5.71481 18.0166 3.60077 16.3443 2.17986C14.6719 0.758945 12.4597 0 10.1843 0ZM10.3074 6.08696C11.0082 6.08696 11.5063 6.22947 11.8504 6.48777C12.1638 6.72301 12.4093 7.09361 12.5594 7.7573L11.5243 10.3286L10.9383 11.7824C10.9375 11.7839 10.9366 11.7853 10.9358 11.7867C10.6303 12.2765 10.3303 12.825 9.92442 13.232C9.51859 13.639 9.07521 13.913 8.28889 13.913C7.03687 13.913 6.03855 12.9139 6.03855 11.6559C6.03855 9.85978 6.78069 8.4753 7.71569 7.51359C8.6507 6.55187 9.84296 6.08696 10.3074 6.08696Z" fill="#333333"/>
</svg>
