<svg width="12" height="12" viewBox="0 0 12 12" fill="none" xmlns="http://www.w3.org/2000/svg">
<path d="M6 1.125C3.31201 1.125 1.125 3.31201 1.125 6C1.125 8.68799 3.31201 10.875 6 10.875C8.68799 10.875 10.875 8.68799 10.875 6C10.875 3.31201 8.68799 1.125 6 1.125ZM6 1.875C8.28223 1.875 10.125 3.71777 10.125 6C10.125 8.28223 8.28223 10.125 6 10.125C3.71777 10.125 1.875 8.28223 1.875 6C1.875 3.71777 3.71777 1.875 6 1.875ZM5.625 4.125V5.625H4.125V6.375H5.625V7.875H6.375V6.375H7.875V5.625H6.375V4.125H5.625Z" fill="white" stroke="white" stroke-width="0.5"/>
</svg>
