<svg width="20" height="20" viewBox="0 0 20 20" fill="none" xmlns="http://www.w3.org/2000/svg">
<path d="M0.308594 10C0.308594 4.64844 4.64844 0.308594 10 0.308594C15.3516 0.308594 19.6914 4.64844 19.6914 10C19.6914 15.3516 15.3516 19.6914 10 19.6914C4.64844 19.6914 0.308594 15.3516 0.308594 10Z" fill="#CFD8DC"/>
<path d="M15.7188 6.21875L13.7813 4.28125C13.3633 3.86328 12.6836 3.86328 12.2656 4.28125L9.27344 7.27344C8.85547 7.69141 8.85547 8.3711 9.27344 8.78907L11.2109 10.7266C11.6289 11.1445 12.3086 11.1445 12.7266 10.7266L15.7188 7.73438C16.1367 7.31641 16.1367 6.64063 15.7188 6.21875ZM12.5195 9.50391C12.2734 9.75001 11.875 9.75001 11.6289 9.50391L10.4922 8.36719C10.2461 8.1211 10.2461 7.72266 10.4922 7.47657L12.4648 5.50391C12.7109 5.25781 13.1094 5.25781 13.3555 5.50391L14.4922 6.64063C14.7383 6.88672 14.7383 7.28516 14.4922 7.53126L12.5195 9.50391Z" fill="white"/>
<path d="M10.7305 11.207L8.79297 9.26953C8.375 8.85156 7.69531 8.85156 7.27734 9.26953L4.28516 12.2617C3.86719 12.6797 3.86719 13.3594 4.28516 13.7773L6.22266 15.7148C6.64063 16.1328 7.32031 16.1328 7.73828 15.7148L10.7305 12.7227C11.1484 12.3047 11.1484 11.625 10.7305 11.207ZM7.53125 14.4922C7.28516 14.7383 6.88672 14.7383 6.64063 14.4922L5.50781 13.3555C5.26172 13.1094 5.26172 12.7109 5.50781 12.4648L7.48047 10.4922C7.72656 10.2461 8.125 10.2461 8.37109 10.4922L9.50781 11.6289C9.75391 11.875 9.75391 12.2734 9.50781 12.5195L7.53125 14.4922Z" fill="white"/>
<path d="M12.2969 7.79688L12.2031 7.70312C11.9023 7.40234 11.4102 7.40234 11.1055 7.70312L7.69922 11.1094C7.39844 11.4102 7.39844 11.9023 7.69922 12.207L7.79297 12.3008C8.09375 12.6016 8.58594 12.6016 8.89062 12.3008L12.2969 8.89453C12.6016 8.58984 12.6016 8.09766 12.2969 7.79688Z" fill="#CFD8DC"/>
<path d="M8.72265 12.1289C8.51562 12.3359 8.17578 12.3359 7.96484 12.1289L7.87109 12.0351C7.66406 11.8281 7.66406 11.4883 7.87109 11.2773L11.2773 7.87109C11.4844 7.66406 11.8242 7.66406 12.0351 7.87109L12.1289 7.96484C12.3359 8.17187 12.3359 8.51172 12.1289 8.72265L8.72265 12.1289Z" fill="white"/>
</svg>
