<svg width="16" height="16" viewBox="0 0 16 16" fill="none" xmlns="http://www.w3.org/2000/svg">
<path d="M8 0C3.582 0 0 3.582 0 8C0 12.418 3.582 16 8 16C12.418 16 16 12.418 16 8C16 3.582 12.418 0 8 0ZM11.3333 8.66667H8.66667V11.3333C8.66667 11.702 8.368 12 8 12C7.632 12 7.33333 11.702 7.33333 11.3333V8.66667H4.66667C4.29867 8.66667 4 8.36867 4 8C4 7.63133 4.29867 7.33333 4.66667 7.33333H7.33333V4.66667C7.33333 4.298 7.632 4 8 4C8.368 4 8.66667 4.298 8.66667 4.66667V7.33333H11.3333C11.7013 7.33333 12 7.63133 12 8C12 8.36867 11.7013 8.66667 11.3333 8.66667Z" fill="#10389B"/>
</svg>
