<svg width="22" height="6" viewBox="0 0 22 6" fill="none" xmlns="http://www.w3.org/2000/svg">
<path d="M0 3C0 3.79565 0.316071 4.55871 0.87868 5.12132C1.44129 5.68393 2.20435 6 3 6C3.79565 6 4.55871 5.68393 5.12132 5.12132C5.68393 4.55871 6 3.79565 6 3C6 2.20435 5.68393 1.44129 5.12132 0.878679C4.55871 0.31607 3.79565 0 3 0C2.20435 0 1.44129 0.31607 0.87868 0.878679C0.316071 1.44129 0 2.20435 0 3ZM8 3C8 3.79565 8.31607 4.55871 8.87868 5.12132C9.44129 5.68393 10.2044 6 11 6C11.7956 6 12.5587 5.68393 13.1213 5.12132C13.6839 4.55871 14 3.79565 14 3C14 2.20435 13.6839 1.44129 13.1213 0.878679C12.5587 0.31607 11.7956 0 11 0C10.2044 0 9.44129 0.31607 8.87868 0.878679C8.31607 1.44129 8 2.20435 8 3ZM16 3C16 3.79565 16.3161 4.55871 16.8787 5.12132C17.4413 5.68393 18.2044 6 19 6C19.7956 6 20.5587 5.68393 21.1213 5.12132C21.6839 4.55871 22 3.79565 22 3C22 2.20435 21.6839 1.44129 21.1213 0.878679C20.5587 0.31607 19.7956 0 19 0C18.2044 0 17.4413 0.31607 16.8787 0.878679C16.3161 1.44129 16 2.20435 16 3Z" fill="black"/>
</svg>
