<svg width="12" height="12" viewBox="0 0 12 12" fill="none" xmlns="http://www.w3.org/2000/svg">
<path d="M4.82304 0C4.53564 0 4.28996 0.203156 4.23476 0.485156L4.03437 1.51406C3.54191 1.70028 3.08656 1.96044 2.68671 2.28867L1.69999 1.94883C1.42819 1.85523 1.12915 1.96762 0.985147 2.21602L0.0804594 3.78398C-0.0629406 4.03298 -0.01075 4.3491 0.20585 4.5375L0.996866 5.22539C0.955728 5.4782 0.928897 5.73557 0.928897 6C0.928897 6.26443 0.955728 6.5218 0.996866 6.77461L0.20585 7.4625C-0.01075 7.6509 -0.0629406 7.96702 0.0804594 8.21602L0.985147 9.78399C1.12855 10.033 1.42819 10.1453 1.69999 10.0523L2.68671 9.7125C3.08643 10.0405 3.54213 10.2998 4.03437 10.4859L4.23476 11.5148C4.28996 11.7968 4.53564 12 4.82304 12H6.63476C6.92216 12 7.16784 11.7968 7.22304 11.5148L7.42343 10.4859C7.91588 10.2997 8.37123 10.0396 8.77108 9.71133L9.7578 10.0512C10.0296 10.1448 10.3286 10.033 10.4726 9.78399L11.3773 8.21484C11.5207 7.96584 11.4685 7.6509 11.2519 7.4625L10.4609 6.77461C10.5021 6.5218 10.5289 6.26443 10.5289 6C10.5289 5.73557 10.5021 5.4782 10.4609 5.22539L11.2519 4.5375C11.4685 4.3491 11.5207 4.03298 11.3773 3.78398L10.4726 2.21602C10.3292 1.96702 10.0296 1.85466 9.7578 1.94766L8.77108 2.2875C8.37137 1.95948 7.91566 1.7002 7.42343 1.51406L7.22304 0.485156C7.16784 0.203156 6.92216 0 6.63476 0H4.82304ZM5.7289 3.6C7.0543 3.6 8.1289 4.6746 8.1289 6C8.1289 7.3254 7.0543 8.4 5.7289 8.4C4.4035 8.4 3.3289 7.3254 3.3289 6C3.3289 4.6746 4.4035 3.6 5.7289 3.6Z" fill="#00BCD4"/>
</svg>
