<svg width="12" height="12" viewBox="0 0 12 12" fill="none" xmlns="http://www.w3.org/2000/svg">
<path d="M8.63336 8.79211C7.80561 7.34914 6.26197 6.37598 4.48343 6.37598C2.70489 6.37598 1.16125 7.34914 0.333496 8.79211L0.344682 9.17243H8.62217L8.63336 8.79211Z" fill="white"/>
<path d="M10.2037 10.4178C11.0774 9.54418 11.0774 8.1277 10.2037 7.25404C9.33004 6.38039 7.91356 6.38039 7.0399 7.25404C6.16625 8.1277 6.16625 9.54418 7.0399 10.4178C7.91356 11.2915 9.33004 11.2915 10.2037 10.4178Z" fill="#00BCD4"/>
<path d="M9.39377 9.17212H7.82776C7.6376 9.17212 7.49219 9.02671 7.49219 8.83655C7.49219 8.64639 7.6376 8.50098 7.82776 8.50098H9.39377C9.58393 8.50098 9.72935 8.64639 9.72935 8.83655C9.72935 9.02671 9.58393 9.17212 9.39377 9.17212Z" fill="white"/>
<path d="M6.13902 7.0132C6.10546 7.0132 6.06072 7.00202 6.02716 6.99083C5.53499 6.81186 5.02044 6.71119 4.48352 6.71119C4.29336 6.71119 4.14795 6.56577 4.14795 6.37561C4.14795 6.18545 4.29336 6.04004 4.48352 6.04004C5.09874 6.04004 5.69159 6.1519 6.26206 6.35324C6.44104 6.42036 6.51934 6.61051 6.46341 6.78949C6.40748 6.92372 6.27325 7.0132 6.13902 7.0132Z" fill="#00BCD4"/>
<path d="M0.333538 9.12732C0.277609 9.12732 0.22168 9.11613 0.165751 9.08258C0.00914986 8.99309 -0.0467792 8.79174 0.0427072 8.62396C0.948757 7.03557 2.649 6.04004 4.48347 6.04004C4.67363 6.04004 4.81904 6.18545 4.81904 6.37561C4.81904 6.56577 4.67363 6.71119 4.48347 6.71119C2.89509 6.71119 1.41856 7.57249 0.624369 8.95953C0.56844 9.0602 0.456582 9.12732 0.333538 9.12732Z" fill="#00BCD4"/>
<path d="M4.48374 4.81026C5.71929 4.81026 6.7209 3.80865 6.7209 2.5731C6.7209 1.33755 5.71929 0.335938 4.48374 0.335938C3.24819 0.335938 2.24658 1.33755 2.24658 2.5731C2.24658 3.80865 3.24819 4.81026 4.48374 4.81026Z" fill="white"/>
<path d="M4.48338 5.14547C3.06278 5.14547 1.91064 3.99333 1.91064 2.57273C1.91064 1.15214 3.06278 0 4.48338 0C5.90397 0 7.05611 1.15214 7.05611 2.57273C7.05611 3.99333 5.90397 5.14547 4.48338 5.14547ZM4.48338 0.671148C3.43191 0.671148 2.58179 1.52127 2.58179 2.57273C2.58179 3.6242 3.43191 4.47432 4.48338 4.47432C5.53484 4.47432 6.38496 3.6242 6.38496 2.57273C6.38496 1.52127 5.53484 0.671148 4.48338 0.671148Z" fill="#00BCD4"/>
</svg>
