<svg width="16" height="16" viewBox="0 0 16 16" fill="none" xmlns="http://www.w3.org/2000/svg">
<path d="M11.5108 11.7223C10.4072 9.79847 8.34908 8.50098 5.9778 8.50098C3.60653 8.50098 1.54844 9.79847 0.444824 11.7223L0.459738 12.2294H11.4959L11.5108 11.7223Z" fill="white"/>
<path d="M13.6046 13.8903C14.7694 12.7255 14.7694 10.837 13.6046 9.67216C12.4398 8.50734 10.5513 8.50734 9.38644 9.67216C8.22162 10.837 8.22162 12.7255 9.38644 13.8903C10.5513 15.0552 12.4398 15.0552 13.6046 13.8903Z" fill="#10389B"/>
<path d="M12.5246 12.2288H10.4367C10.1831 12.2288 9.98926 12.0349 9.98926 11.7814C9.98926 11.5279 10.1831 11.334 10.4367 11.334H12.5246C12.7781 11.334 12.972 11.5279 12.972 11.7814C12.972 12.0349 12.7781 12.2288 12.5246 12.2288Z" fill="white"/>
<path d="M8.18491 9.3512C8.14017 9.3512 8.08051 9.33629 8.03577 9.32137C7.37957 9.08276 6.69354 8.94853 5.97768 8.94853C5.72415 8.94853 5.53027 8.75465 5.53027 8.50112C5.53027 8.24759 5.72415 8.05371 5.97768 8.05371C6.79794 8.05371 7.58836 8.20285 8.34896 8.47129C8.58758 8.56078 8.69197 8.81431 8.61741 9.05293C8.54284 9.23189 8.36387 9.3512 8.18491 9.3512Z" fill="#10389B"/>
<path d="M0.444696 12.1699C0.370128 12.1699 0.295559 12.155 0.220991 12.1102C0.0121992 11.9909 -0.0623693 11.7225 0.0569402 11.4988C1.26495 9.38103 3.53183 8.05371 5.97767 8.05371C6.23121 8.05371 6.42508 8.24759 6.42508 8.50112C6.42508 8.75465 6.23121 8.94853 5.97767 8.94853C3.85993 8.94853 1.89132 10.0969 0.832452 11.9462C0.757884 12.0804 0.608747 12.1699 0.444696 12.1699Z" fill="#10389B"/>
<path d="M5.97785 6.41274C7.62517 6.41274 8.96059 5.07732 8.96059 3.43C8.96059 1.78268 7.62517 0.447266 5.97785 0.447266C4.33053 0.447266 2.99512 1.78268 2.99512 3.43C2.99512 5.07732 4.33053 6.41274 5.97785 6.41274Z" fill="white"/>
<path d="M5.97751 6.8603C4.08347 6.8603 2.54736 5.32419 2.54736 3.43015C2.54736 1.53611 4.08347 0 5.97751 0C7.87155 0 9.40766 1.53611 9.40766 3.43015C9.40766 5.32419 7.87155 6.8603 5.97751 6.8603ZM5.97751 0.894821C4.57562 0.894821 3.44218 2.02826 3.44218 3.43015C3.44218 4.83203 4.57562 5.96548 5.97751 5.96548C7.3794 5.96548 8.51284 4.83203 8.51284 3.43015C8.51284 2.02826 7.3794 0.894821 5.97751 0.894821Z" fill="#10389B"/>
</svg>
