<svg width="14" height="13" viewBox="0 0 14 13" fill="none" xmlns="http://www.w3.org/2000/svg">
<path d="M13.0979 0.105029C12.8589 0.113466 12.6395 0.240029 12.5129 0.442529L5.74044 10.8038L1.35294 7.01253C1.1645 6.81706 0.881843 6.74393 0.621686 6.8255C0.362936 6.90565 0.17028 7.12503 0.12528 7.39222C0.0802803 7.66081 0.188561 7.93081 0.407936 8.09253L5.42544 12.435C5.58294 12.5686 5.79106 12.6277 5.99497 12.5982C6.20028 12.5672 6.38169 12.4505 6.49419 12.2775L13.7279 1.23003C13.8826 1.00362 13.8953 0.711123 13.7617 0.47206C13.6281 0.234404 13.3708 0.0923726 13.0979 0.105029Z" fill="#808080"/>
</svg>
