<svg width="18" height="18" viewBox="0 0 18 18" fill="none" xmlns="http://www.w3.org/2000/svg">
<path fill-rule="evenodd" clip-rule="evenodd" d="M11.25 11.5358C11.8005 10.9058 12.6 10.5 13.5 10.5C15.1538 10.5 16.5 11.8455 16.5 13.5C16.5 15.1538 15.1538 16.5 13.5 16.5C11.8463 16.5 10.5 15.1538 10.5 13.5C10.5 13.2847 10.5248 13.0755 10.569 12.8722L6.75 10.9627C6.1995 11.5927 5.4 12 4.5 12C2.84625 12 1.5 10.6537 1.5 9C1.5 7.3455 2.84625 6 4.5 6C5.4 6 6.1995 6.4065 6.75 7.03575L10.569 5.127C10.5248 4.9245 10.5 4.71525 10.5 4.5C10.5 2.8455 11.8463 1.5 13.5 1.5C15.1538 1.5 16.5 2.8455 16.5 4.5C16.5 6.15375 15.1538 7.5 13.5 7.5C12.6 7.5 11.8005 7.0935 11.25 6.4635L7.431 8.37225C7.47525 8.5755 7.5 8.784 7.5 9C7.5 9.216 7.47525 9.42525 7.431 9.627L11.25 11.5358ZM14.9998 4.49976C14.9998 3.67101 14.3278 2.99976 13.4998 2.99976C12.6718 2.99976 11.9998 3.67101 11.9998 4.49976C11.9998 5.32776 12.6718 5.99976 13.4998 5.99976C14.3278 5.99976 14.9998 5.32776 14.9998 4.49976ZM4.49982 10.4998C3.67182 10.4998 2.99982 9.82776 2.99982 8.99976C2.99982 8.17101 3.67182 7.49976 4.49982 7.49976C5.32782 7.49976 5.99982 8.17101 5.99982 8.99976C5.99982 9.82776 5.32782 10.4998 4.49982 10.4998ZM11.9998 13.4998C11.9998 14.3278 12.6718 14.9998 13.4998 14.9998C14.3278 14.9998 14.9998 14.3278 14.9998 13.4998C14.9998 12.671 14.3278 11.9998 13.4998 11.9998C12.6718 11.9998 11.9998 12.671 11.9998 13.4998Z" fill="#808080"/>
</svg>
